<svg xmlns="http://www.w3.org/2000/svg" width="21" height="20" viewBox="0 0 21 20">
    <g fill="none" fill-rule="evenodd">
        <path d="M-11-12h43.482v44H-11z"/>
        <path fill="#FFF" d="M1.357 6.413H5.21V20H1.357V6.413zm1.828-1.7h-.028C1.763 4.714.86 3.676.86 2.36c0-1.342.93-2.36 2.353-2.36 1.421 0 2.295 1.015 2.323 2.356 0 1.315-.902 2.358-2.35 2.358zM20.623 20h-4.368v-7.032c0-1.84-.683-3.095-2.186-3.095-1.15 0-1.788.847-2.086 1.665-.111.292-.094.7-.094 1.11V20H7.561s.056-12.455 0-13.587h4.328v2.132c.256-.932 1.638-2.263 3.845-2.263 2.738 0 4.889 1.956 4.889 6.163V20z"/>
    </g>
</svg>
