<svg xmlns="http://www.w3.org/2000/svg" width="23" height="16" viewBox="0 0 23 16">
    <g fill="none" fill-rule="evenodd">
        <path d="M-10.237-14h43.482v44h-43.482z"/>
        <path fill="#FFF" d="M2.72 4.932c-.501-.318-.974-.756-1.42-1.313C.857 3.063.635 2.545.635 2.07.634 1.476.8.984 1.137.59 1.473.197 1.952 0 2.575 0h17.858c.526 0 .98.178 1.365.534.384.356.576.784.576 1.284 0 .599-.198 1.17-.594 1.716a5.593 5.593 0 0 1-1.48 1.398l-5.678 3.693c-.08.053-.253.168-.516.346-.263.179-.48.323-.655.432-.174.11-.384.233-.63.37a3.79 3.79 0 0 1-.698.306 2.04 2.04 0 0 1-.607.102h-.024a2.04 2.04 0 0 1-.607-.102 3.785 3.785 0 0 1-.698-.306c-.246-.137-.457-.26-.63-.37-.174-.11-.393-.253-.656-.432a57.818 57.818 0 0 0-.515-.346A615.937 615.937 0 0 0 5.207 6.55a566.155 566.155 0 0 1-2.487-1.62zm18.441 1.216a6.587 6.587 0 0 0 1.213-.989v9.023c0 .5-.19.928-.57 1.284-.38.356-.837.534-1.37.534H2.573c-.533 0-.99-.178-1.37-.534-.38-.356-.57-.784-.57-1.284V5.159c.355.371.764.701 1.225.989 2.928 1.863 4.938 3.17 6.03 3.92.46.318.835.567 1.122.744.287.179.67.36 1.146.546.477.186.922.278 1.335.278h.024c.413 0 .858-.092 1.335-.278.477-.186.859-.367 1.146-.546.287-.177.661-.426 1.122-.744 1.375-.932 3.39-2.239 6.042-3.92z"/>
    </g>
</svg>
