<?xml version="1.0" encoding="UTF-8"?>
<svg width="250px" height="60px" viewBox="0 0 250 60" version="1.1" xmlns="http://www.w3.org/2000/svg" xmlns:xlink="http://www.w3.org/1999/xlink">
    <!-- Generator: Sketch 50 (54983) - http://www.bohemiancoding.com/sketch -->
    <title>optout</title>
    <defs></defs>
    <g id="Symbols" stroke="none" stroke-width="1" fill="none" fill-rule="evenodd">
        <g id="modules-/-hero---v4" transform="translate(-60.000000, -99.000000)" fill="#FFFFFF">
            <path d="M78.98,145.35 C75.4333156,145.35 72.2366809,144.545008 69.39,142.935 C66.5433191,141.324992 64.3033415,139.096681 62.67,136.25 C61.0366585,133.403319 60.22,130.183351 60.22,126.59 C60.22,122.996649 61.0366585,119.776681 62.67,116.93 C64.3033415,114.083319 66.5433191,111.866675 69.39,110.28 C72.2366809,108.693325 75.4333156,107.9 78.98,107.9 C82.5266844,107.9 85.7233191,108.693325 88.57,110.28 C91.4166809,111.866675 93.644992,114.083319 95.255,116.93 C96.8650081,119.776681 97.67,122.996649 97.67,126.59 C97.67,130.183351 96.8650081,133.403319 95.255,136.25 C93.644992,139.096681 91.4166809,141.324992 88.57,142.935 C85.7233191,144.545008 82.5266844,145.35 78.98,145.35 Z M78.98,140.94 C81.5933464,140.94 83.9383229,140.345006 86.015,139.155 C88.0916771,137.964994 89.7133275,136.273344 90.88,134.08 C92.0466725,131.886656 92.63,129.390014 92.63,126.59 C92.63,123.789986 92.0466725,121.293344 90.88,119.1 C89.7133275,116.906656 88.0916771,115.215006 86.015,114.025 C83.9383229,112.834994 81.5933464,112.24 78.98,112.24 C76.3666536,112.24 74.021677,112.834994 71.945,114.025 C69.868323,115.215006 68.235006,116.906656 67.045,119.1 C65.8549941,121.293344 65.26,123.789986 65.26,126.59 C65.26,129.390014 65.8549941,131.886656 67.045,134.08 C68.235006,136.273344 69.868323,137.964994 71.945,139.155 C74.021677,140.345006 76.3666536,140.94 78.98,140.94 Z M129.335454,107.9 C132.788805,107.9 135.91544,108.681659 138.715454,110.245 C141.515468,111.808341 143.708779,114.013319 145.295454,116.86 C146.882129,119.706681 147.675454,122.949982 147.675454,126.59 C147.675454,130.276685 146.882129,133.543319 145.295454,136.39 C143.708779,139.236681 141.527135,141.441659 138.750454,143.005 C135.973773,144.568341 132.835472,145.35 129.335454,145.35 C126.348772,145.35 123.653799,144.731673 121.250454,143.495 C118.847109,142.258327 116.875462,140.450012 115.335454,138.07 L115.335454,158.58 L110.365454,158.58 L110.365454,108.18 L115.125454,108.18 L115.125454,115.46 C116.618795,113.033321 118.590442,111.166673 121.040454,109.86 C123.490466,108.553327 126.255439,107.9 129.335454,107.9 Z M128.985454,140.94 C131.552134,140.94 133.885444,140.345006 135.985454,139.155 C138.085465,137.964994 139.730448,136.273344 140.920454,134.08 C142.11046,131.886656 142.705454,129.390014 142.705454,126.59 C142.705454,123.789986 142.11046,121.305011 140.920454,119.135 C139.730448,116.964989 138.085465,115.273339 135.985454,114.06 C133.885444,112.846661 131.552134,112.24 128.985454,112.24 C126.372108,112.24 124.027131,112.846661 121.950454,114.06 C119.873777,115.273339 118.24046,116.964989 117.050454,119.135 C115.860448,121.305011 115.265454,123.789986 115.265454,126.59 C115.265454,129.390014 115.860448,131.886656 117.050454,134.08 C118.24046,136.273344 119.873777,137.964994 121.950454,139.155 C124.027131,140.345006 126.372108,140.94 128.985454,140.94 Z M178.500908,142.76 C177.56757,143.600004 176.424248,144.241664 175.070908,144.685 C173.717568,145.128336 172.294249,145.35 170.800908,145.35 C167.347557,145.35 164.687584,144.416676 162.820908,142.55 C160.954232,140.683324 160.020908,138.046684 160.020908,134.64 L160.020908,100.13 L164.990908,100.13 L164.990908,108.18 L176.120908,108.18 L176.120908,112.38 L164.990908,112.38 L164.990908,134.36 C164.990908,136.553344 165.527569,138.221661 166.600908,139.365 C167.674247,140.508339 169.237564,141.08 171.290908,141.08 C173.530919,141.08 175.350901,140.450006 176.750908,139.19 L178.500908,142.76 Z M206.106362,145.56 C202.139676,145.56 198.581378,144.731675 195.431362,143.075 C192.281346,141.418325 189.819704,139.120015 188.046362,136.18 C186.27302,133.239985 185.386362,129.903352 185.386362,126.17 C185.386362,122.436648 186.27302,119.100015 188.046362,116.16 C189.819704,113.219985 192.281346,110.921675 195.431362,109.265 C198.581378,107.608325 202.139676,106.78 206.106362,106.78 C210.073048,106.78 213.61968,107.608325 216.746362,109.265 C219.873044,110.921675 222.32302,113.219985 224.096362,116.16 C225.869704,119.100015 226.756362,122.436648 226.756362,126.17 C226.756362,129.903352 225.869704,133.239985 224.096362,136.18 C222.32302,139.120015 219.873044,141.418325 216.746362,143.075 C213.61968,144.731675 210.073048,145.56 206.106362,145.56 Z M206.106362,136.6 C208.906376,136.6 211.204686,135.655009 213.001362,133.765 C214.798038,131.874991 215.696362,129.343349 215.696362,126.17 C215.696362,122.996651 214.798038,120.465009 213.001362,118.575 C211.204686,116.684991 208.906376,115.74 206.106362,115.74 C203.306348,115.74 200.996371,116.684991 199.176362,118.575 C197.356353,120.465009 196.446362,122.996651 196.446362,126.17 C196.446362,129.343349 197.356353,131.874991 199.176362,133.765 C200.996371,135.655009 203.306348,136.6 206.106362,136.6 Z M274.521816,107.34 L274.521816,145 L264.161816,145 L264.161816,140.52 C262.715142,142.153342 260.988493,143.401662 258.981816,144.265 C256.975139,145.128338 254.805161,145.56 252.471816,145.56 C247.525125,145.56 243.605164,144.136681 240.711816,141.29 C237.818468,138.443319 236.371816,134.220028 236.371816,128.62 L236.371816,107.34 L247.291816,107.34 L247.291816,127.01 C247.291816,133.076697 249.835124,136.11 254.921816,136.11 C257.535162,136.11 259.635141,135.258342 261.221816,133.555 C262.808491,131.851658 263.601816,129.320017 263.601816,125.96 L263.601816,107.34 L274.521816,107.34 Z M309.89727,143.18 C308.823931,143.973337 307.505611,144.568331 305.94227,144.965 C304.378929,145.361669 302.757278,145.56 301.07727,145.56 C296.550581,145.56 293.073949,144.416678 290.64727,142.13 C288.220591,139.843322 287.00727,136.483356 287.00727,132.05 L287.00727,99.01 L297.92727,99.01 L297.92727,108.18 L307.23727,108.18 L307.23727,116.58 L297.92727,116.58 L297.92727,131.91 C297.92727,133.496675 298.323933,134.721662 299.11727,135.585 C299.910607,136.448338 301.053929,136.88 302.54727,136.88 C304.227278,136.88 305.720597,136.413338 307.02727,135.48 L309.89727,143.18 Z" id="optout"></path>
        </g>
    </g>
</svg>
