<svg width="45" height="44" viewBox="0 0 45 44" fill="none" xmlns="http://www.w3.org/2000/svg">
<rect x="0.644531" width="43.4817" height="44" rx="21.7408" fill="#005EA5"/>
<path fill-rule="evenodd" clip-rule="evenodd" d="M10.5266 22.3044C10.5266 27.7398 13.9242 32.3519 18.6365 33.9789C19.2298 34.0922 19.446 33.7123 19.446 33.386C19.446 33.0937 19.4358 32.3202 19.43 31.2937C16.1314 32.0369 15.4355 29.644 15.4355 29.644C14.896 28.2225 14.1185 27.8441 14.1185 27.8441C13.0418 27.0804 14.2001 27.0963 14.2001 27.0963C15.3903 27.1832 16.0164 28.3645 16.0164 28.3645C17.0749 30.2445 18.7922 29.7014 19.4678 29.3865C19.5756 28.5911 19.882 28.0495 20.2206 27.7413C17.5874 27.4309 14.8189 26.3757 14.8189 21.6609C14.8189 20.3171 15.2811 19.2189 16.0397 18.3586C15.9181 18.0474 15.5112 16.7965 16.1562 15.1031C16.1562 15.1031 17.1521 14.7715 19.4169 16.3637C20.3633 16.091 21.3773 15.9543 22.3856 15.9498C23.3932 15.9543 24.4073 16.091 25.3551 16.3637C27.6184 14.7715 28.6129 15.1031 28.6129 15.1031C29.2593 16.7965 28.8524 18.0474 28.7308 18.3586C29.4908 19.2189 29.9495 20.3171 29.9495 21.6609C29.9495 26.387 27.1773 27.4271 24.5354 27.7323C24.9613 28.1122 25.3398 28.863 25.3398 30.0104C25.3398 31.6555 25.326 32.9826 25.326 33.386C25.326 33.7153 25.5393 34.0975 26.1413 33.9774C30.8493 32.3474 34.2439 27.7391 34.2439 22.3044C34.2439 15.5087 28.9339 10 22.3842 10C15.8366 10 10.5266 15.5087 10.5266 22.3044Z" fill="white"/>
</svg>
