<svg xmlns="http://www.w3.org/2000/svg" width="25" height="24" viewBox="0 0 25 24">
    <g fill="none" fill-rule="evenodd">
        <path d="M-9.355-10h43.482v44H-9.355z"/>
        <path fill="#FFF" d="M.527 12.304c0 5.436 3.397 10.048 8.11 11.675.593.113.81-.267.81-.593 0-.292-.011-1.066-.017-2.092-3.298.743-3.994-1.65-3.994-1.65-.54-1.422-1.317-1.8-1.317-1.8-1.077-.764.081-.748.081-.748 1.19.087 1.817 1.268 1.817 1.268 1.058 1.88 2.775 1.337 3.451 1.022.108-.795.414-1.336.753-1.645-2.633-.31-5.402-1.365-5.402-6.08 0-1.344.462-2.442 1.22-3.302-.12-.312-.528-1.562.117-3.256 0 0 .996-.332 3.261 1.26.946-.272 1.96-.409 2.969-.413 1.007.004 2.021.141 2.97.414 2.263-1.593 3.257-1.26 3.257-1.26.647 1.693.24 2.943.118 3.255.76.86 1.219 1.958 1.219 3.302 0 4.726-2.773 5.766-5.414 6.071.425.38.804 1.131.804 2.278 0 1.646-.014 2.973-.014 3.376 0 .33.214.712.816.591 4.707-1.63 8.102-6.238 8.102-11.673C24.244 5.51 18.934 0 12.384 0 5.837 0 .527 5.509.527 12.304z"/>
    </g>
</svg>
