<svg width="44" height="44" viewBox="0 0 44 44" fill="none" xmlns="http://www.w3.org/2000/svg">
<rect width="43.4817" height="44" rx="21.7408" fill="#005EA5"/>
<path fill-rule="evenodd" clip-rule="evenodd" d="M12.3572 18.4131H16.2094V31.9987H12.3572V18.4131ZM14.1851 16.7138H14.1572C12.7627 16.7138 11.8586 15.6752 11.8586 14.3601C11.8586 13.0181 12.7895 12 14.2118 12C15.633 12 16.5069 13.0155 16.5348 14.3563C16.5348 15.6714 15.633 16.7138 14.1851 16.7138V16.7138ZM31.623 32H27.2548V24.9684C27.2548 23.1282 26.5715 21.8732 25.069 21.8732C23.9197 21.8732 23.2806 22.7197 22.9831 23.538C22.8715 23.8299 22.889 24.2384 22.889 24.6482V32H18.5614C18.5614 32 18.6172 19.5451 18.5614 18.4131H22.889V20.5453C23.1446 19.613 24.5275 18.2825 26.7342 18.2825C29.4721 18.2825 31.623 20.2379 31.623 24.4446V32V32Z" fill="white"/>
</svg>
