<svg width="45" height="44" viewBox="0 0 45 44" fill="none" xmlns="http://www.w3.org/2000/svg">
<rect x="0.763184" width="43.4817" height="44" rx="21.7408" fill="#005EA5"/>
<path fill-rule="evenodd" clip-rule="evenodd" d="M16.2073 20.5512C14.8242 19.6536 13.9953 19.1137 13.7202 18.9319C13.2188 18.6138 12.7456 18.1762 12.3008 17.6194C11.856 17.0626 11.6335 16.5455 11.6335 16.0682C11.6335 15.4773 11.8014 14.9848 12.137 14.5908C12.4727 14.1969 12.9518 14 13.5746 14H31.4332C31.9587 14 32.4138 14.178 32.798 14.5341C33.1821 14.8901 33.3744 15.3182 33.3744 15.8182C33.3744 16.4167 33.1763 16.9887 32.7798 17.5339C32.3834 18.0794 31.8902 18.5454 31.2998 18.9316C28.2587 20.909 26.3659 22.14 25.622 22.6249C25.5411 22.678 25.3691 22.7933 25.1063 22.9715C24.8435 23.1496 24.6252 23.2937 24.4513 23.4034C24.2773 23.5132 24.0671 23.6362 23.8205 23.7726C23.5739 23.9087 23.3411 24.0113 23.1228 24.0792C22.9044 24.1475 22.7022 24.1814 22.5162 24.1814H22.504H22.4918C22.3058 24.1814 22.1035 24.1475 21.8851 24.0792C21.6668 24.0113 21.4342 23.9089 21.1875 23.7726C20.9407 23.6363 20.7304 23.5132 20.5565 23.4034C20.3827 23.2937 20.1643 23.1496 19.9015 22.9715C19.6386 22.7935 19.4668 22.678 19.3859 22.6249C18.6499 22.1402 17.5904 21.4489 16.2073 20.5512ZM26.1195 24.0682C27.4942 23.1363 29.5084 21.8294 32.1611 20.1477C32.6222 19.8523 33.0265 19.5226 33.3744 19.1591V28.1816C33.3744 28.6818 33.1845 29.1096 32.8042 29.4658C32.424 29.822 31.967 30 31.4333 30H13.5747C13.0409 30 12.5839 29.822 12.2037 29.4658C11.8236 29.1097 11.6335 28.6818 11.6335 28.1816V19.1591C11.9894 19.5303 12.3979 19.86 12.8589 20.1477C15.7868 22.0113 17.7966 23.3182 18.8886 24.0682C19.3496 24.3863 19.7237 24.6346 20.0108 24.8124C20.2979 24.9905 20.6801 25.1723 21.1572 25.3579C21.6343 25.5436 22.0793 25.6363 22.4918 25.6363H22.504H22.5163C22.9288 25.6363 23.3736 25.5436 23.8507 25.3579C24.328 25.1723 24.7101 24.9905 24.9972 24.8124C25.2844 24.6346 25.6585 24.3863 26.1195 24.0682Z" fill="white"/>
</svg>
