<svg width="45" height="44" viewBox="0 0 45 44" fill="none" xmlns="http://www.w3.org/2000/svg">
<rect x="0.881592" width="43.4817" height="44" rx="21.7408" fill="#005EA5"/>
<path fill-rule="evenodd" clip-rule="evenodd" d="M31.0481 16.8457C31.9276 16.2841 32.6024 15.3936 32.9191 14.3328C32.0957 14.8541 31.1858 15.2311 30.215 15.4352C29.4403 14.5512 28.333 14 27.1076 14C24.7567 14 22.8516 16.0345 22.8516 18.5436C22.8516 18.8998 22.8869 19.2469 22.96 19.5784C19.4227 19.3886 16.2861 17.5815 14.1849 14.8307C13.8182 15.5041 13.6087 16.2841 13.6087 17.1161C13.6087 18.6918 14.3603 20.0828 15.5029 20.8992C14.8049 20.8758 14.1483 20.6691 13.5734 20.3311V20.387C13.5734 22.5892 15.04 24.4261 16.9902 24.8421C16.632 24.9487 16.2569 25.002 15.8671 25.002C15.593 25.002 15.325 24.9747 15.0668 24.9214C15.6076 26.7258 17.1802 28.0415 19.0439 28.0766C17.5858 29.296 15.7501 30.0214 13.7561 30.0214C13.4126 30.0214 13.0728 30.0019 12.7402 29.959C14.6246 31.2473 16.8623 32 19.2668 32C27.0991 32 31.3795 25.0761 31.3795 19.0714C31.3795 18.8738 31.377 18.6775 31.3685 18.4837C32.2005 17.8428 32.924 17.042 33.4929 16.1307C32.7291 16.4921 31.9081 16.7365 31.0481 16.8457Z" fill="white"/>
</svg>
