<svg xmlns="http://www.w3.org/2000/svg" width="22" height="18" viewBox="0 0 22 18">
    <g fill="none" fill-rule="evenodd">
        <path d="M-11.118-14h43.482v44h-43.482z"/>
        <path fill="#FFF" d="M19.048 2.846A4.505 4.505 0 0 0 20.92.333a8.202 8.202 0 0 1-2.704 1.102C17.44.551 16.333 0 15.108 0c-2.351 0-4.256 2.035-4.256 4.544 0 .356.035.703.108 1.034-3.537-.19-6.674-1.996-8.775-4.747a4.768 4.768 0 0 0-.576 2.285c0 1.576.751 2.967 1.894 3.783a4.07 4.07 0 0 1-1.93-.568v.056c0 2.202 1.467 4.04 3.417 4.455a3.92 3.92 0 0 1-1.123.16c-.274 0-.542-.027-.8-.08.54 1.804 2.113 3.12 3.977 3.155-1.458 1.219-3.294 1.944-5.288 1.944-.343 0-.683-.02-1.016-.062C2.625 17.247 4.862 18 7.267 18c7.832 0 12.112-6.924 12.112-12.929 0-.197-.002-.394-.01-.587a8.968 8.968 0 0 0 2.124-2.353 8.087 8.087 0 0 1-2.445.715z"/>
    </g>
</svg>
