<svg xmlns="http://www.w3.org/2000/svg" xmlns:xlink="http://www.w3.org/1999/xlink" width="46" height="63" viewBox="0 0 46 63">
    <defs>
        <linearGradient id="a" x1="50%" x2="69.472%" y1="0%" y2="100%">
            <stop offset="0%" stop-color="#0973BE"/>
            <stop offset="100%" stop-color="#005EA5"/>
        </linearGradient>
        <path id="b" d="M12 21.35l-1.45-1.32C5.4 15.36 2 12.28 2 8.5 2 5.42 4.42 3 7.5 3c1.74 0 3.41.81 4.5 2.09C13.09 3.81 14.76 3 16.5 3 19.58 3 22 5.42 22 8.5c0 3.78-3.4 6.86-8.55 11.54L12 21.35z"/>
    </defs>
    <g fill="none" fill-rule="evenodd">
        <path d="M-12-1.014h69.832v68.042H-12z"/>
        <path fill="url(#a)" d="M18.112 8.873C14.75 8.873 12 11.643 12 15.03v43.093c0 3.385 2.75 6.156 6.112 6.156h33.613c3.361 0 6.112-2.77 6.112-6.156V15.029c0-3.386-2.75-6.156-6.112-6.156H18.112zm8.318 23.959c.469 0 .849-.67.849-1.497 0-.827-.38-1.498-.849-1.498s-.849.67-.849 1.498c0 .827.38 1.497.849 1.497zm16.977 0c.468 0 .848-.67.848-1.497 0-.827-.38-1.498-.848-1.498-.47 0-.85.67-.85 1.498 0 .827.38 1.497.85 1.497zm-3.71 5.99l2.86.002c-.005 2.722-3.412 4.484-7.64 4.49-4.234.006-7.638-1.754-7.638-4.491h2.86c0 1.69 2.022 2.736 4.773 2.732 2.75-.004 4.782-1.055 4.785-2.733z" transform="translate(-12 -2)"/>
        <g transform="translate(11 -2.169)">
            <mask id="c" fill="#fff">
                <use xlink:href="#b"/>
            </mask>
            <g fill="#B00020" mask="url(#c)">
                <path d="M0 0h24v24H0z"/>
            </g>
        </g>
    </g>
</svg>
