<?xml version="1.0" encoding="UTF-8"?>
<svg width="339px" height="227px" viewBox="0 0 339 227" version="1.1" xmlns="http://www.w3.org/2000/svg" xmlns:xlink="http://www.w3.org/1999/xlink">
    <defs>
        <rect id="path-1" x="0" y="0" width="339" height="227" rx="10"></rect>
        <filter x="-2.8%" y="-3.7%" width="105.6%" height="108.4%" filterUnits="objectBoundingBox" id="filter-3">
            <feOffset dx="0" dy="1" in="SourceAlpha" result="shadowOffsetOuter1"></feOffset>
            <feGaussianBlur stdDeviation="3" in="shadowOffsetOuter1" result="shadowBlurOuter1"></feGaussianBlur>
            <feColorMatrix values="0 0 0 0 0   0 0 0 0 0   0 0 0 0 0  0 0 0 0.3 0" type="matrix" in="shadowBlurOuter1"></feColorMatrix>
        </filter>
        <linearGradient x1="50%" y1="42.1876768%" x2="69.4717407%" y2="57.8123232%" id="linearGradient-4">
            <stop stop-color="#0973BE" offset="0%"></stop>
            <stop stop-color="#005EA5" offset="100%"></stop>
        </linearGradient>
        <rect id="path-5" x="31" y="101" width="278" height="92"></rect>
        <filter x="-3.4%" y="-9.2%" width="106.8%" height="120.7%" filterUnits="objectBoundingBox" id="filter-6">
            <feOffset dx="0" dy="1" in="SourceAlpha" result="shadowOffsetOuter1"></feOffset>
            <feGaussianBlur stdDeviation="3" in="shadowOffsetOuter1" result="shadowBlurOuter1"></feGaussianBlur>
            <feColorMatrix values="0 0 0 0 0   0 0 0 0 0   0 0 0 0 0  0 0 0 0.2 0" type="matrix" in="shadowBlurOuter1"></feColorMatrix>
        </filter>
        <polygon id="path-7" points="36 151 303 151 303 166 36 166"></polygon>
        <filter x="-3.0%" y="-46.7%" width="106.0%" height="206.7%" filterUnits="objectBoundingBox" id="filter-8">
            <feOffset dx="0" dy="1" in="SourceAlpha" result="shadowOffsetOuter1"></feOffset>
            <feGaussianBlur stdDeviation="2.5" in="shadowOffsetOuter1" result="shadowBlurOuter1"></feGaussianBlur>
            <feColorMatrix values="0 0 0 0 0   0 0 0 0 0   0 0 0 0 0  0 0 0 0.3 0" type="matrix" in="shadowBlurOuter1"></feColorMatrix>
        </filter>
        <filter x="-30.0%" y="-30.0%" width="160.0%" height="160.0%" filterUnits="objectBoundingBox" id="filter-9">
            <feOffset dx="0" dy="1" in="SourceAlpha" result="shadowOffsetOuter1"></feOffset>
            <feGaussianBlur stdDeviation="1.5" in="shadowOffsetOuter1" result="shadowBlurOuter1"></feGaussianBlur>
            <feColorMatrix values="0 0 0 0 0   0 0 0 0 0   0 0 0 0 0  0 0 0 0.2 0" type="matrix" in="shadowBlurOuter1" result="shadowMatrixOuter1"></feColorMatrix>
            <feMerge>
                <feMergeNode in="shadowMatrixOuter1"></feMergeNode>
                <feMergeNode in="SourceGraphic"></feMergeNode>
            </feMerge>
        </filter>
    </defs>
    <g id="img-howto" stroke="none" stroke-width="1" fill="none" fill-rule="evenodd">
        <g>
            <mask id="mask-2" fill="white">
                <use xlink:href="#path-1"></use>
            </mask>
            <g id="Rectangle-7">
                <use fill="black" fill-opacity="1" filter="url(#filter-3)" xlink:href="#path-1"></use>
                <use fill="#FFFFFF" fill-rule="evenodd" xlink:href="#path-1"></use>
            </g>
            <path d="M10,0 L329,0 C334.522847,-1.01453063e-15 339,4.4771525 339,10 L339,134 L339,134 L0,134 L0,10 C-6.76353751e-16,4.4771525 4.4771525,1.01453063e-15 10,0 Z" id="Rectangle-7-Copy" fill="url(#linearGradient-4)" mask="url(#mask-2)"></path>
            <g id="Rectangle-2-Copy-4" mask="url(#mask-2)">
                <use fill="black" fill-opacity="1" filter="url(#filter-6)" xlink:href="#path-5"></use>
                <use fill="#FFFFFF" fill-rule="evenodd" xlink:href="#path-5"></use>
            </g>
            <polygon id="Rectangle-2" fill="#F1F1F1" mask="url(#mask-2)" points="36 130 303 130 303 145 36 145"></polygon>
            <g id="Rectangle-2-Copy" mask="url(#mask-2)">
                <use fill="black" fill-opacity="1" filter="url(#filter-8)" xlink:href="#path-7"></use>
                <use fill="#E8E8E8" fill-rule="evenodd" xlink:href="#path-7"></use>
            </g>
            <polygon id="Rectangle-2-Copy" fill="#F1F1F1" mask="url(#mask-2)" points="36 172 303 172 303 187 36 187"></polygon>
            <text id="Search-Company" mask="url(#mask-2)" font-family="SuisseSign-Regular, Suisse Sign" font-size="10" font-weight="normal" fill="#9B9B9B">
                <tspan x="46" y="120">Search Company</tspan>
            </text>
            <g id="CURSOR-TYPE" filter="url(#filter-9)" mask="url(#mask-2)">
                <g transform="translate(238.000000, 159.000000)">
                    <polygon id="Fill-2" stroke="none" fill="#EA9E13" fill-rule="evenodd" points="5.80565693 25.1605839 12.580292 18.3859489 24.1943431 30 30 24.1943431 18.3832117 12.580292 25.1605839 5.80565693 0 0"></polygon>
                    <polygon id="Stroke-3" stroke="#FFFFFF" stroke-width="1" fill="none" points="0 0 5.80565693 25.1605839 12.580292 18.3859489 24.1943431 30 30 24.1943431 18.3859489 12.580292 25.1605839 5.80565693"></polygon>
                </g>
            </g>
            <rect id="Rectangle-8" fill="#D8D8D8" mask="url(#mask-2)" x="30" y="62" width="151" height="3"></rect>
            <rect id="Rectangle-8-Copy" fill="#D8D8D8" mask="url(#mask-2)" x="30" y="68" width="151" height="3"></rect>
            <rect id="Rectangle-8-Copy-2" fill="#D8D8D8" mask="url(#mask-2)" x="30" y="74" width="151" height="3"></rect>
            <rect id="Rectangle-8-Copy-3" fill="#D8D8D8" mask="url(#mask-2)" x="30" y="80" width="151" height="3"></rect>
        </g>
        <path d="M35.697,51.265 L43.149,31.474 L40.611,31.474 L36.669,42.598 L32.727,31.474 L30,31.474 L35.292,45.568 L33.132,51.265 L35.697,51.265 Z M48.032,38.791 C48.032,34.822 49.976,33.391 52.298,33.391 C54.62,33.391 56.564,34.93 56.564,38.791 C56.564,42.517 54.62,44.191 52.298,44.191 C49.976,44.191 48.032,42.652 48.032,38.791 Z M45.413,38.791 C45.413,44.056 48.815,46.351 52.298,46.351 C55.781,46.351 59.183,44.056 59.183,38.791 C59.183,33.526 55.781,31.231 52.298,31.231 C48.815,31.231 45.413,33.526 45.413,38.791 Z M72.517,46 L74.974,46 L74.974,31.474 L72.517,31.474 L72.517,39.466 C72.517,42.571 71.14,44.218 68.818,44.218 C66.2213714,44.218 65.7904735,42.3834988 65.7679704,40.22432 L65.767,31.474 L63.31,31.474 L63.31,40.762 C63.31,44.083 64.579,46.351 67.954,46.351 C70.357,46.351 71.68,45.298 72.517,43.921 L72.517,46 Z M87.498,31.42 C87.228,31.393 87.012,31.393 86.769,31.393 C84.879,31.447 83.394,32.365 82.665,34.012 L82.665,31.474 L80.262,31.474 L80.262,46 L82.719,46 L82.719,38.386 C82.719,35.2 83.853,33.931 86.121,33.931 C86.526,33.931 86.985,33.985 87.498,34.039 L87.498,31.42 Z M100.589,33.769 C99.698,32.23 98.159,31.231 95.837,31.231 C92.408,31.231 89.708,34.012 89.708,38.791 C89.708,43.597 92.408,46.351 95.837,46.351 C98.159,46.351 99.698,45.352 100.589,43.813 L100.589,46 L103.046,46 L103.046,25.615 L100.589,25.615 L100.589,33.769 Z M100.697,38.791 C100.697,42.625 98.645,44.245 96.458,44.245 C93.839,44.245 92.381,42.247 92.381,38.791 C92.381,35.335 93.839,33.337 96.458,33.337 C98.645,33.337 100.697,34.957 100.697,38.791 Z M108.334,31.474 L108.334,46 L110.791,46 L110.791,31.474 L108.334,31.474 Z M108.334,25.615 L108.334,28.585 L110.791,28.585 L110.791,25.615 L108.334,25.615 Z M125.826,38.494 C125.826,42.193 123.909,43.678 121.722,43.678 C119.103,43.678 117.78,41.815 117.78,38.494 C117.78,35.2 119.103,33.337 121.722,33.337 C123.909,33.337 125.826,34.822 125.826,38.494 Z M128.175,44.758 L128.175,31.474 L125.718,31.474 L125.718,33.769 C124.827,32.23 123.423,31.231 121.101,31.231 C117.672,31.231 115.107,33.85 115.107,38.494 C115.107,43.165 117.672,45.757 121.101,45.757 C123.423,45.757 124.827,44.785 125.718,43.246 L125.718,45.217 C125.718,48.727 123.315,49.483 121.263,49.483 C119.589,49.483 117.996,48.997 116.889,48.295 L116.889,50.806 C118.158,51.346 119.67,51.616 121.29,51.616 C125.178,51.616 128.175,49.834 128.175,44.758 Z M133.463,31.474 L133.463,46 L135.92,46 L135.92,31.474 L133.463,31.474 Z M133.463,25.615 L133.463,28.585 L135.92,28.585 L135.92,25.615 L133.463,25.615 Z M141.91,31.474 L139.615,31.474 L139.615,33.445 L141.91,33.445 L141.91,42.193 C141.91,44.839 142.693,46.189 145.393,46.189 C146.014,46.189 146.797,46.081 147.472,45.946 L147.472,43.975 C146.824,44.083 146.338,44.11 145.933,44.11 C144.7666,44.11 144.396462,43.612336 144.368718,42.0914748 L144.367,33.445 L147.391,33.445 L147.391,31.474 L144.367,31.474 L144.367,27.829 L141.91,27.829 L141.91,31.474 Z M156.864,31.231 C155.136,31.231 153.327,31.744 151.95,32.5 L151.95,34.849 C153.057,34.174 154.785,33.445 156.513,33.445 C158.349,33.445 159.996,34.12 160.05,36.604 C154.488,37.252 150.573,38.629 150.573,41.95 C150.573,44.623 152.787,46.351 155.433,46.351 C157.674,46.351 159.321,45.244 160.185,43.705 L160.185,46 L162.561,46 L162.487843,43.8526766 C162.455765,42.7251376 162.46164,42.1714 162.48,40.519 L162.507,37.036 C162.534,32.878 160.671,31.231 156.864,31.231 Z M156.027,44.38 C154.218,44.38 153.273,43.192 153.273,41.815 C153.273,39.79 156.081,38.872 160.212,38.521 C160.266,43.327 157.836,44.38 156.027,44.38 Z M170.036,25.615 L167.579,25.615 L167.579,46 L170.036,46 L170.036,25.615 Z M183.91,31.393 C183.694,31.366 183.451,31.366 183.235,31.366 C181.156,31.447 179.941,32.527 179.266,34.228 L179.266,31.474 L174.973,31.474 L174.973,46 L179.428,46 L179.428,38.71 C179.428,36.442 180.562,35.659 182.695,35.659 C183.1,35.659 183.424,35.686 183.91,35.74 L183.91,31.393 Z M187.2,31.474 L187.2,46 L191.682,46 L191.682,31.474 L187.2,31.474 Z M187.2,25.615 L187.2,29.179 L191.655,29.179 L191.655,25.615 L187.2,25.615 Z M206.204,44.596 C206.204,46.999 204.206,48.025 201.695,48.025 C200.075,48.025 198.239,47.431 196.835,46.513 L196.835,50.644 C198.293,51.319 200.696,51.616 202.505,51.616 C206.852,51.616 210.632,49.564 210.632,44.083 L210.632,31.474 L206.204,31.474 L206.204,33.445 C205.259,31.852 203.315,31.15 201.722,31.15 C197.996,31.15 195.323,33.688 195.323,38.305 C195.323,42.922 197.996,45.487 201.722,45.487 C203.315,45.487 205.259,44.785 206.204,43.192 L206.204,44.596 Z M203.18,34.606 C204.935,34.606 206.393,35.443 206.393,38.305 C206.393,41.14 204.935,42.031 203.18,42.031 C201.398,42.031 199.94,40.87 199.94,38.305 C199.94,35.74 201.398,34.606 203.18,34.606 Z M219.673,33.391 L219.673,25.615 L215.218,25.615 L215.218,46 L219.673,46 L219.673,38.548 C219.673,35.875 220.51,34.606 222.4,34.606 C224.56,34.606 224.614,36.307 224.614,38.386 L224.614,46 L229.069,46 L229.069,37.279 C229.069,33.337 227.908,31.15 224.182,31.15 C221.914,31.15 220.321,32.311 219.673,33.391 Z M239.082,40.492 L239.082,34.633 L242.808,34.633 L242.808,31.474 L239.082,31.474 L239.082,27.505 L234.627,27.505 L234.627,31.474 L231.792,31.474 L231.792,34.633 L234.627,34.633 L234.627,41.491 C234.627,45.379 236.814,46.351 239.865,46.351 C241.026,46.351 242.025,46.108 242.835,45.865 L242.835,42.436 C242.322,42.652 241.593,42.841 240.837,42.841 L240.638788,42.83736 C239.760724,42.8020892 239.082,42.4778966 239.082,40.492 Z M251.174,46.351 C255.17,46.351 257.492,44.245 257.492,41.545 C257.492,39.2912941 256.372855,38.1312984 253.147083,37.1515929 L252.2,36.874 L251.789825,36.7461808 C250.582633,36.3508367 250.229,36.0344286 250.229,35.497 C250.229,34.876 251.12,34.606 252.416,34.606 C253.577,34.606 254.9,34.849 256.223,35.281 L256.223,31.582 C254.792,31.204 253.739,31.042 252.281,31.042 C248.69,31.042 246.071,32.608 246.071,35.443 C246.071,37.765 247.475,39.196 250.418,40.06 L251.066,40.249 C252.497,40.681 253.064,41.059 253.064,41.626 C253.064,42.382 252.281,42.787 250.715,42.787 C249.338,42.787 247.88,42.463 246.206,41.842 L246.206,45.568 C247.34,45.946 249.284,46.351 251.174,46.351 Z M264.643,46 L264.643,42.895 L261.538,42.895 L261.538,46 L264.643,46 Z M270.876,38.791 C270.876,34.822 272.82,33.391 275.142,33.391 C277.464,33.391 279.408,34.93 279.408,38.791 C279.408,42.517 277.464,44.191 275.142,44.191 C272.82,44.191 270.876,42.652 270.876,38.791 Z M268.257,38.791 C268.257,44.056 271.659,46.351 275.142,46.351 C278.625,46.351 282.027,44.056 282.027,38.791 C282.027,33.526 278.625,31.231 275.142,31.231 C271.659,31.231 268.257,33.526 268.257,38.791 Z M293.606,31.42 C293.336,31.393 293.12,31.393 292.877,31.393 C290.987,31.447 289.502,32.365 288.773,34.012 L288.773,31.474 L286.37,31.474 L286.37,46 L288.827,46 L288.827,38.386 C288.827,35.2 289.961,33.931 292.229,33.931 C292.634,33.931 293.093,33.985 293.606,34.039 L293.606,31.42 Z M301.837,31.231 C304.159,31.231 305.563,32.23 306.454,33.769 L306.454,31.474 L308.911,31.474 L308.911,44.758 C308.911,49.834 305.914,51.616 302.026,51.616 C300.406,51.616 298.894,51.346 297.625,50.806 L297.625,48.295 C298.732,48.997 300.325,49.483 301.999,49.483 L302.301479,49.4773713 C304.279721,49.4026907 306.454,48.5557805 306.454,45.217 L306.454,43.246 C305.563,44.785 304.159,45.757 301.837,45.757 C298.408,45.757 295.843,43.165 295.843,38.494 C295.843,33.85 298.408,31.231 301.837,31.231 Z M302.458,33.337 C299.839,33.337 298.516,35.2 298.516,38.494 C298.516,41.815 299.839,43.678 302.458,43.678 C304.645,43.678 306.562,42.193 306.562,38.494 C306.562,34.822 304.645,33.337 302.458,33.337 Z" id="yourdigitalrights.org" fill="#FFFFFF" fill-rule="nonzero"></path>
    </g>
</svg>