<?xml version="1.0" encoding="UTF-8"?>
<svg width="350px" height="239px" viewBox="0 0 350 239" version="1.1" xmlns="http://www.w3.org/2000/svg" xmlns:xlink="http://www.w3.org/1999/xlink">
    <!-- Generator: Sketch 61.2 (89653) - https://sketch.com -->
    <title>img-howto</title>
    <desc>Created with Sketch.</desc>
    <defs>
        <rect id="path-1" x="0" y="0" width="338.002941" height="227" rx="10"></rect>
        <filter x="-2.8%" y="-3.7%" width="105.6%" height="108.4%" filterUnits="objectBoundingBox" id="filter-3">
            <feOffset dx="0" dy="1" in="SourceAlpha" result="shadowOffsetOuter1"></feOffset>
            <feGaussianBlur stdDeviation="3" in="shadowOffsetOuter1" result="shadowBlurOuter1"></feGaussianBlur>
            <feColorMatrix values="0 0 0 0 0   0 0 0 0 0   0 0 0 0 0  0 0 0 0.3 0" type="matrix" in="shadowBlurOuter1"></feColorMatrix>
        </filter>
        <linearGradient x1="50%" y1="42.1415184%" x2="69.4717407%" y2="57.8584816%" id="linearGradient-4">
            <stop stop-color="#0973BE" offset="0%"></stop>
            <stop stop-color="#005EA5" offset="100%"></stop>
        </linearGradient>
        <rect id="path-5" x="30.9088235" y="101" width="277.182353" height="92"></rect>
        <filter x="-3.4%" y="-9.2%" width="106.9%" height="120.7%" filterUnits="objectBoundingBox" id="filter-6">
            <feOffset dx="0" dy="1" in="SourceAlpha" result="shadowOffsetOuter1"></feOffset>
            <feGaussianBlur stdDeviation="3" in="shadowOffsetOuter1" result="shadowBlurOuter1"></feGaussianBlur>
            <feColorMatrix values="0 0 0 0 0   0 0 0 0 0   0 0 0 0 0  0 0 0 0.2 0" type="matrix" in="shadowBlurOuter1"></feColorMatrix>
        </filter>
        <polygon id="path-7" points="35.8941176 151 302.108824 151 302.108824 166 35.8941176 166"></polygon>
        <filter x="-3.0%" y="-46.7%" width="106.0%" height="206.7%" filterUnits="objectBoundingBox" id="filter-8">
            <feOffset dx="0" dy="1" in="SourceAlpha" result="shadowOffsetOuter1"></feOffset>
            <feGaussianBlur stdDeviation="2.5" in="shadowOffsetOuter1" result="shadowBlurOuter1"></feGaussianBlur>
            <feColorMatrix values="0 0 0 0 0   0 0 0 0 0   0 0 0 0 0  0 0 0 0.3 0" type="matrix" in="shadowBlurOuter1"></feColorMatrix>
        </filter>
        <filter x="-30.0%" y="-30.0%" width="160.0%" height="160.0%" filterUnits="objectBoundingBox" id="filter-9">
            <feOffset dx="0" dy="1" in="SourceAlpha" result="shadowOffsetOuter1"></feOffset>
            <feGaussianBlur stdDeviation="1.5" in="shadowOffsetOuter1" result="shadowBlurOuter1"></feGaussianBlur>
            <feColorMatrix values="0 0 0 0 0   0 0 0 0 0   0 0 0 0 0  0 0 0 0.2 0" type="matrix" in="shadowBlurOuter1" result="shadowMatrixOuter1"></feColorMatrix>
            <feMerge>
                <feMergeNode in="shadowMatrixOuter1"></feMergeNode>
                <feMergeNode in="SourceGraphic"></feMergeNode>
            </feMerge>
        </filter>
    </defs>
    <g id="yourdigitalrights.org" stroke="none" stroke-width="1" fill="none" fill-rule="evenodd">
        <g id="HOME---V1" transform="translate(-48.000000, -667.000000)">
            <g id="how-to" transform="translate(0.000000, 564.000000)">
                <g id="YDR-/-assets-/-img-howto" transform="translate(54.000000, 108.000000)">
                    <g id="img-howto" stroke-width="1" fill-rule="evenodd">
                        <mask id="mask-2" fill="white">
                            <use xlink:href="#path-1"></use>
                        </mask>
                        <g id="Rectangle-7">
                            <use fill="black" fill-opacity="1" filter="url(#filter-3)" xlink:href="#path-1"></use>
                            <use fill="#FFFFFF" fill-rule="evenodd" xlink:href="#path-1"></use>
                        </g>
                        <path d="M10,0 L328.002941,0 C333.525789,2.84171132e-14 338.002941,4.4771525 338.002941,10 L338.002941,134 L338.002941,134 L0,134 L0,10 C-6.76353751e-16,4.4771525 4.4771525,1.01453063e-15 10,0 Z" id="Rectangle-7-Copy" fill="url(#linearGradient-4)" mask="url(#mask-2)"></path>
                        <g id="Rectangle-2-Copy-4" mask="url(#mask-2)">
                            <use fill="black" fill-opacity="1" filter="url(#filter-6)" xlink:href="#path-5"></use>
                            <use fill="#FFFFFF" fill-rule="evenodd" xlink:href="#path-5"></use>
                        </g>
                        <polygon id="Rectangle-2" fill="#F1F1F1" mask="url(#mask-2)" points="35.8941176 130 302.108824 130 302.108824 145 35.8941176 145"></polygon>
                        <g id="Rectangle-2-Copy" mask="url(#mask-2)">
                            <use fill="black" fill-opacity="1" filter="url(#filter-8)" xlink:href="#path-7"></use>
                            <use fill="#E8E8E8" fill-rule="evenodd" xlink:href="#path-7"></use>
                        </g>
                        <polygon id="Rectangle-2-Copy" fill="#F1F1F1" mask="url(#mask-2)" points="35.8941176 172 302.108824 172 302.108824 187 35.8941176 187"></polygon>
                        <path d="M48.2026369,119.79604 C49.4705149,119.79604 50.6754486,119.11504 50.6754486,117.82568 C50.6754486,116.954 50.0819738,116.4092 48.850064,115.96428 L48.2475971,115.74636 C47.6451303,115.52844 47.3483929,115.1834 47.3483929,114.71124 C47.3483929,113.98484 48.0317881,113.74876 48.643247,113.74876 C49.3086581,113.74876 49.7942284,113.87588 50.2528226,114.11196 L50.2528226,113.26752 C49.8481807,113.07684 49.3446263,112.97696 48.6612311,112.97696 C47.5372258,112.97696 46.4042284,113.64888 46.4042284,114.80204 C46.4042284,115.7282 47.1235918,116.30024 48.0497722,116.6362 L48.652239,116.85412 C49.3985786,117.12652 49.7402762,117.4534 49.7402762,117.9982 C49.7402762,118.70644 49.065873,119.01516 48.211629,119.01516 C47.3304088,119.01516 46.8987908,118.78816 46.4132205,118.543 L46.4132205,119.4056 C46.7549181,119.61444 47.4113372,119.79604 48.2026369,119.79604 Z M53.8586316,119.79604 C54.5420268,119.79604 55.0995335,119.57812 55.3962709,119.41468 L55.3962709,118.59748 C55.0455812,118.82448 54.586987,119.05148 53.930568,119.05148 C53.1752364,119.05148 52.3839367,118.59748 52.2760321,117.47156 L55.7109924,117.47156 C55.7919207,115.9098 55.0455812,114.71124 53.6338306,114.71124 C52.4109128,114.71124 51.403804,115.70096 51.403804,117.24456 C51.403804,118.68828 52.3299844,119.79604 53.8586316,119.79604 Z M54.8297722,116.80872 L52.2850242,116.80872 C52.3659526,115.75544 52.9864035,115.4104 53.5708863,115.4104 C54.2452894,115.4104 54.8027961,115.82808 54.8297722,116.80872 Z M57.9050507,119.79604 C58.6513902,119.79604 59.1999048,119.42376 59.4876502,118.9062 L59.4876502,119.678 L60.2789499,119.678 C60.2429817,118.67012 60.2429817,118.65196 60.2519738,117.83476 L60.2609658,116.66344 C60.2699579,115.26512 59.6495069,114.71124 58.381629,114.71124 C57.8061382,114.71124 57.2036714,114.88376 56.7450772,115.138 L56.7450772,115.92796 C57.113751,115.70096 57.6892417,115.4558 58.2647324,115.4558 C58.8761913,115.4558 59.4247059,115.6828 59.44269,116.51816 C57.5903292,116.73608 56.2864831,117.19916 56.2864831,118.316 C56.2864831,119.21492 57.0238306,119.79604 57.9050507,119.79604 Z M58.1028756,119.1332 C57.5004088,119.1332 57.1856873,118.73368 57.1856873,118.2706 C57.1856873,117.5896 58.1208597,117.28088 59.4966422,117.16284 C59.5146263,118.77908 58.7053425,119.1332 58.1028756,119.1332 Z M62.3021595,119.678 L62.3021595,117.11744 C62.3021595,116.046 62.6798252,115.61924 63.4351568,115.61924 C63.5700374,115.61924 63.7229022,115.6374 63.893751,115.65556 L63.893751,114.7748 C63.8038306,114.76572 63.7318942,114.76572 63.6509658,114.76572 C63.0215229,114.78388 62.5269605,115.0926 62.2841754,115.64648 L62.2841754,114.79296 L61.4838836,114.79296 L61.4838836,119.678 L62.3021595,119.678 Z M66.5913637,119.79604 C66.9780215,119.79604 67.3736714,119.71432 67.6434327,119.59628 L67.6434327,118.82448 C67.3736714,118.9516 67.0409658,119.05148 66.654308,119.05148 C65.8180481,119.05148 65.0447324,118.52484 65.0447324,117.25364 C65.0447324,115.98244 65.809056,115.4558 66.654308,115.4558 C67.0229817,115.4558 67.3287112,115.51936 67.6254486,115.62832 L67.6254486,114.84744 C67.3466953,114.75664 66.9510454,114.71124 66.5913637,114.71124 C65.1436449,114.71124 64.1635122,115.80992 64.1635122,117.25364 C64.1635122,118.69736 65.0177563,119.79604 66.5913637,119.79604 Z M69.4688173,119.678 L69.4688173,117.02664 C69.4688173,115.98244 69.9543876,115.42856 70.7456873,115.42856 C71.6808597,115.42856 71.8067483,116.08232 71.8067483,116.83596 L71.8067483,119.678 L72.6250242,119.678 L72.6250242,116.5908 C72.6250242,115.47396 72.2023982,114.71124 71.0334327,114.71124 C70.2151568,114.71124 69.7475706,115.06536 69.4688173,115.52844 L69.4688173,112.8226 L68.6505414,112.8226 L68.6505414,119.678 L69.4688173,119.678 Z M79.153247,119.79604 C79.7557138,119.79604 80.3401966,119.65984 80.7538306,119.48732 L80.7538306,118.64288 C80.3581807,118.84264 79.8186581,119.01516 79.2431674,119.01516 C77.7055282,119.01516 76.7253955,118.089 76.7253955,116.38196 C76.7253955,114.684 77.6875441,113.75784 79.2431674,113.75784 C79.8186581,113.75784 80.3761648,113.93036 80.7538306,114.13012 L80.7538306,113.28568 C80.3581807,113.08592 79.7557138,112.97696 79.153247,112.97696 C77.0221329,112.97696 75.7902231,114.44792 75.7902231,116.38196 C75.7902231,118.32508 76.9322125,119.79604 79.153247,119.79604 Z M83.6852364,119.79604 C84.8452099,119.79604 85.9782072,119.02424 85.9782072,117.25364 C85.9782072,115.48304 84.8452099,114.71124 83.6852364,114.71124 C82.5252629,114.71124 81.3922656,115.48304 81.3922656,117.25364 C81.3922656,119.02424 82.5252629,119.79604 83.6852364,119.79604 Z M83.6852364,119.06964 C82.9119207,119.06964 82.2644937,118.55208 82.2644937,117.25364 C82.2644937,115.91888 82.9119207,115.43764 83.6852364,115.43764 C84.458552,115.43764 85.1059791,115.9552 85.1059791,117.25364 C85.1059791,118.50668 84.458552,119.06964 83.6852364,119.06964 Z M87.7766157,119.678 L87.7766157,117.02664 C87.7766157,115.98244 88.2442019,115.42856 88.9455812,115.42856 C89.8357934,115.42856 89.9796661,116.08232 89.9796661,116.83596 L89.9796661,119.678 L90.797942,119.678 L90.797942,117.02664 C90.797942,115.98244 91.2655282,115.42856 91.9669075,115.42856 C92.8571197,115.42856 93.0009924,116.08232 93.0009924,116.83596 L93.0009924,119.678 L93.8192682,119.678 L93.8192682,116.5908 C93.8192682,115.47396 93.3786581,114.71124 92.2546528,114.71124 C91.5802496,114.71124 91.013751,114.97456 90.6270932,115.57384 C90.4112841,115.03812 89.9706741,114.71124 89.2333266,114.71124 C88.5049711,114.71124 88.055369,115.06536 87.7766157,115.52844 L87.7766157,114.79296 L86.9583398,114.79296 L86.9583398,119.678 L87.7766157,119.678 Z M95.8604619,121.4486 L95.8604619,118.94252 C96.1571993,119.46008 96.6697457,119.79604 97.4430613,119.79604 C98.5850507,119.79604 99.484255,118.86988 99.484255,117.25364 C99.484255,115.64648 98.5850507,114.71124 97.4430613,114.71124 C96.6697457,114.71124 96.1571993,115.0472 95.8604619,115.56476 L95.8604619,114.79296 L95.042186,114.79296 L95.042186,121.4486 L95.8604619,121.4486 Z M97.2362443,119.0878 C96.5078889,119.0878 95.8244937,118.543 95.8244937,117.25364 C95.8244937,115.96428 96.5078889,115.41948 97.2362443,115.41948 C98.1084725,115.41948 98.5940428,116.0914 98.5940428,117.25364 C98.5940428,118.41588 98.1084725,119.0878 97.2362443,119.0878 Z M101.660329,119.79604 C102.406669,119.79604 102.955183,119.42376 103.242929,118.9062 L103.242929,119.678 L104.034228,119.678 C103.99826,118.67012 103.99826,118.65196 104.007252,117.83476 L104.016244,116.66344 C104.025236,115.26512 103.404785,114.71124 102.136907,114.71124 C101.561417,114.71124 100.95895,114.88376 100.500356,115.138 L100.500356,115.92796 C100.869029,115.70096 101.44452,115.4558 102.020011,115.4558 C102.63147,115.4558 103.179984,115.6828 103.197968,116.51816 C101.345608,116.73608 100.041762,117.19916 100.041762,118.316 C100.041762,119.21492 100.779109,119.79604 101.660329,119.79604 Z M101.858154,119.1332 C101.255687,119.1332 100.940966,118.73368 100.940966,118.2706 C100.940966,117.5896 101.876138,117.28088 103.251921,117.16284 C103.269905,118.77908 102.460621,119.1332 101.858154,119.1332 Z M106.057438,119.678 L106.057438,117.02664 C106.057438,115.98244 106.543008,115.42856 107.334308,115.42856 C108.26948,115.42856 108.395369,116.08232 108.395369,116.83596 L108.395369,119.678 L109.213645,119.678 L109.213645,116.5908 C109.213645,115.47396 108.791019,114.71124 107.622053,114.71124 C106.803778,114.71124 106.336191,115.06536 106.057438,115.52844 L106.057438,114.79296 L105.239162,114.79296 L105.239162,119.678 L106.057438,119.678 Z M111.65948,121.4486 L114.141284,114.79296 L113.296032,114.79296 L111.983194,118.53392 L110.670356,114.79296 L109.762159,114.79296 L111.5246,119.53272 L110.805236,121.4486 L111.65948,121.4486 Z" id="SearchCompany" fill="#9B9B9B" fill-rule="nonzero" mask="url(#mask-2)"></path>
                        <g id="CURSOR-TYPE" filter="url(#filter-9)" mask="url(#mask-2)">
                            <g transform="translate(237.255882, 159.000000)">
                                <polygon id="Fill-2" stroke="none" fill="#EA9E13" fill-rule="evenodd" points="5.80565693 25.1605839 12.580292 18.3859489 24.1943431 30 30 24.1943431 18.3832117 12.580292 25.1605839 5.80565693 0 0"></polygon>
                                <polygon id="Stroke-3" stroke="#FFFFFF" stroke-width="1" fill="none" points="0 0 5.80565693 25.1605839 12.580292 18.3859489 24.1943431 30 30 24.1943431 18.3859489 12.580292 25.1605839 5.80565693"></polygon>
                            </g>
                        </g>
                        <rect id="Rectangle-8" fill="#D8D8D8" mask="url(#mask-2)" x="29.9117647" y="62" width="150.555882" height="3"></rect>
                        <rect id="Rectangle-8-Copy" fill="#D8D8D8" mask="url(#mask-2)" x="29.9117647" y="68" width="150.555882" height="3"></rect>
                        <rect id="Rectangle-8-Copy-2" fill="#D8D8D8" mask="url(#mask-2)" x="29.9117647" y="74" width="150.555882" height="3"></rect>
                        <rect id="Rectangle-8-Copy-3" fill="#D8D8D8" mask="url(#mask-2)" x="29.9117647" y="80" width="150.555882" height="3"></rect>
                    </g>
                    <path d="M35.5920088,51.265 L43.0220912,31.474 L40.4915559,31.474 L36.56115,42.598 L32.6307441,31.474 L29.9117647,31.474 L35.1882,45.568 L33.0345529,51.265 L35.5920088,51.265 Z M47.8907294,38.791 C47.8907294,34.822 49.8290118,33.391 52.1441824,33.391 C54.4593529,33.391 56.3976353,34.93 56.3976353,38.791 C56.3976353,42.517 54.4593529,44.191 52.1441824,44.191 C49.8290118,44.191 47.8907294,42.652 47.8907294,38.791 Z M45.2794324,38.791 C45.2794324,44.056 48.6714265,46.351 52.1441824,46.351 C55.6169382,46.351 59.0089324,44.056 59.0089324,38.791 C59.0089324,33.526 55.6169382,31.231 52.1441824,31.231 C48.6714265,31.231 45.2794324,33.526 45.2794324,38.791 Z M72.3037147,46 L74.7534882,46 L74.7534882,31.474 L72.3037147,31.474 L72.3037147,39.466 C72.3037147,42.571 70.9307647,44.218 68.6155941,44.218 C66.0266027,44.218 65.5969721,42.3834988 65.5745352,40.22432 L65.5735676,31.474 L63.1237941,31.474 L63.1237941,40.762 C63.1237941,44.083 64.3890618,46.351 67.7541353,46.351 C70.1500676,46.351 71.4691765,45.298 72.3037147,43.921 L72.3037147,46 Z M87.2406529,31.42 C86.9714471,31.393 86.7560824,31.393 86.5137971,31.393 C84.6293559,31.447 83.1487235,32.365 82.4218676,34.012 L82.4218676,31.474 L80.0259353,31.474 L80.0259353,46 L82.4757088,46 L82.4757088,38.386 C82.4757088,35.2 83.6063735,33.931 85.8677029,33.931 C86.2715118,33.931 86.7291618,33.985 87.2406529,34.039 L87.2406529,31.42 Z M100.29315,33.769 C99.4047706,32.23 97.8702971,31.231 95.5551265,31.231 C92.1362118,31.231 89.4441529,34.012 89.4441529,38.791 C89.4441529,43.597 92.1362118,46.351 95.5551265,46.351 C97.8702971,46.351 99.4047706,45.352 100.29315,43.813 L100.29315,46 L102.742924,46 L102.742924,25.615 L100.29315,25.615 L100.29315,33.769 Z M100.400832,38.791 C100.400832,42.625 98.3548676,44.245 96.1743,44.245 C93.5630029,44.245 92.1092912,42.247 92.1092912,38.791 C92.1092912,35.335 93.5630029,33.337 96.1743,33.337 C98.3548676,33.337 100.400832,34.957 100.400832,38.791 Z M108.015371,31.474 L108.015371,46 L110.465144,46 L110.465144,31.474 L108.015371,31.474 Z M108.015371,25.615 L108.015371,28.585 L110.465144,28.585 L110.465144,25.615 L108.015371,25.615 Z M125.455924,38.494 C125.455924,42.193 123.544562,43.678 121.363994,43.678 C118.752697,43.678 117.433588,41.815 117.433588,38.494 C117.433588,35.2 118.752697,33.337 121.363994,33.337 C123.544562,33.337 125.455924,34.822 125.455924,38.494 Z M127.798015,44.758 L127.798015,31.474 L125.348241,31.474 L125.348241,33.769 C124.459862,32.23 123.059991,31.231 120.744821,31.231 C117.325906,31.231 114.76845,33.85 114.76845,38.494 C114.76845,43.165 117.325906,45.757 120.744821,45.757 C123.059991,45.757 124.459862,44.785 125.348241,43.246 L125.348241,45.217 C125.348241,48.727 122.952309,49.483 120.906344,49.483 C119.237268,49.483 117.648953,48.997 116.545209,48.295 L116.545209,50.806 C117.810476,51.346 119.318029,51.616 120.933265,51.616 C124.809829,51.616 127.798015,49.834 127.798015,44.758 Z M133.070462,31.474 L133.070462,46 L135.520235,46 L135.520235,31.474 L133.070462,31.474 Z M133.070462,25.615 L133.070462,28.585 L135.520235,28.585 L135.520235,25.615 L133.070462,25.615 Z M141.492618,31.474 L139.204368,31.474 L139.204368,33.445 L141.492618,33.445 L141.492618,42.193 C141.492618,44.839 142.273315,46.189 144.965374,46.189 C145.584547,46.189 146.365244,46.081 147.038259,45.946 L147.038259,43.975 C146.392165,44.083 145.907594,44.11 145.503785,44.11 C144.340816,44.11 143.971767,43.612336 143.944104,42.0914748 L143.942391,33.445 L146.957497,33.445 L146.957497,31.474 L143.942391,31.474 L143.942391,27.829 L141.492618,27.829 L141.492618,31.474 Z M156.402635,31.231 C154.679718,31.231 152.876038,31.744 151.503088,32.5 L151.503088,34.849 C152.606832,34.174 154.32975,33.445 156.052668,33.445 C157.883268,33.445 159.525424,34.12 159.579265,36.604 C154.033624,37.252 150.130138,38.629 150.130138,41.95 C150.130138,44.623 152.337626,46.351 154.975844,46.351 C157.210253,46.351 158.852409,45.244 159.713868,43.705 L159.713868,46 L162.082879,46 L162.009938,43.8526766 C161.977954,42.7251376 161.983812,42.1714 162.002118,40.519 L162.029038,37.036 C162.055959,32.878 160.198438,31.231 156.402635,31.231 Z M155.568097,44.38 C153.764418,44.38 152.822197,43.192 152.822197,41.815 C152.822197,39.79 155.621938,38.872 159.740788,38.521 C159.794629,43.327 157.371776,44.38 155.568097,44.38 Z M169.535894,25.615 L167.086121,25.615 L167.086121,46 L169.535894,46 L169.535894,25.615 Z M183.369088,31.393 C183.153724,31.366 182.911438,31.366 182.696074,31.366 C180.623188,31.447 179.411762,32.527 178.738747,34.228 L178.738747,31.474 L174.458374,31.474 L174.458374,46 L178.900271,46 L178.900271,38.71 C178.900271,36.442 180.030935,35.659 182.157662,35.659 C182.561471,35.659 182.884518,35.686 183.369088,35.74 L183.369088,31.393 Z M186.649412,31.474 L186.649412,46 L191.118229,46 L191.118229,31.474 L186.649412,31.474 Z M186.649412,25.615 L186.649412,29.179 L191.091309,29.179 L191.091309,25.615 L186.649412,25.615 Z M205.597518,44.596 C205.597518,46.999 203.605394,48.025 201.101779,48.025 C199.486544,48.025 197.655944,47.431 196.256074,46.513 L196.256074,50.644 C197.709785,51.319 200.105718,51.616 201.909397,51.616 C206.243612,51.616 210.012494,49.564 210.012494,44.083 L210.012494,31.474 L205.597518,31.474 L205.597518,33.445 C204.655297,31.852 202.717015,31.15 201.1287,31.15 C197.413659,31.15 194.748521,33.688 194.748521,38.305 C194.748521,42.922 197.413659,45.487 201.1287,45.487 C202.717015,45.487 204.655297,44.785 205.597518,43.192 L205.597518,44.596 Z M202.582412,34.606 C204.33225,34.606 205.785962,35.443 205.785962,38.305 C205.785962,41.14 204.33225,42.031 202.582412,42.031 C200.805653,42.031 199.351941,40.87 199.351941,38.305 C199.351941,35.74 200.805653,34.606 202.582412,34.606 Z M219.026903,33.391 L219.026903,25.615 L214.585006,25.615 L214.585006,46 L219.026903,46 L219.026903,38.548 C219.026903,35.875 219.861441,34.606 221.745882,34.606 C223.899529,34.606 223.953371,36.307 223.953371,38.386 L223.953371,46 L228.395268,46 L228.395268,37.279 C228.395268,33.337 227.237682,31.15 223.522641,31.15 C221.261312,31.15 219.672997,32.311 219.026903,33.391 Z M238.378818,40.492 L238.378818,34.633 L242.093859,34.633 L242.093859,31.474 L238.378818,31.474 L238.378818,27.505 L233.936921,27.505 L233.936921,31.474 L231.110259,31.474 L231.110259,34.633 L233.936921,34.633 L233.936921,41.491 C233.936921,45.379 236.117488,46.351 239.159515,46.351 C240.3171,46.351 241.313162,46.108 242.120779,45.865 L242.120779,42.436 C241.609288,42.652 240.882432,42.841 240.128656,42.841 L239.931027,42.83736 C239.055546,42.8020892 238.378818,42.4778966 238.378818,40.492 Z M250.435253,46.351 C254.4195,46.351 256.734671,44.245 256.734671,41.545 C256.734671,39.2912941 255.618817,38.1312984 252.402533,37.1515929 L251.458235,36.874 L251.049267,36.7461808 C249.845625,36.3508367 249.493032,36.0344286 249.493032,35.497 C249.493032,34.876 250.381412,34.606 251.6736,34.606 C252.831185,34.606 254.150294,34.849 255.469403,35.281 L255.469403,31.582 C254.042612,31.204 252.992709,31.042 251.538997,31.042 C247.958559,31.042 245.347262,32.608 245.347262,35.443 C245.347262,37.765 246.747132,39.196 249.681476,40.06 L250.327571,40.249 C251.754362,40.681 252.319694,41.059 252.319694,41.626 C252.319694,42.382 251.538997,42.787 249.977603,42.787 C248.604653,42.787 247.150941,42.463 245.481865,41.842 L245.481865,45.568 C246.612529,45.946 248.550812,46.351 250.435253,46.351 Z M263.864638,46 L263.864638,42.895 L260.768771,42.895 L260.768771,46 L263.864638,46 Z M270.079306,38.791 C270.079306,34.822 272.017588,33.391 274.332759,33.391 C276.647929,33.391 278.586212,34.93 278.586212,38.791 C278.586212,42.517 276.647929,44.191 274.332759,44.191 C272.017588,44.191 270.079306,42.652 270.079306,38.791 Z M267.468009,38.791 C267.468009,44.056 270.860003,46.351 274.332759,46.351 C277.805515,46.351 281.197509,44.056 281.197509,38.791 C281.197509,33.526 277.805515,31.231 274.332759,31.231 C270.860003,31.231 267.468009,33.526 267.468009,38.791 Z M292.742453,31.42 C292.473247,31.393 292.257882,31.393 292.015597,31.393 C290.131156,31.447 288.650524,32.365 287.923668,34.012 L287.923668,31.474 L285.527735,31.474 L285.527735,46 L287.977509,46 L287.977509,38.386 C287.977509,35.2 289.108174,33.931 291.369503,33.931 C291.773312,33.931 292.230962,33.985 292.742453,34.039 L292.742453,31.42 Z M300.949244,31.231 C303.264415,31.231 304.664285,32.23 305.552665,33.769 L305.552665,31.474 L308.002438,31.474 L308.002438,44.758 C308.002438,49.834 305.014253,51.616 301.137688,51.616 C299.522453,51.616 298.0149,51.346 296.749632,50.806 L296.749632,48.295 C297.853376,48.997 299.441691,49.483 301.110768,49.483 L301.412357,49.4773713 C303.384781,49.4026907 305.552665,48.5557805 305.552665,45.217 L305.552665,43.246 C304.664285,44.785 303.264415,45.757 300.949244,45.757 C297.530329,45.757 294.972874,43.165 294.972874,38.494 C294.972874,33.85 297.530329,31.231 300.949244,31.231 Z M301.568418,33.337 C298.957121,33.337 297.638012,35.2 297.638012,38.494 C297.638012,41.815 298.957121,43.678 301.568418,43.678 C303.748985,43.678 305.660347,42.193 305.660347,38.494 C305.660347,34.822 303.748985,33.337 301.568418,33.337 Z" id="yourdigitalrights.org" fill="#FFFFFF" fill-rule="nonzero"></path>
                </g>
            </g>
        </g>
    </g>
</svg>