<?xml version="1.0" encoding="UTF-8"?>
<svg width="578px" height="196px" viewBox="0 0 578 196" version="1.1" xmlns="http://www.w3.org/2000/svg" xmlns:xlink="http://www.w3.org/1999/xlink">
    <!-- Generator: Sketch 59.1 (86144) - https://sketch.com -->
    <title>Group 3</title>
    <desc>Created with Sketch.</desc>
    <g id="collateral" stroke="none" stroke-width="1" fill="none" fill-rule="evenodd">
        <g id="LogoType-dark" transform="translate(-20.000000, -25.000000)">
            <g id="Group-3" transform="translate(20.000000, 20.000000)">
                <g id="Group-2" transform="translate(0.000000, -0.000000)">
                    <path d="M86.8106707,17.3297849 C77.4570341,17.3416939 69.7935537,25.8983013 69.7807142,36.3444681 L69.6173025,169.295681 C69.604463,179.741848 77.2469334,188.278967 86.60057,188.267058 L180.136936,188.147968 C189.490573,188.136059 197.154053,179.579452 197.166893,169.133285 L197.330304,36.1820726 C197.343144,25.7359059 189.700674,17.1987859 180.347037,17.2106949 L86.8106707,17.3297849 Z" id="Path" fill="#005EA5" transform="translate(133.473803, 102.738877) rotate(20.000000) translate(-133.473803, -102.738877) "></path>
                    <path d="M37.9465311,49.8674273 C28.4349895,49.8674273 20.652819,58.4021839 20.652819,68.833553 L20.652819,201.596433 C20.652819,212.027802 28.4349895,220.562558 37.9465311,220.562558 L133.061948,220.562558 C142.57349,220.562558 150.35566,212.027802 150.35566,201.596433 L150.35566,68.833553 C150.35566,58.4021839 142.57349,49.8674273 133.061948,49.8674273 L37.9465311,49.8674273 Z" id="Path-Copy-24" fill="#DFEAF3" transform="translate(85.504240, 135.214993) rotate(-90.000000) translate(-85.504240, -135.214993) "></path>
                    <path d="M77.5268828,70.538298 L50.8689256,143.50166 C47.3158948,153.226325 51.5363765,163.759587 60.234655,166.912966 L148.170819,198.792379 C150.752651,199.728368 153.507211,199.933401 156.230981,199.426339 C159.40446,198.735168 162.31945,197.293829 164.698944,195.265784 L164.865854,195.11902 C165.755033,194.330018 166.577827,193.454776 167.320228,192.506559 L167.415517,192.38074 C169.528294,189.561302 170.676805,186.238764 170.676805,182.772697 L170.676805,87.6572567 C170.676805,78.2461523 162.223819,70.5385403 151.885679,70.5385403 L77.5268828,70.538298 Z" id="Combined-Shape-Copy" stroke="#FFFFFF" stroke-width="0.35" fill="#FFFFFF"></path>
                    <path d="M77.5268828,70.538298 L50.8689256,143.50166 C47.3158948,153.226325 51.5363765,163.759587 60.234655,166.912966 L148.170819,198.792379 C150.752651,199.728368 153.507211,199.933401 156.230981,199.426339 C159.40446,198.735168 162.31945,197.293829 164.698944,195.265784 L164.865854,195.11902 C165.755033,194.330018 166.577827,193.454776 167.320228,192.506559 L167.415517,192.38074 C169.528294,189.561302 170.676805,186.238764 170.676805,182.772697 L170.676805,87.6572567 C170.676805,78.2461523 162.223819,70.5385403 151.885679,70.5385403 L77.5268828,70.538298 Z" id="Combined-Shape" stroke="#FFFFFF" stroke-width="0.35"></path>
                </g>
                <g id="Group" transform="translate(269.272896, 30.839797)" fill-rule="nonzero">
                    <path d="M32.1691125,0.244402704 L32.1691125,28.472915 C32.1691125,33.9312693 30.9279384,37.9740569 28.4455529,40.6013991 C25.9631675,43.2287413 22.2192981,44.5423927 17.2138325,44.5423927 C14.4058883,44.5423927 11.7505896,44.1045089 9.2478568,43.2287282 C6.74512397,42.3529475 4.7205859,41.1411295 3.17418187,39.593238 L5.3716924,36.2938015 C6.75531706,37.6787571 8.46447482,38.7581915 10.499217,39.5321373 C12.5339591,40.3060831 14.7111005,40.6930501 17.0307066,40.6930501 C20.7339373,40.6930501 23.4604509,39.7459991 25.2103291,37.8518687 C26.9602074,35.9577383 27.8351334,33.0147518 27.8351334,29.022821 L27.8351334,25.2956798 C26.6956778,27.1694432 25.1391234,28.6154781 23.1654235,29.6338278 C21.1917236,30.6521775 18.9637144,31.1613447 16.481329,31.1613447 C12.2897601,31.1613447 8.98335376,29.9902601 6.5620106,27.6480558 C4.14066745,25.3058516 2.93001404,21.8740646 2.93001404,17.352592 L2.93001404,0.244402704 L7.26399313,0.244402704 L7.26399313,16.9248872 C7.26399313,20.3058082 8.0982249,22.8720109 9.76671346,24.6235724 C11.435202,26.3751338 13.8158146,27.2509014 16.9086227,27.2509014 C20.2862946,27.2509014 22.9517669,26.2223837 24.9051193,24.1653173 C26.8584718,22.1082509 27.8351334,19.2467312 27.8351334,15.5806724 L27.8351334,0.244402704 L32.1691125,0.244402704 Z M59.5883741,32.6888616 C56.4955661,32.6888616 53.7080111,31.9862109 51.2256257,30.5808883 C48.7432403,29.1755657 46.7899171,27.230547 45.3655976,24.7457737 C43.9412781,22.2610005 43.2291291,19.4503975 43.2291291,16.3138805 C43.2291291,13.1773634 43.9412781,10.3667604 45.3655976,7.88198719 C46.7899171,5.39721395 48.7432403,3.46237856 51.2256257,2.07742298 C53.7080111,0.692467402 56.4955661,-2.84217094e-14 59.5883741,-2.84217094e-14 C62.6811822,-2.84217094e-14 65.4687371,0.692467402 67.9511225,2.07742298 C70.4335079,3.46237856 72.3766575,5.39721395 73.7806296,7.88198719 C75.1846017,10.3667604 75.8865772,13.1773634 75.8865772,16.3138805 C75.8865772,19.4503975 75.1846017,22.2610005 73.7806296,24.7457737 C72.3766575,27.230547 70.4335079,29.1755657 67.9511225,30.5808883 C65.4687371,31.9862109 62.6811822,32.6888616 59.5883741,32.6888616 Z M59.5883741,28.839519 C61.8672853,28.839519 63.9121705,28.3201685 65.723091,27.2814518 C67.5340115,26.2427351 68.9481361,24.7661502 69.9655072,22.8516528 C70.9828782,20.9371554 71.4915561,18.7579197 71.4915561,16.3138805 C71.4915561,13.8698412 70.9828782,11.6906056 69.9655072,9.77610814 C68.9481361,7.86161072 67.5340115,6.38502582 65.723091,5.34630914 C63.9121705,4.30759246 61.8672853,3.7882419 59.5883741,3.7882419 C57.3094629,3.7882419 55.2645777,4.30759246 53.4536572,5.34630914 C51.6427367,6.38502582 50.2184386,7.86161072 49.1807201,9.77610814 C48.1430016,11.6906056 47.6241501,13.8698412 47.6241501,16.3138805 C47.6241501,18.7579197 48.1430016,20.9371554 49.1807201,22.8516528 C50.2184386,24.7661502 51.6427367,26.2427351 53.4536572,27.2814518 C55.2645777,28.3201685 57.3094629,28.839519 59.5883741,28.839519 Z M115.81944,0.244402704 L115.81944,32.3833582 L111.668587,32.3833582 L111.668587,26.5176933 C110.529132,28.4729247 108.962404,29.990243 106.968356,31.0696937 C104.974309,32.1491444 102.695432,32.6888616 100.131657,32.6888616 C95.9400882,32.6888616 92.6336818,31.517777 90.2123386,29.1755727 C87.7909955,26.8333684 86.5803421,23.4015815 86.5803421,18.8801088 L86.5803421,0.244402704 L90.9143212,0.244402704 L90.9143212,18.4524041 C90.9143212,21.8333251 91.7485529,24.3995278 93.4170415,26.1510893 C95.08553,27.9026507 97.4661426,28.7784183 100.558951,28.7784183 C103.936623,28.7784183 106.602095,27.7499006 108.555447,25.6928342 C110.5088,23.6357678 111.485461,20.7742481 111.485461,17.1081892 L111.485461,0.244402704 L115.81944,0.244402704 Z M134.265534,6.53777232 C135.282905,4.37887098 136.798765,2.74953591 138.81316,1.64971825 C140.827555,0.549900584 143.320077,-2.84217094e-14 146.2908,-2.84217094e-14 L146.2908,4.21594664 L145.253087,4.15484596 C141.875415,4.15484596 139.23029,5.19354706 137.317632,7.27098043 C135.404975,9.3484138 134.44866,12.2608502 134.44866,16.0083771 L134.44866,32.3833582 L130.114681,32.3833582 L130.114681,0.244402704 L134.265534,0.244402704 L134.265534,6.53777232 Z M32.5353642,45.6314224 L32.5353642,90.9681239 L28.384511,90.9681239 L28.384511,84.6136536 C27.082276,86.772555 25.3629447,88.4222567 23.2264654,89.5628084 C21.0899862,90.70336 18.6788529,91.2736273 15.9929933,91.2736273 C12.9815749,91.2736273 10.2550613,90.5811599 7.81337077,89.1962043 C5.37168019,87.8112487 3.45905127,85.8764134 2.07542661,83.3916401 C0.691801952,80.9068669 -1.42108547e-14,78.0758972 -1.42108547e-14,74.8986462 C-1.42108547e-14,71.7213951 0.691801952,68.8904255 2.07542661,66.4056522 C3.45905127,63.920879 5.37168019,61.9962269 7.81337077,60.6316383 C10.2550613,59.2670498 12.9815749,58.5847657 15.9929933,58.5847657 C18.5974632,58.5847657 20.9475552,59.1244829 23.0433396,60.2039336 C25.139124,61.2833843 26.8584553,62.8618026 28.2013851,64.939236 L28.2013851,45.6314224 L32.5353642,45.6314224 Z M16.359245,87.4242847 C18.5974614,87.4242847 20.6219995,86.9049342 22.43292,85.8662175 C24.2438405,84.8275008 25.6681386,83.3509159 26.7058571,81.4364185 C27.7435756,79.5219211 28.2624271,77.3426854 28.2624271,74.8986462 C28.2624271,72.4546069 27.7435756,70.2753713 26.7058571,68.3608738 C25.6681386,66.4463764 24.2438405,64.9697915 22.43292,63.9310748 C20.6219995,62.8923582 18.5974614,62.3730076 16.359245,62.3730076 C14.0803338,62.3730076 12.0354487,62.8923582 10.2245282,63.9310748 C8.41360764,64.9697915 6.98930951,66.4463764 5.95159101,68.3608738 C4.91387252,70.2753713 4.39502106,72.4546069 4.39502106,74.8986462 C4.39502106,77.3426854 4.91387252,79.5219211 5.95159101,81.4364185 C6.98930951,83.3509159 8.41360764,84.8275008 10.2245282,85.8662175 C12.0354487,86.9049342 14.0803338,87.4242847 16.359245,87.4242847 Z M46.7695627,58.8291684 L51.1035418,58.8291684 L51.1035418,90.9681239 L46.7695627,90.9681239 L46.7695627,58.8291684 Z M48.9670732,51.8025907 C48.0717867,51.8025907 47.3189434,51.4970904 46.7085207,50.8860805 C46.0980981,50.2750707 45.7928914,49.5418699 45.7928914,48.6864562 C45.7928914,47.8717765 46.0980981,47.1589424 46.7085207,46.5479326 C47.3189434,45.9369227 48.0717867,45.6314224 48.9670732,45.6314224 C49.8623598,45.6314224 50.6152031,45.9267394 51.2256257,46.5173822 C51.8360484,47.108025 52.1412551,47.8106758 52.1412551,48.6253555 C52.1412551,49.5215033 51.8360484,50.2750707 51.2256257,50.8860805 C50.6152031,51.4970904 49.8623598,51.8025907 48.9670732,51.8025907 Z M95.0651744,58.8291684 L95.0651744,87.0576807 C95.0651744,92.516035 93.7324383,96.5588226 91.0669261,99.1861648 C88.4014139,101.813507 84.3828584,103.127158 79.0111391,103.127158 C76.0404156,103.127158 73.22234,102.689275 70.5568278,101.813494 C67.8913156,100.937713 65.7243477,99.7258952 64.0558592,98.1780037 L66.2533697,94.8785672 C67.7997737,96.2635228 69.681882,97.3429572 71.8997509,98.116903 C74.1176198,98.8908488 76.4473647,99.2778158 78.8890552,99.2778158 C82.9585395,99.2778158 85.9495656,98.3307648 87.8622232,96.4366344 C89.7748808,94.542504 90.7311953,91.5995175 90.7311953,87.6075867 L90.7311953,83.5138415 C89.3882655,85.5505408 87.6282399,87.0984092 85.4510658,88.1574928 C83.2738917,89.2165765 80.8627585,89.7461104 78.2175937,89.7461104 C75.2061753,89.7461104 72.4694882,89.084193 70.0074502,87.7603384 C67.5454122,86.4364838 65.6124361,84.5831152 64.2084641,82.2001769 C62.804492,79.8172387 62.1025165,77.1186525 62.1025165,74.1043374 C62.1025165,71.0900223 62.804492,68.4016194 64.2084641,66.0390482 C65.6124361,63.6764769 67.5352386,61.8434749 69.9769292,60.5399873 C72.4186198,59.2364997 75.1654805,58.5847657 78.2175937,58.5847657 C80.9441481,58.5847657 83.4061492,59.1346663 85.6036707,60.2344839 C87.8011922,61.3343016 89.5713914,62.9229033 90.9143212,65.0003367 L90.9143212,58.8291684 L95.0651744,58.8291684 Z M78.6448874,85.8967678 C80.9644934,85.8967678 83.0602464,85.397784 84.9322092,84.3998013 C86.8041719,83.4018186 88.2589908,82.0067004 89.2967093,80.214405 C90.3344277,78.4221095 90.8532792,76.3854407 90.8532792,74.1043374 C90.8532792,71.8232341 90.3344277,69.7967486 89.2967093,68.0248201 C88.2589908,66.2528917 86.8143455,64.8679569 84.9627302,63.8699742 C83.1111148,62.8719915 81.0051883,62.3730076 78.6448874,62.3730076 C76.3252813,62.3730076 74.2397019,62.8618081 72.3880866,63.8394238 C70.5364712,64.8170395 69.091826,66.2019743 68.0541075,67.9942698 C67.016389,69.7865652 66.4975375,71.8232341 66.4975375,74.1043374 C66.4975375,76.3854407 67.016389,78.4221095 68.0541075,80.214405 C69.091826,82.0067004 70.5364712,83.4018186 72.3880866,84.3998013 C74.2397019,85.397784 76.3252813,85.8967678 78.6448874,85.8967678 Z M109.360415,58.8291684 L113.694394,58.8291684 L113.694394,90.9681239 L109.360415,90.9681239 L109.360415,58.8291684 Z M111.557925,51.8025907 C110.662639,51.8025907 109.909796,51.4970904 109.299373,50.8860805 C108.68895,50.2750707 108.383744,49.5418699 108.383744,48.6864562 C108.383744,47.8717765 108.68895,47.1589424 109.299373,46.5479326 C109.909796,45.9369227 110.662639,45.6314224 111.557925,45.6314224 C112.453212,45.6314224 113.206055,45.9267394 113.816478,46.5173822 C114.426901,47.108025 114.732107,47.8106758 114.732107,48.6253555 C114.732107,49.5215033 114.426901,50.2750707 113.816478,50.8860805 C113.206055,51.4970904 112.453212,51.8025907 111.557925,51.8025907 Z M143.73846,89.0129023 C142.924563,89.7461141 141.927554,90.306198 140.747404,90.6931709 C139.567253,91.0801438 138.326079,91.2736273 137.023844,91.2736273 C134.012426,91.2736273 131.692855,90.4589598 130.065061,88.8296003 C128.437267,87.2002408 127.623383,84.898805 127.623383,81.9252239 L127.623383,51.8025907 L131.957362,51.8025907 L131.957362,58.8291684 L141.663033,58.8291684 L141.663033,62.495209 L131.957362,62.495209 L131.957362,81.6808212 C131.957362,83.5953186 132.425345,85.0515368 133.361327,86.0495195 C134.297308,87.0475022 135.660565,87.5464861 137.451138,87.5464861 C139.404491,87.5464861 140.991566,86.9965855 142.212411,85.8967678 L143.73846,89.0129023 Z M181.901106,58.8291684 L181.901106,90.9681239 L177.750253,90.9681239 L177.750253,84.6136536 C176.448018,86.772555 174.728687,88.4222567 172.592208,89.5628084 C170.455728,90.70336 168.044595,91.2736273 165.358735,91.2736273 C162.347317,91.2736273 159.620803,90.5811599 157.179113,89.1962043 C154.737422,87.8112487 152.824793,85.8764134 151.441169,83.3916401 C150.057544,80.9068669 149.365742,78.0758972 149.365742,74.8986462 C149.365742,71.7213951 150.057544,68.8904255 151.441169,66.4056522 C152.824793,63.920879 154.737422,61.9962269 157.179113,60.6316383 C159.620803,59.2670498 162.347317,58.5847657 165.358735,58.5847657 C167.963205,58.5847657 170.313297,59.1244829 172.409082,60.2039336 C174.504866,61.2833843 176.224197,62.8618026 177.567127,64.939236 L177.567127,58.8291684 L181.901106,58.8291684 Z M165.724987,87.4242847 C167.963204,87.4242847 169.987742,86.9049342 171.798662,85.8662175 C173.609583,84.8275008 175.033881,83.3509159 176.071599,81.4364185 C177.109318,79.5219211 177.628169,77.3426854 177.628169,74.8986462 C177.628169,72.4546069 177.109318,70.2753713 176.071599,68.3608738 C175.033881,66.4463764 173.609583,64.9697915 171.798662,63.9310748 C169.987742,62.8923582 167.963204,62.3730076 165.724987,62.3730076 C163.446076,62.3730076 161.401191,62.8923582 159.59027,63.9310748 C157.77935,64.9697915 156.355052,66.4463764 155.317333,68.3608738 C154.279615,70.2753713 153.760763,72.4546069 153.760763,74.8986462 C153.760763,77.3426854 154.279615,79.5219211 155.317333,81.4364185 C156.355052,83.3509159 157.77935,84.8275008 159.59027,85.8662175 C161.401191,86.9049342 163.446076,87.4242847 165.724987,87.4242847 Z M205.169515,91.2736273 C202.280181,91.2736273 200.052172,90.4589598 198.48542,88.8296003 C196.918669,87.2002408 196.135305,84.9395384 196.135305,82.0474252 L196.135305,45.6314224 L200.469284,45.6314224 L200.469284,81.6808212 C200.469284,83.5953186 200.91692,85.0515368 201.812207,86.0495195 C202.707494,87.0475022 204.050403,87.5464861 205.840976,87.5464861 C206.980432,87.5464861 207.957094,87.3631859 208.77099,86.99658 L209.0762,90.6015199 C207.81466,91.0495937 206.512445,91.2736273 205.169515,91.2736273 Z M9.46150366,121.690981 C11.6590252,118.269326 15.5249773,116.558525 21.0594759,116.558525 L21.0594759,123.829505 C20.4083584,123.707303 19.818292,123.646203 19.2892591,123.646203 C16.3185355,123.646203 13.9989643,124.511787 12.3304757,126.242982 C10.6619872,127.974176 9.82775542,130.469096 9.82775542,133.727815 L9.82775542,149.55289 L2.19751053,149.55289 L2.19751053,116.925129 L9.46150366,116.925129 L9.46150366,121.690981 Z M29.6778142,116.925129 L37.308059,116.925129 L37.308059,149.55289 L29.6778142,149.55289 L29.6778142,116.925129 Z M33.5234576,111.548269 C32.1398329,111.548269 30.9800473,111.110385 30.0440659,110.234605 C29.1080845,109.358824 28.6401008,108.269206 28.6401008,106.965719 C28.6401008,105.662231 29.1080845,104.572613 30.0440659,103.696832 C30.9800473,102.821052 32.1398329,102.383168 33.5234576,102.383168 C34.9070822,102.383168 36.0668679,102.800685 37.0028492,103.635732 C37.9388306,104.470778 38.4068143,105.519663 38.4068143,106.782416 C38.4068143,108.126638 37.9490042,109.256989 37.0333702,110.173504 C36.1177363,111.090019 34.9477771,111.548269 33.5234576,111.548269 Z M81.8190693,116.925129 L81.8190693,144.603735 C81.8190693,156.090719 75.9590998,161.834125 64.238985,161.834125 C61.1054821,161.834125 58.1348032,161.436975 55.326859,160.642662 C52.5189148,159.84835 50.1993436,158.697632 48.3680757,157.190474 L51.7864254,151.447011 C53.2107449,152.628296 55.0114647,153.575347 57.1886388,154.288192 C59.3658129,155.001037 61.573475,155.357454 63.8116913,155.357454 C67.3928375,155.357454 70.0176155,154.542786 71.686104,152.913427 C73.3545926,151.284067 74.1888244,148.799331 74.1888244,145.459144 L74.1888244,143.748325 C72.8865894,145.174015 71.2995143,146.253449 69.4275516,146.986661 C67.5555888,147.719873 65.5005301,148.086473 63.2623137,148.086473 C60.1695056,148.086473 57.3717772,147.424556 54.8690443,146.100701 C52.3663115,144.776847 50.3926412,142.913295 48.9479743,140.50999 C47.5033074,138.106684 46.7809847,135.357181 46.7809847,132.261398 C46.7809847,129.165615 47.5033074,126.426296 48.9479743,124.043357 C50.3926412,121.660419 52.3663115,119.817234 54.8690443,118.513746 C57.3717772,117.210259 60.1695056,116.558525 63.2623137,116.558525 C65.6226146,116.558525 67.7692353,116.945492 69.7022404,117.719437 C71.6352454,118.493383 73.2528412,119.674651 74.5550761,121.263277 L74.5550761,116.925129 L81.8190693,116.925129 Z M64.4221109,141.609802 C67.3114448,141.609802 69.6818838,140.744218 71.5334992,139.013023 C73.3851145,137.281829 74.3109083,135.031309 74.3109083,132.261398 C74.3109083,129.532221 73.3851145,127.312252 71.5334992,125.601425 C69.6818838,123.890597 67.3114448,123.035196 64.4221109,123.035196 C61.4920822,123.035196 59.1012961,123.890597 57.2496807,125.601425 C55.3980654,127.312252 54.4722716,129.532221 54.4722716,132.261398 C54.4722716,135.031309 55.3980654,137.281829 57.2496807,139.013023 C59.1012961,140.744218 61.4920822,141.609802 64.4221109,141.609802 Z M112.473555,116.558525 C116.583734,116.558525 119.879967,117.760159 122.362352,120.163465 C124.844738,122.56677 126.085912,126.13094 126.085912,130.856083 L126.085912,149.55289 L118.455667,149.55289 L118.455667,131.833694 C118.455667,128.982314 117.784212,126.833629 116.441282,125.387572 C115.098352,123.941516 113.185723,123.218498 110.703338,123.218498 C107.895394,123.218498 105.677558,124.063716 104.049764,125.754176 C102.421971,127.444637 101.608086,129.878456 101.608086,133.055707 L101.608086,149.55289 L93.9778412,149.55289 L93.9778412,104.216188 L101.608086,104.216188 L101.608086,120.713371 C102.869626,119.369149 104.426181,118.340631 106.277796,117.627786 C108.129411,116.914942 110.194644,116.558525 112.473555,116.558525 Z M156.252061,147.78097 C155.356775,148.514182 154.268204,149.064082 152.986317,149.430688 C151.704429,149.797294 150.351346,149.980594 148.927026,149.980594 C145.34588,149.980594 142.578672,149.043727 140.62532,147.169963 C138.671967,145.2962 137.695306,142.567064 137.695306,138.982473 L137.695306,109.715249 L145.325551,109.715249 L145.325551,117.169531 L154.054551,117.169531 L154.054551,123.279599 L145.325551,123.279599 L145.325551,138.799171 C145.325551,140.387796 145.72232,141.599614 146.515869,142.434661 C147.309418,143.269708 148.418336,143.687225 149.842656,143.687225 C151.551839,143.687225 152.976137,143.239158 154.115593,142.34301 L156.252061,147.78097 Z M174.759197,149.980594 C172.114032,149.980594 169.529949,149.634361 167.006868,148.941883 C164.483788,148.249405 162.469424,147.373637 160.963714,146.314554 L163.893728,140.50999 C165.358743,141.487605 167.118768,142.271723 169.173858,142.862366 C171.228947,143.453008 173.253485,143.748325 175.247533,143.748325 C179.805355,143.748325 182.084232,142.546691 182.084232,140.143386 C182.084232,139.002834 181.504339,138.208533 180.344536,137.760459 C179.329709,137.368395 177.777444,136.991928 175.687706,136.631052 L174.759197,136.477345 C172.073337,136.070005 169.886022,135.601571 168.197187,135.072029 C166.508351,134.542488 165.043358,133.615803 163.802165,132.291949 C162.560973,130.968094 161.940386,129.124909 161.940386,126.762338 C161.940386,123.666554 163.232428,121.192002 165.81655,119.338605 C168.400673,117.485209 171.890203,116.558525 176.285246,116.558525 C178.523462,116.558525 180.761645,116.813108 182.999862,117.322283 C185.238078,117.831458 187.069318,118.513742 188.493638,119.369156 L185.563624,125.17372 C182.796375,123.54436 179.683266,122.729693 176.224204,122.729693 C173.985988,122.729693 172.287004,123.065743 171.127201,123.737854 C169.967398,124.409965 169.387505,125.295916 169.387505,126.395733 C169.387505,127.617753 170.008092,128.483337 171.249284,128.992512 C172.490477,129.501687 174.41328,129.980304 177.01775,130.428378 C179.62222,130.835718 181.758667,131.304152 183.427155,131.833694 C185.095644,132.363235 186.530116,133.25937 187.730613,134.522123 C188.931111,135.784877 189.531351,137.577146 189.531351,139.898983 C189.531351,142.954032 188.208789,145.398034 185.563624,147.231064 C182.918459,149.064093 179.31702,149.980594 174.759197,149.980594 Z" id="yourdigitalrights" fill="#F6F7FA"></path>
                    <path d="M202.205667,151.198016 C200.770422,151.198016 199.546261,150.701542 198.533147,149.708581 C197.520034,148.715619 197.013484,147.458591 197.013484,145.937458 C197.013484,144.374072 197.50948,143.106481 198.501488,142.134646 C199.493495,141.162811 200.728209,140.676901 202.205667,140.676901 C203.683125,140.676901 204.917839,141.162811 205.909846,142.134646 C206.901853,143.106481 207.39785,144.374072 207.39785,145.937458 C207.39785,147.458591 206.8913,148.715619 205.878186,149.708581 C204.865073,150.701542 203.640912,151.198016 202.205667,151.198016 Z M227.391462,151.198016 C223.972203,151.198016 220.890694,150.458587 218.146844,148.979708 C215.402994,147.500829 213.260712,145.440993 211.719935,142.800138 C210.179157,140.159283 209.40878,137.16988 209.40878,133.831838 C209.40878,130.493797 210.179157,127.514957 211.719935,124.895229 C213.260712,122.275501 215.402994,120.226228 218.146844,118.747349 C220.890694,117.26847 223.972203,116.529041 227.391462,116.529041 C230.852934,116.529041 233.955549,117.26847 236.699399,118.747349 C239.443249,120.226228 241.585531,122.275501 243.126308,124.895229 C244.667086,127.514957 245.437463,130.493797 245.437463,133.831838 C245.437463,137.16988 244.667086,140.159283 243.126308,142.800138 C241.585531,145.440993 239.443249,147.500829 236.699399,148.979708 C233.955549,150.458587 230.852934,151.198016 227.391462,151.198016 Z M227.391462,144.416333 C230.304164,144.416333 232.710274,143.444513 234.609862,141.500844 C236.509451,139.557174 237.459231,137.000865 237.459231,133.831838 C237.459231,130.662812 236.509451,128.106503 234.609862,126.162833 C232.710274,124.219164 230.304164,123.247344 227.391462,123.247344 C224.478759,123.247344 222.083203,124.219164 220.204721,126.162833 C218.326239,128.106503 217.387012,130.662812 217.387012,133.831838 C217.387012,137.000865 218.326239,139.557174 220.204721,141.500844 C222.083203,143.444513 224.478759,144.416333 227.391462,144.416333 Z M258.275994,121.852979 C260.5555,118.30367 264.565683,116.529041 270.306661,116.529041 L270.306661,124.071286 C269.631252,123.944525 269.019172,123.881146 268.470402,123.881146 C265.388847,123.881146 262.982737,124.779023 261.252001,126.574805 C259.521265,128.370586 258.65591,130.958585 258.65591,134.33888 L258.65591,150.754354 L250.740997,150.754354 L250.740997,116.909323 L258.275994,116.909323 L258.275994,121.852979 Z M288.717291,116.529041 C291.16565,116.529041 293.392356,116.930445 295.397477,117.733265 C297.402599,118.536085 299.080543,119.761424 300.431362,121.409318 L300.431362,116.909323 L307.966359,116.909323 L307.966359,145.620557 C307.966359,157.536096 301.887767,163.493776 289.7304,163.493776 C286.479993,163.493776 283.398484,163.081809 280.485782,162.257862 C277.573079,161.433915 275.16697,160.240267 273.267381,158.67688 L276.813262,152.719141 C278.29072,153.944498 280.158621,154.926881 282.417021,155.66632 C284.67542,156.40576 286.965445,156.775474 289.287165,156.775474 C293.001916,156.775474 295.724618,155.930413 297.455355,154.240266 C299.186091,152.550118 300.051446,149.972682 300.051446,146.50788 L300.051446,144.733234 C298.700628,146.212113 297.054342,147.331819 295.112541,148.092385 C293.170739,148.852952 291.03901,149.233229 288.717291,149.233229 C285.509097,149.233229 282.606991,148.546617 280.010887,147.173372 C277.414783,145.800128 275.367479,143.867051 273.868915,141.374083 C272.370351,138.881116 271.62108,136.029041 271.62108,132.817755 C271.62108,129.606475 272.370351,126.764958 273.868915,124.293117 C275.367479,121.821277 277.414783,119.909326 280.010887,118.557208 C282.606991,117.20509 285.509097,116.529041 288.717291,116.529041 Z M289.920358,123.247344 C286.881016,123.247344 284.401035,124.134658 282.48034,125.909312 C280.559645,127.683967 279.599312,129.986758 279.599312,132.817755 C279.599312,135.691006 280.559645,138.025487 282.48034,139.821268 C284.401035,141.61705 286.881016,142.514927 289.920358,142.514927 C292.917486,142.514927 295.376361,141.61705 297.297056,139.821268 C299.217751,138.025487 300.178085,135.691006 300.178085,132.817755 C300.178085,129.986758 299.217751,127.683967 297.297056,125.909312 C295.376361,124.134658 292.917486,123.247344 289.920358,123.247344 Z" id=".org" fill="#62A6DA"></path>
                </g>
            </g>
        </g>
    </g>
</svg>