<?xml version="1.0" encoding="utf-8"?>
<!-- Generator: Adobe Illustrator 23.1.1, SVG Export Plug-In . SVG Version: 6.00 Build 0)  -->
<svg version="1.1" id="Layer_1" xmlns="http://www.w3.org/2000/svg" xmlns:xlink="http://www.w3.org/1999/xlink" x="0px" y="0px"
	 viewBox="0 0 177 172" style="enable-background:new 0 0 177 172;" xml:space="preserve">
<style type="text/css">
	.st0{clip-path:url(#SVGID_2_);}
	.st1{clip-path:url(#SVGID_4_);fill:#00AE8D;}
	.st2{clip-path:url(#SVGID_6_);}
	.st3{clip-path:url(#SVGID_8_);fill:#DFEAF3;}
	.st4{clip-path:url(#SVGID_10_);}
	.st5{clip-path:url(#SVGID_12_);enable-background:new    ;}
	.st6{clip-path:url(#SVGID_14_);}
	.st7{clip-path:url(#SVGID_16_);}
	.st8{clip-path:url(#SVGID_18_);fill:#FFFFFF;}
	.st9{clip-path:url(#SVGID_20_);fill:none;stroke:#FFFFFF;stroke-width:0.7;stroke-miterlimit:10;}
	.st10{clip-path:url(#SVGID_22_);}
	.st11{clip-path:url(#SVGID_24_);enable-background:new    ;}
	.st12{clip-path:url(#SVGID_26_);}
	.st13{clip-path:url(#SVGID_28_);fill:none;stroke:#FFFFFF;stroke-width:0.7;stroke-miterlimit:10;}
</style>
<g>
	<g>
		<defs>
			<path id="SVGID_1_" d="M144.8,4.8c-2.5-0.9-5.3,0.6-6.3,3.4L125.8,43c-1,2.7,0.2,5.7,2.6,6.6l24.6,8.9c2.5,0.9,5.3-0.6,6.3-3.4
				L172,20.3c1-2.7-0.2-5.7-2.6-6.6L144.8,4.8z"/>
		</defs>
		<clipPath id="SVGID_2_">
			<use xlink:href="#SVGID_1_"  style="overflow:visible;"/>
		</clipPath>
		<g class="st0">
			<defs>
				<rect id="SVGID_3_" x="106.6" y="-2" width="72.3" height="67.3"/>
			</defs>
			<clipPath id="SVGID_4_">
				<use xlink:href="#SVGID_3_"  style="overflow:visible;"/>
			</clipPath>
			
				<rect x="123.7" y="12.6" transform="matrix(0.342 -0.9397 0.9397 0.342 68.2151 160.7378)" class="st1" width="50.3" height="38.2"/>
		</g>
	</g>
	<g>
		<defs>
			<path id="SVGID_5_" d="M111.6,54c0,2.7,2.4,4.8,5.3,4.8H154c2.9,0,5.3-2.2,5.3-4.8V27.4c0-2.7-2.4-4.8-5.3-4.8h-37.1
				c-2.9,0-5.3,2.2-5.3,4.8V54z"/>
		</defs>
		<clipPath id="SVGID_6_">
			<use xlink:href="#SVGID_5_"  style="overflow:visible;"/>
		</clipPath>
		<g class="st2">
			<defs>
				<rect id="SVGID_7_" x="106.6" y="-2" width="72.3" height="67.3"/>
			</defs>
			<clipPath id="SVGID_8_">
				<use xlink:href="#SVGID_7_"  style="overflow:visible;"/>
			</clipPath>
			<rect x="110.4" y="21.4" class="st3" width="50.2" height="38.7"/>
		</g>
	</g>
	<g>
		<defs>
			<path id="SVGID_9_" d="M154,22.6c2.9,0,5.3,2.2,5.3,4.8V54c0,1-0.3,2-0.9,2.7l0,0.1c-0.2,0.3-0.5,0.5-0.7,0.7
				c-0.7,0.6-1.5,1-2.4,1.2c-0.7,0.1-1.5,0.1-2.3-0.2l-24.6-8.9c-2.5-0.9-3.6-3.9-2.6-6.6l7.5-20.4L154,22.6z"/>
		</defs>
		<clipPath id="SVGID_10_">
			<use xlink:href="#SVGID_9_"  style="overflow:visible;"/>
		</clipPath>
		<g class="st4">
			<defs>
				<rect id="SVGID_11_" x="106.6" y="-2" width="72.3" height="67.3"/>
			</defs>
			<clipPath id="SVGID_12_">
				<use xlink:href="#SVGID_11_"  style="overflow:visible;"/>
			</clipPath>
			<g class="st5">
				<g>
					<defs>
						<rect id="SVGID_13_" x="123.9" y="21.7" width="36.5" height="38"/>
					</defs>
					<clipPath id="SVGID_14_">
						<use xlink:href="#SVGID_13_"  style="overflow:visible;"/>
					</clipPath>
					<g class="st6">
						<defs>
							<path id="SVGID_15_" d="M154,22.6c2.9,0,5.3,2.2,5.3,4.8V54c0,1-0.3,2-0.9,2.7l0,0.1c-0.2,0.3-0.5,0.5-0.7,0.7
								c-0.7,0.6-1.5,1-2.4,1.2c-0.7,0.1-1.5,0.1-2.3-0.2l-24.6-8.9c-2.5-0.9-3.6-3.9-2.6-6.6l7.5-20.4L154,22.6z"/>
						</defs>
						<clipPath id="SVGID_16_">
							<use xlink:href="#SVGID_15_"  style="overflow:visible;"/>
						</clipPath>
						<g class="st7">
							<defs>
								<rect id="SVGID_17_" x="125.1" y="22.5" width="34.3" height="36.5"/>
							</defs>
							<clipPath id="SVGID_18_">
								<use xlink:href="#SVGID_17_"  style="overflow:visible;"/>
							</clipPath>
							<path class="st8" d="M154,22.6c2.9,0,5.3,2.2,5.3,4.8V54c0,1-0.3,2-0.9,2.7l0,0.1c-0.2,0.3-0.5,0.5-0.7,0.7
								c-0.7,0.6-1.5,1-2.4,1.2c-0.7,0.1-1.5,0.1-2.3-0.2l-24.6-8.9c-2.5-0.9-3.6-3.9-2.6-6.6l7.5-20.4L154,22.6z"/>
						</g>
					</g>
					<g class="st6">
						<defs>
							<rect id="SVGID_19_" x="125.1" y="22.5" width="34.3" height="36.5"/>
						</defs>
						<clipPath id="SVGID_20_">
							<use xlink:href="#SVGID_19_"  style="overflow:visible;"/>
						</clipPath>
						<path class="st9" d="M154,22.6c2.9,0,5.3,2.2,5.3,4.8V54c0,1-0.3,2-0.9,2.7l0,0.1c-0.2,0.3-0.5,0.5-0.7,0.7
							c-0.7,0.6-1.5,1-2.4,1.2c-0.7,0.1-1.5,0.1-2.3-0.2l-24.6-8.9c-2.5-0.9-3.6-3.9-2.6-6.6l7.5-20.4L154,22.6z"/>
					</g>
				</g>
			</g>
		</g>
	</g>
	<g>
		<defs>
			<path id="SVGID_21_" d="M154,22.6c2.9,0,5.3,2.2,5.3,4.8V54c0,1-0.3,2-0.9,2.7l0,0.1c-0.2,0.3-0.5,0.5-0.7,0.7
				c-0.7,0.6-1.5,1-2.4,1.2c-0.7,0.1-1.5,0.1-2.3-0.2l-24.6-8.9c-2.5-0.9-3.6-3.9-2.6-6.6l7.5-20.4L154,22.6z"/>
		</defs>
		<clipPath id="SVGID_22_">
			<use xlink:href="#SVGID_21_"  style="overflow:visible;"/>
		</clipPath>
		<g class="st10">
			<defs>
				<rect id="SVGID_23_" x="106.6" y="-2" width="72.3" height="67.3"/>
			</defs>
			<clipPath id="SVGID_24_">
				<use xlink:href="#SVGID_23_"  style="overflow:visible;"/>
			</clipPath>
			<g class="st11">
				<g>
					<defs>
						<rect id="SVGID_25_" x="123.9" y="21.7" width="36.5" height="38"/>
					</defs>
					<clipPath id="SVGID_26_">
						<use xlink:href="#SVGID_25_"  style="overflow:visible;"/>
					</clipPath>
					<g class="st12">
						<defs>
							<rect id="SVGID_27_" x="125.1" y="22.5" width="34.3" height="36.5"/>
						</defs>
						<clipPath id="SVGID_28_">
							<use xlink:href="#SVGID_27_"  style="overflow:visible;"/>
						</clipPath>
						<path class="st13" d="M154,22.6c2.9,0,5.3,2.2,5.3,4.8V54c0,1-0.3,2-0.9,2.7l0,0.1c-0.2,0.3-0.5,0.5-0.7,0.7
							c-0.7,0.6-1.5,1-2.4,1.2c-0.7,0.1-1.5,0.1-2.3-0.2l-24.6-8.9c-2.5-0.9-3.6-3.9-2.6-6.6l7.5-20.4L154,22.6z"/>
					</g>
				</g>
			</g>
		</g>
	</g>
</g>
</svg>
