<?xml version="1.0" encoding="UTF-8"?>
<svg width="158px" height="154px" viewBox="0 0 158 154" version="1.1" xmlns="http://www.w3.org/2000/svg" xmlns:xlink="http://www.w3.org/1999/xlink">
    <!-- Generator: Sketch 50 (54983) - http://www.bohemiancoding.com/sketch -->
    <title>logo</title>
    <desc>Created with Sketch.</desc>
    <defs>
        <linearGradient x1="50%" y1="0%" x2="69.4717407%" y2="100%" id="linearGradient-1">
            <stop stop-color="#E6E6E6" offset="0%"></stop>
            <stop stop-color="#BDBDBD" offset="100%"></stop>
        </linearGradient>
        <path d="M31.5504163,37.5 C26.755658,37.5 22.832674,41.8366662 22.832674,47.137036 L22.832674,114.596288 C22.832674,119.896658 26.755658,124.233324 31.5504163,124.233324 L79.4979992,124.233324 C84.2927575,124.233324 88.2157415,119.896658 88.2157415,114.596288 L88.2157415,47.137036 C88.2157415,41.8366662 84.2927575,37.5 79.4979992,37.5 L31.5504163,37.5 Z M42.8108335,74.6714245 C43.813891,74.6714245 44.6270298,73.7468571 44.6270298,72.6063454 C44.6270298,71.4658337 43.813891,70.5412663 42.8108335,70.5412663 C41.807776,70.5412663 40.9946372,71.4658337 40.9946372,72.6063454 C40.9946372,73.7468571 41.807776,74.6714245 42.8108335,74.6714245 Z M68.237582,74.6714245 C69.2406395,74.6714245 70.0537783,73.7468571 70.0537783,72.6063454 C70.0537783,71.4658337 69.2406395,70.5412663 68.237582,70.5412663 C67.2345245,70.5412663 66.4213857,71.4658337 66.4213857,72.6063454 C66.4213857,73.7468571 67.2345245,74.6714245 68.237582,74.6714245 Z M48.7078941,93.2571368 L44.6270298,93.2532071 C44.6347019,88.2481889 49.4946927,85.0073253 55.5248054,84.9968457 C61.5658593,84.9863471 66.4213857,88.2219054 66.4213857,93.255172 L62.3405184,93.255172 C62.3405184,90.1455087 59.4576474,88.2244612 55.5337533,88.2312804 C51.6104629,88.2380986 48.7126256,90.1705087 48.7078941,93.2571368 Z" id="path-2"></path>
        <filter x="-16.1%" y="-12.1%" width="132.1%" height="124.2%" filterUnits="objectBoundingBox" id="filter-3">
            <feOffset dx="0" dy="0" in="SourceAlpha" result="shadowOffsetOuter1"></feOffset>
            <feGaussianBlur stdDeviation="3.5" in="shadowOffsetOuter1" result="shadowBlurOuter1"></feGaussianBlur>
            <feColorMatrix values="0 0 0 0 0   0 0 0 0 0   0 0 0 0 0  0 0 0 0.4 0" type="matrix" in="shadowBlurOuter1"></feColorMatrix>
        </filter>
        <path d="M26.814572,41.9642857 C22.0198137,41.9642857 18.0968297,46.3009519 18.0968297,51.6013217 L18.0968297,119.060574 C18.0968297,124.360943 22.0198137,128.69761 26.814572,128.69761 L74.7621549,128.69761 C79.5569132,128.69761 83.4798972,124.360943 83.4798972,119.060574 L83.4798972,51.6013217 C83.4798972,46.3009519 79.5569132,41.9642857 74.7621549,41.9642857 L26.814572,41.9642857 Z M38.0749892,79.1357102 C39.0780467,79.1357102 39.8911855,78.2111428 39.8911855,77.0706311 C39.8911855,75.9301194 39.0780467,75.005552 38.0749892,75.005552 C37.0719317,75.005552 36.2587929,75.9301194 36.2587929,77.0706311 C36.2587929,78.2111428 37.0719317,79.1357102 38.0749892,79.1357102 Z M63.5017377,79.1357102 C64.5047952,79.1357102 65.317934,78.2111428 65.317934,77.0706311 C65.317934,75.9301194 64.5047952,75.005552 63.5017377,75.005552 C62.4986802,75.005552 61.6855414,75.9301194 61.6855414,77.0706311 C61.6855414,78.2111428 62.4986802,79.1357102 63.5017377,79.1357102 Z M43.9720498,97.7214225 L39.8911855,97.7174929 C39.8988576,92.7124746 44.7588484,89.471611 50.7889611,89.4611314 C56.830015,89.4506328 61.6855414,92.6861911 61.6855414,97.7194577 L57.604674,97.7194577 C57.604674,94.6097944 54.7218031,92.6887469 50.797909,92.6955661 C46.8746186,92.7023843 43.9767813,94.6347944 43.9720498,97.7214225 Z" id="path-4"></path>
        <filter x="-16.1%" y="-12.1%" width="132.1%" height="124.2%" filterUnits="objectBoundingBox" id="filter-5">
            <feOffset dx="0" dy="0" in="SourceAlpha" result="shadowOffsetOuter1"></feOffset>
            <feGaussianBlur stdDeviation="3.5" in="shadowOffsetOuter1" result="shadowBlurOuter1"></feGaussianBlur>
            <feColorMatrix values="0 0 0 0 0   0 0 0 0 0   0 0 0 0 0  0 0 0 0.4 0" type="matrix" in="shadowBlurOuter1"></feColorMatrix>
        </filter>
        <linearGradient x1="-10.6085399%" y1="-57.2311047%" x2="123.975929%" y2="190.425145%" id="linearGradient-6">
            <stop stop-color="#00C8EA" stop-opacity="0.582823822" offset="0%"></stop>
            <stop stop-color="#FFFFFF" offset="100%"></stop>
        </linearGradient>
        <path d="M18.1321907,51.7857143 C13.3374325,51.7857143 9.4144484,56.1223805 9.4144484,61.4227503 L9.4144484,128.882002 C9.4144484,134.182372 13.3374325,138.519038 18.1321907,138.519038 L66.0797736,138.519038 C70.8745319,138.519038 74.797516,134.182372 74.797516,128.882002 L74.797516,61.4227503 C74.797516,56.1223805 70.8745319,51.7857143 66.0797736,51.7857143 L18.1321907,51.7857143 Z M29.3926079,88.9571388 C30.3956655,88.9571388 31.2088043,88.0325714 31.2088043,86.8920597 C31.2088043,85.751548 30.3956655,84.8269805 29.3926079,84.8269805 C28.3895504,84.8269805 27.5764116,85.751548 27.5764116,86.8920597 C27.5764116,88.0325714 28.3895504,88.9571388 29.3926079,88.9571388 Z M54.8193564,88.9571388 C55.822414,88.9571388 56.6355527,88.0325714 56.6355527,86.8920597 C56.6355527,85.751548 55.822414,84.8269805 54.8193564,84.8269805 C53.8162989,84.8269805 53.0031601,85.751548 53.0031601,86.8920597 C53.0031601,88.0325714 53.8162989,88.9571388 54.8193564,88.9571388 Z M35.2896686,107.542851 L31.2088043,107.538921 C31.2164764,102.533903 36.0764672,99.2930396 42.1065798,99.28256 C48.1476337,99.2720614 53.0031601,102.50762 53.0031601,107.540886 L48.9222928,107.540886 C48.9222928,104.431223 46.0394218,102.510175 42.1155277,102.516995 C38.1922373,102.523813 35.2944,104.456223 35.2896686,107.542851 Z" id="path-7"></path>
        <filter x="-16.1%" y="-12.1%" width="132.1%" height="124.2%" filterUnits="objectBoundingBox" id="filter-8">
            <feOffset dx="0" dy="0" in="SourceAlpha" result="shadowOffsetOuter1"></feOffset>
            <feGaussianBlur stdDeviation="3.5" in="shadowOffsetOuter1" result="shadowBlurOuter1"></feGaussianBlur>
            <feColorMatrix values="0 0 0 0 0   0 0 0 0 0   0 0 0 0 0  0 0 0 0.4 0" type="matrix" in="shadowBlurOuter1"></feColorMatrix>
        </filter>
        <path d="M14.1856538,57.1428571 C9.39089552,57.1428571 5.46791147,61.4795233 5.46791147,66.7798931 L5.46791147,134.239145 C5.46791147,139.539515 9.39089552,143.876181 14.1856538,143.876181 L62.1332367,143.876181 C66.927995,143.876181 70.850979,139.539515 70.850979,134.239145 L70.850979,66.7798931 C70.850979,61.4795233 66.927995,57.1428571 62.1332367,57.1428571 L14.1856538,57.1428571 Z M25.446071,94.3142817 C26.4491285,94.3142817 27.2622673,93.3897143 27.2622673,92.2492025 C27.2622673,91.1086908 26.4491285,90.1841234 25.446071,90.1841234 C24.4430135,90.1841234 23.6298747,91.1086908 23.6298747,92.2492025 C23.6298747,93.3897143 24.4430135,94.3142817 25.446071,94.3142817 Z M50.8728195,94.3142817 C51.875877,94.3142817 52.6890158,93.3897143 52.6890158,92.2492025 C52.6890158,91.1086908 51.875877,90.1841234 50.8728195,90.1841234 C49.869762,90.1841234 49.0566232,91.1086908 49.0566232,92.2492025 C49.0566232,93.3897143 49.869762,94.3142817 50.8728195,94.3142817 Z M31.3431316,112.899994 L27.2622673,112.896064 C27.2699394,107.891046 32.1299302,104.650182 38.1600429,104.639703 C44.2010968,104.629204 49.0566232,107.864763 49.0566232,112.898029 L44.9757558,112.898029 C44.9757558,109.788366 42.0928849,107.867318 38.1689908,107.874138 C34.2457004,107.880956 31.3478631,109.813366 31.3431316,112.899994 Z" id="path-9"></path>
        <filter x="-16.1%" y="-12.1%" width="132.1%" height="124.2%" filterUnits="objectBoundingBox" id="filter-10">
            <feOffset dx="0" dy="0" in="SourceAlpha" result="shadowOffsetOuter1"></feOffset>
            <feGaussianBlur stdDeviation="3.5" in="shadowOffsetOuter1" result="shadowBlurOuter1"></feGaussianBlur>
            <feColorMatrix values="0 0 0 0 0   0 0 0 0 0   0 0 0 0 0  0 0 0 0.4 0" type="matrix" in="shadowBlurOuter1"></feColorMatrix>
        </filter>
        <path d="M9.44980948,62.5 C4.6550512,62.5 0.732067143,66.8366662 0.732067143,72.137036 L0.732067143,139.596288 C0.732067143,144.896658 4.6550512,149.233324 9.44980948,149.233324 L57.3973924,149.233324 C62.1921506,149.233324 66.1151347,144.896658 66.1151347,139.596288 L66.1151347,72.137036 C66.1151347,66.8366662 62.1921506,62.5 57.3973924,62.5 L9.44980948,62.5 Z M20.7102267,99.6714245 C21.7132842,99.6714245 22.526423,98.7468571 22.526423,97.6063454 C22.526423,96.4658337 21.7132842,95.5412663 20.7102267,95.5412663 C19.7071691,95.5412663 18.8940304,96.4658337 18.8940304,97.6063454 C18.8940304,98.7468571 19.7071691,99.6714245 20.7102267,99.6714245 Z M46.1369752,99.6714245 C47.1400327,99.6714245 47.9531715,98.7468571 47.9531715,97.6063454 C47.9531715,96.4658337 47.1400327,95.5412663 46.1369752,95.5412663 C45.1339176,95.5412663 44.3207788,96.4658337 44.3207788,97.6063454 C44.3207788,98.7468571 45.1339176,99.6714245 46.1369752,99.6714245 Z M26.6072873,118.257137 L22.526423,118.253207 C22.5340951,113.248189 27.3940859,110.007325 33.4241985,109.996846 C39.4652525,109.986347 44.3207788,113.221905 44.3207788,118.255172 L40.2399115,118.255172 C40.2399115,115.145509 37.3570406,113.224461 33.4331465,113.23128 C29.5098561,113.238099 26.6120187,115.170509 26.6072873,118.257137 Z" id="path-11"></path>
        <filter x="-16.1%" y="-12.1%" width="132.1%" height="124.2%" filterUnits="objectBoundingBox" id="filter-12">
            <feOffset dx="0" dy="0" in="SourceAlpha" result="shadowOffsetOuter1"></feOffset>
            <feGaussianBlur stdDeviation="3.5" in="shadowOffsetOuter1" result="shadowBlurOuter1"></feGaussianBlur>
            <feColorMatrix values="0 0 0 0 0   0 0 0 0 0   0 0 0 0 0  0 0 0 0.4 0" type="matrix" in="shadowBlurOuter1"></feColorMatrix>
        </filter>
    </defs>
    <g id="opt-out" stroke="none" stroke-width="1" fill="none" fill-rule="evenodd">
        <g id="v6---Home" transform="translate(-748.000000, -151.000000)">
            <g id="modules-/-hero---v3" transform="translate(0.000000, 70.000000)">
                <g id="logo" transform="translate(754.000000, 79.000000)">
                    <g id="files">
                        <g id="happy-file-copy">
                            <use fill="black" fill-opacity="1" filter="url(#filter-3)" xlink:href="#path-2"></use>
                            <use fill="url(#linearGradient-1)" fill-rule="evenodd" xlink:href="#path-2"></use>
                        </g>
                        <g id="happy-file-copy-2">
                            <use fill="black" fill-opacity="1" filter="url(#filter-5)" xlink:href="#path-4"></use>
                            <use fill="url(#linearGradient-1)" fill-rule="evenodd" xlink:href="#path-4"></use>
                        </g>
                        <g id="happy" transform="translate(60.381669, 0.000000)">
                            <path d="M21.6511402,7.56339938 C16.50903,7.56339938 12.3018489,12.5195893 12.3018489,18.5771548 L12.3018489,95.6734427 C12.3018489,101.731008 16.50903,106.687198 21.6511402,106.687198 L73.0722424,106.687198 C78.2143527,106.687198 82.4215337,101.731008 82.4215337,95.6734427 L82.4215337,18.5771548 C82.4215337,12.5195893 78.2143527,7.56339938 73.0722424,7.56339938 L21.6511402,7.56339938 Z M33.7273082,50.0450274 C34.8030313,50.0450274 35.6750772,48.9883789 35.6750772,47.684937 C35.6750772,46.381495 34.8030313,45.3248465 33.7273082,45.3248465 C32.6515851,45.3248465 31.7795392,46.381495 31.7795392,47.684937 C31.7795392,48.9883789 32.6515851,50.0450274 33.7273082,50.0450274 Z M60.9960745,50.0450274 C62.0717976,50.0450274 62.9438435,48.9883789 62.9438435,47.684937 C62.9438435,46.381495 62.0717976,45.3248465 60.9960745,45.3248465 C59.9203514,45.3248465 59.0483055,46.381495 59.0483055,47.684937 C59.0483055,48.9883789 59.9203514,50.0450274 60.9960745,50.0450274 Z M54.6718066,61.8454797 L59.0483055,61.8499707 C59.0400776,67.5699916 53.8280091,71.2738357 47.3610504,71.2858123 C40.8823578,71.2978107 35.6750772,67.6000298 35.6750772,61.8477252 L40.0515793,61.8477252 C40.0515793,65.401626 43.1432972,67.5971089 47.3514543,67.5893155 C51.5589639,67.5815233 54.6667324,65.3730546 54.6718066,61.8454797 Z" id="happy-file-copy-3" fill="#FFFFFF" transform="translate(47.361691, 57.125299) rotate(15.000000) translate(-47.361691, -57.125299) "></path>
                            <path d="M21.6511402,7.56339938 C16.50903,7.56339938 12.3018489,12.5195893 12.3018489,18.5771548 L12.3018489,95.6734427 C12.3018489,101.731008 16.50903,106.687198 21.6511402,106.687198 L73.0722424,106.687198 C78.2143527,106.687198 82.4215337,101.731008 82.4215337,95.6734427 L82.4215337,18.5771548 C82.4215337,12.5195893 78.2143527,7.56339938 73.0722424,7.56339938 L21.6511402,7.56339938 Z M33.7273082,50.0450274 C34.8030313,50.0450274 35.6750772,48.9883789 35.6750772,47.684937 C35.6750772,46.381495 34.8030313,45.3248465 33.7273082,45.3248465 C32.6515851,45.3248465 31.7795392,46.381495 31.7795392,47.684937 C31.7795392,48.9883789 32.6515851,50.0450274 33.7273082,50.0450274 Z M60.9960745,50.0450274 C62.0717976,50.0450274 62.9438435,48.9883789 62.9438435,47.684937 C62.9438435,46.381495 62.0717976,45.3248465 60.9960745,45.3248465 C59.9203514,45.3248465 59.0483055,46.381495 59.0483055,47.684937 C59.0483055,48.9883789 59.9203514,50.0450274 60.9960745,50.0450274 Z M54.6718066,61.8454797 L59.0483055,61.8499707 C59.0400776,67.5699916 53.8280091,71.2738357 47.3610504,71.2858123 C40.8823578,71.2978107 35.6750772,67.6000298 35.6750772,61.8477252 L40.0515793,61.8477252 C40.0515793,65.401626 43.1432972,67.5971089 47.3514543,67.5893155 C51.5589639,67.5815233 54.6667324,65.3730546 54.6718066,61.8454797 Z" id="happy-file-copy-7" fill="#FFFFFF" transform="translate(47.361691, 57.125299) rotate(15.000000) translate(-47.361691, -57.125299) "></path>
                            <path d="M21.6511402,7.56339938 C16.50903,7.56339938 12.3018489,12.5195893 12.3018489,18.5771548 L12.3018489,95.6734427 C12.3018489,101.731008 16.50903,106.687198 21.6511402,106.687198 L73.0722424,106.687198 C78.2143527,106.687198 82.4215337,101.731008 82.4215337,95.6734427 L82.4215337,18.5771548 C82.4215337,12.5195893 78.2143527,7.56339938 73.0722424,7.56339938 L21.6511402,7.56339938 Z M33.7273082,50.0450274 C34.8030313,50.0450274 35.6750772,48.9883789 35.6750772,47.684937 C35.6750772,46.381495 34.8030313,45.3248465 33.7273082,45.3248465 C32.6515851,45.3248465 31.7795392,46.381495 31.7795392,47.684937 C31.7795392,48.9883789 32.6515851,50.0450274 33.7273082,50.0450274 Z M60.9960745,50.0450274 C62.0717976,50.0450274 62.9438435,48.9883789 62.9438435,47.684937 C62.9438435,46.381495 62.0717976,45.3248465 60.9960745,45.3248465 C59.9203514,45.3248465 59.0483055,46.381495 59.0483055,47.684937 C59.0483055,48.9883789 59.9203514,50.0450274 60.9960745,50.0450274 Z M54.6718066,61.8454797 L59.0483055,61.8499707 C59.0400776,67.5699916 53.8280091,71.2738357 47.3610504,71.2858123 C40.8823578,71.2978107 35.6750772,67.6000298 35.6750772,61.8477252 L40.0515793,61.8477252 C40.0515793,65.401626 43.1432972,67.5971089 47.3514543,67.5893155 C51.5589639,67.5815233 54.6667324,65.3730546 54.6718066,61.8454797 Z" id="happy-file-copy-8" fill="url(#linearGradient-6)" transform="translate(47.361691, 57.125299) rotate(15.000000) translate(-47.361691, -57.125299) "></path>
                        </g>
                        <g id="happy-file-copy-4">
                            <use fill="black" fill-opacity="1" filter="url(#filter-8)" xlink:href="#path-7"></use>
                            <use fill="url(#linearGradient-1)" fill-rule="evenodd" xlink:href="#path-7"></use>
                        </g>
                        <g id="happy-file-copy-5">
                            <use fill="black" fill-opacity="1" filter="url(#filter-10)" xlink:href="#path-9"></use>
                            <use fill="url(#linearGradient-1)" fill-rule="evenodd" xlink:href="#path-9"></use>
                        </g>
                        <rect id="Rectangle-2" fill="#626262" x="11.7823706" y="88.3928571" width="41.1270691" height="38.8667908"></rect>
                        <g id="happy-file-copy-6">
                            <use fill="black" fill-opacity="1" filter="url(#filter-12)" xlink:href="#path-11"></use>
                            <use fill="url(#linearGradient-1)" fill-rule="evenodd" xlink:href="#path-11"></use>
                        </g>
                    </g>
                </g>
            </g>
        </g>
    </g>
</svg>