<?xml version="1.0" encoding="UTF-8"?>
<svg width="381px" height="355px" viewBox="0 0 381 355" version="1.1" xmlns="http://www.w3.org/2000/svg" xmlns:xlink="http://www.w3.org/1999/xlink">
    <!-- Generator: Sketch 59.1 (86144) - https://sketch.com -->
    <title>Logo_green</title>
    <desc>Created with Sketch.</desc>
    <g id="Logo_green" stroke="none" stroke-width="1" fill="none" fill-rule="evenodd">
        <rect id="Rectangle" fill-opacity="0" fill="#D8D8D8" x="0" y="0" width="381" height="353"></rect>
        <g id="Group-3" transform="translate(66.000000, 63.000000)">
            <g id="Group-2" transform="translate(0.000000, -0.000000)">
                <path d="M96.9320942,19.350298 C86.4878991,19.3635955 77.9309187,28.9178342 77.9165822,40.5819397 L77.734118,189.034191 C77.7197816,200.698296 86.2533023,210.230775 96.6974974,210.217478 L201.139449,210.084503 C211.583644,210.071205 220.140624,200.516967 220.154961,188.852861 L220.337425,40.4006102 C220.351762,28.7365048 211.818241,19.2040256 201.374046,19.217323 L96.9320942,19.350298 Z" id="Path" fill="#00AE8D" transform="translate(149.035772, 114.717400) rotate(20.000000) translate(-149.035772, -114.717400) "></path>
                <path d="M42.3700878,55.6822694 C31.7495771,55.6822694 23.0600684,65.2121097 23.0600684,76.8596923 L23.0600684,225.101652 C23.0600684,236.749235 31.7495771,246.279075 42.3700878,246.279075 L148.575194,246.279075 C159.195705,246.279075 167.885214,236.749235 167.885214,225.101652 L167.885214,76.8596923 C167.885214,65.2121097 159.195705,55.6822694 148.575194,55.6822694 L42.3700878,55.6822694 Z" id="Path-Copy-24" fill="#DFEAF3" transform="translate(95.472641, 150.979970) rotate(-90.000000) translate(-95.472641, -150.979970) "></path>
                <path d="M86.5514309,78.7420905 L56.7806672,160.225794 C52.8096701,171.094435 57.5270323,182.867785 67.2505755,186.392852 L165.439387,221.989148 C168.313237,223.031002 171.379083,223.262962 174.413062,222.705917 C177.971011,221.937377 181.239773,220.325458 183.908214,218.053003 C184.915442,217.180262 185.849052,216.209331 186.693954,215.153914 L186.883934,214.912168 C189.288022,211.742293 190.596746,207.994351 190.596746,204.082518 L190.596746,97.8773853 C190.596746,87.3573116 181.148677,78.7423612 169.594324,78.7423612 L86.5514309,78.7420905 Z" id="Combined-Shape-Copy" stroke="#FFFFFF" stroke-width="0.35" fill="#FFFFFF"></path>
                <path d="M86.5514309,78.7420905 L56.7806672,160.225794 C52.8096701,171.094435 57.5270323,182.867785 67.2505755,186.392852 L165.439387,221.989148 C168.313237,223.031002 171.379083,223.262962 174.413062,222.705917 C177.971011,221.937377 181.239773,220.325458 183.908214,218.053003 C184.915442,217.180262 185.849052,216.209331 186.693954,215.153914 L186.883934,214.912168 C189.288022,211.742293 190.596746,207.994351 190.596746,204.082518 L190.596746,97.8773853 C190.596746,87.3573116 181.148677,78.7423612 169.594324,78.7423612 L86.5514309,78.7420905 Z" id="Combined-Shape" stroke="#FFFFFF" stroke-width="0.35"></path>
            </g>
        </g>
    </g>
</svg>