<?xml version="1.0" encoding="UTF-8"?>
<svg width="114px" height="116px" viewBox="0 0 114 116" version="1.1" xmlns="http://www.w3.org/2000/svg" xmlns:xlink="http://www.w3.org/1999/xlink">
    <!-- Generator: Sketch 51.2 (57519) - http://www.bohemiancoding.com/sketch -->
    <title>QR</title>
    <desc>Created with Sketch.</desc>
    <defs>
        <polygon id="path-1" points="0 116 114 116 114 0 0 0"></polygon>
    </defs>
    <g id="Symbols" stroke="none" stroke-width="1" fill="none" fill-rule="evenodd">
        <g id="modules-/-donate" transform="translate(-762.000000, -112.000000)">
            <g id="Donate">
                <g id="QR" transform="translate(762.000000, 112.000000)">
                    <polygon id="Clip-2" points="25.3757391 12.2526291 113.778743 12.2526291 113.778743 114.97458 25.3757391 114.97458"></polygon>
                    <path d="M109.004415,108.733186 C108.259599,108.358225 107.921499,107.143028 107.109063,105.828383 C109.359918,105.663989 110.69094,105.09825 110.734197,107.205944 C110.761544,108.572851 110.017722,109.244634 109.004415,108.733186 Z M104.862683,105.627964 C104.686672,104.62993 104.533035,103.755191 104.357024,102.756649 C103.54608,102.650097 102.745577,102.544053 101.641281,102.398432 L101.641281,87.2767128 C100.539968,87.1173926 99.7334989,87.0012005 98.7415715,86.8581167 L98.7415715,84.0451512 C99.5455547,83.9152596 100.41318,83.7757276 101.43146,83.6108261 L101.43146,80.8313483 C100.536488,80.7471217 99.7339961,80.6705059 98.7445547,80.5776537 L98.7445547,77.5840576 C100.650348,77.5840576 102.511393,77.5840576 104.369454,77.5810133 C104.483315,78.4674222 104.598666,79.3599197 104.742359,80.4787128 C105.539879,80.589831 106.406013,80.711097 107.567985,80.873969 C107.61522,81.6832547 107.666432,82.5539345 107.724605,83.5570429 C106.689918,83.7168704 105.820303,83.8513286 104.767717,84.0142005 L104.767717,89.8435946 C105.625896,89.9876931 106.50446,90.134836 107.550583,90.3093778 L107.550583,93.0873335 C106.625778,93.2294025 105.754672,93.3633532 104.740868,93.5191217 L104.740868,96.1225355 C105.621421,96.2524271 106.494516,96.3807966 107.549091,96.5360576 C107.667923,97.4006488 107.789739,98.2860429 107.926968,99.2840773 C108.766253,99.3951956 109.558303,99.5002251 110.526365,99.6285946 L110.526365,102.430398 C109.673655,102.530861 108.87713,102.624728 107.978678,102.730265 C107.843437,103.5842 107.713666,104.403127 107.540141,105.500102 C106.737153,105.538664 105.876488,105.579762 104.862683,105.627964 Z M95.6474542,111.698368 L101.43146,111.698368 L101.43146,109.012757 L95.6474542,109.012757 L95.6474542,111.698368 Z M89.5889905,105.428053 L95.4097894,105.428053 L95.4097894,102.744979 L89.5889905,102.744979 L89.5889905,105.428053 Z M89.5591581,99.3003138 L98.3999905,99.3003138 L98.3999905,90.2429099 L89.5591581,90.2429099 L89.5591581,99.3003138 Z M92.652281,86.8119443 L95.3023927,86.8119443 L95.3023927,83.9112005 L92.652281,83.9112005 L92.652281,86.8119443 Z M89.2290128,74.6797621 L86.6012754,74.6797621 C86.4506218,75.6057473 86.3054374,76.4931709 86.1393704,77.5099788 L83.3525268,77.5099788 L83.3525268,68.4698261 L86.1453369,68.4698261 C86.2825659,69.4090034 86.4123369,70.2999788 86.5624933,71.3330232 L89.2866888,71.3330232 L89.2866888,65.1667227 L92.4891972,65.1667227 L92.4891972,71.3167867 C93.5780799,71.4456635 94.3731134,71.5400379 95.3600687,71.6572448 C95.4043201,72.5081365 95.4465827,73.3138704 95.4963034,74.2535552 C94.4984095,74.4316488 93.6377447,74.5848803 92.6284151,74.7644961 C92.5906274,75.6032103 92.5543313,76.4185847 92.5110743,77.378565 C93.4836106,77.55057 94.3422866,77.7022793 95.3734933,77.884432 C95.4092922,78.7048803 95.4450911,79.5116291 95.4888453,80.5106783 L89.4950184,80.5106783 C89.4080073,78.6003581 89.3214933,76.7037374 89.2290128,74.6797621 Z M87.8179402,111.877984 C87.3406218,111.386324 86.5659737,110.94591 86.4724989,110.387274 C86.3859849,109.873289 87.0323536,109.231442 87.7175045,107.99189 C88.5418732,109.142141 89.3249737,109.776378 89.2290128,110.206644 C89.0873089,110.840373 88.3191246,111.327974 87.8179402,111.877984 Z M83.0795603,87.3599246 L83.0795603,93.3481315 L80.115214,93.3481315 L80.115214,96.3934813 L77.373119,96.3934813 C77.2373816,97.4285552 77.1220296,98.3129345 76.9892754,99.3256833 L71.3385212,99.3256833 L71.3385212,93.3339246 L77.1384374,93.3339246 L77.1384374,87.2625059 C78.1890352,87.1092744 78.9964989,86.9915601 79.9491469,86.8530429 C80.0659905,85.9534419 80.1808453,85.0655108 80.3200631,83.9949197 L86.1726832,83.9949197 C86.227376,84.8503778 86.2825659,85.7154764 86.3467056,86.7251808 C85.2498676,86.9382842 84.3131302,87.1204369 83.0795603,87.3599246 Z M86.1682084,105.58991 C85.1071693,105.51025 84.0416553,105.431097 82.9726609,105.347885 C83.0606665,103.474097 83.1496665,101.598787 83.2431413,99.6250429 C82.1159737,99.516969 81.3184542,99.4403532 80.1813425,99.3312645 L80.1813425,96.4584271 C81.1126106,96.3701414 82.0483536,96.2808409 83.1645827,96.1747966 L83.1645827,93.4364172 L86.1682084,93.4364172 L86.1682084,105.58991 Z M71.2679179,89.8517128 L73.9354318,89.8517128 L73.9354318,87.2036488 L71.2679179,87.2036488 L71.2679179,89.8517128 Z M71.2455436,80.8886833 C72.1251022,80.7724911 72.9236162,80.6669542 74.2233145,80.4949493 L74.2233145,74.645767 L79.9665492,74.645767 L79.9665492,77.472432 C79.1372084,77.577969 78.3416777,77.6789394 77.2343983,77.8199936 L77.2343983,86.8647128 L74.2571246,86.8647128 C74.1502251,85.8463828 74.0577447,84.9584517 73.9553201,83.9817276 C72.971348,83.8777128 72.1067056,83.7858754 71.2450464,83.6945453 C71.2455436,82.8030626 71.2455436,81.9090429 71.2455436,80.8886833 Z M71.0297559,86.829703 L68.3761637,86.829703 C67.6134486,83.9117079 67.6124542,83.8924271 71.1784207,83.7559394 C71.1316832,84.7199788 71.0844486,85.68757 71.0297559,86.829703 Z M68.1698229,105.443782 L70.9855045,105.443782 L70.9855045,102.734831 L68.1698229,102.734831 L68.1698229,105.443782 Z M66.3361246,90.086634 C64.2687391,90.0338655 64.8474877,88.6689887 65.0011246,86.3710232 C66.2978397,87.2183631 67.4851693,87.5715059 67.8481302,88.3336044 C68.3503089,89.3889739 67.6581972,90.1196143 66.3361246,90.086634 Z M64.5780017,71.7881512 C66.6573201,71.6308606 68.7411134,71.4690034 70.948214,71.2975059 C71.0978732,69.1025404 71.2420631,66.9882498 71.3857559,64.8749739 C72.1718397,64.9713778 72.9584207,65.0733631 73.8837223,65.1931069 C74.0085212,66.0663236 74.1348117,66.9522251 74.301376,68.117698 C76.1022587,68.2044616 77.9459011,68.2932547 79.9630687,68.390166 L79.9630687,71.4218163 L74.1556944,71.4218163 L74.1556944,74.5767621 C73.2786218,74.5772695 72.3985659,74.5772695 71.3852587,74.5772695 C71.2331134,75.5418163 71.0953872,76.4195995 70.9298173,77.4714172 L64.9847168,77.4714172 C64.8464933,75.5423236 64.7122475,73.6649837 64.5780017,71.7881512 Z M58.9466385,86.8383286 L64.6177782,86.8383286 L64.6177782,83.9269296 L58.9466385,83.9269296 L58.9466385,86.8383286 Z M55.8545101,80.8191709 L55.8545101,86.8190478 L52.9070687,86.8190478 C52.8001693,85.9245207 52.6947615,85.0381118 52.5724486,84.0172448 C51.6461525,83.888368 50.7780296,83.7676094 49.7547782,83.6255404 L49.7547782,80.8521512 C50.7302978,80.7374813 51.5984207,80.6354961 52.6773592,80.5086488 L52.6773592,74.6873729 L55.6362363,74.6873729 C55.7262307,72.6451315 55.8162251,70.601368 55.912186,68.4251759 L58.548376,68.4251759 C58.6706888,69.3100626 58.7930017,70.1919049 58.9456441,71.2990281 C59.8247056,71.3857916 60.7465268,71.4766143 61.6688453,71.5679443 C61.6678508,74.4813729 61.6678508,77.3963236 61.6678508,80.5604025 C59.8033257,80.6431069 57.9532196,80.7258113 55.8545101,80.8191709 Z M52.5858732,68.4277128 L52.5858732,71.3614369 C51.6590799,71.4091315 50.8665324,71.4507374 49.8273704,71.5050281 L49.8273704,68.4277128 L52.5858732,68.4277128 Z M49.576281,55.8749049 L52.7723257,55.8749049 L52.7723257,58.8426241 L49.7388676,58.8426241 C49.6841749,57.8527079 49.6404207,57.0520478 49.576281,55.8749049 Z M52.5366497,36.8970281 L49.6493704,36.8970281 L49.6493704,31.2051365 C48.5773927,31.0062399 47.7296553,30.8489493 46.757119,30.6678113 L46.757119,27.8523089 L52.619186,27.8523089 C52.7121637,28.9665355 52.7753089,29.7179788 52.8518788,30.634831 C53.7214933,30.7834961 54.5821581,30.9311463 55.6108788,31.1072103 L55.6108788,33.8049985 C54.6905492,33.896836 53.8875603,33.9775108 52.9493313,34.0713778 C52.8155827,34.9851857 52.6868061,35.8685502 52.5366497,36.8970281 Z M47.9354989,46.3288852 C47.1593592,45.9787867 46.7496609,44.7818557 46.1758844,43.9634369 C46.4672475,43.7335897 46.7581134,43.503235 47.0489793,43.2733877 C48.0364318,43.4190084 49.4683872,42.5346291 49.5668341,44.6986438 C49.6240128,45.9589985 49.0691302,46.8398261 47.9354989,46.3288852 Z M40.6509235,43.0095453 L40.6509235,40.3381414 C41.5056218,40.2371709 42.3066218,40.1427966 43.2627503,40.0306635 L43.2627503,33.9866438 L40.4013257,33.9866438 L40.4013257,30.9407867 L37.4300184,30.9407867 L37.4300184,27.9431315 C36.3650017,27.7696044 35.4988676,27.6280429 34.4915268,27.4636488 L34.4915268,24.8475502 C35.3283257,24.720703 36.1820296,24.5913187 37.2500296,24.4289542 C37.3082028,23.4070724 37.3668732,22.3846833 37.4250464,21.3628015 L40.4033145,21.3628015 L40.4033145,18.3281069 L43.1697726,18.3281069 C43.3239067,19.2987424 43.4636218,20.1780478 43.6286944,21.2166734 C44.5002978,21.3298212 45.3704095,21.4424616 46.3981358,21.5764123 L46.3981358,24.5791414 L40.5947391,24.5791414 L40.5947391,27.4195059 C41.4807615,27.5803483 42.3434151,27.7366241 43.2965603,27.9096438 C43.377605,28.799097 43.4531804,29.625634 43.5491413,30.6820182 C44.4098061,30.7997325 45.2789235,30.918969 46.3668117,31.0681414 L46.3668117,43.0095453 L40.6509235,43.0095453 Z M34.5506944,33.8526931 L34.5506944,31.0209542 L37.3549402,31.0209542 C37.3549402,32.0113778 37.3549402,33.0012941 37.3554374,33.9917177 C36.4863201,33.9485897 35.6132251,33.9049542 34.5506944,33.8526931 Z M46.740214,21.2055108 L49.3818732,21.2055108 L49.3818732,18.444299 L46.740214,18.444299 L46.740214,21.2055108 Z M55.7515883,43.100368 L52.9458508,43.100368 L52.9458508,40.310235 C53.8855715,40.2503631 54.8188285,40.1904911 55.7520855,40.1306192 C55.7515883,41.1205355 55.7515883,42.1104517 55.7515883,43.100368 Z M55.748605,58.9136586 L55.748605,68.0984172 C54.7616497,68.1440823 53.9168955,68.1831512 52.8483983,68.2328754 L52.8483983,58.9136586 L55.748605,58.9136586 Z M52.8508844,55.7982892 C52.8488955,54.8083729 52.8469067,53.8184567 52.8444207,52.8285404 L55.7530799,52.8285404 L55.7530799,55.7987966 C54.7860128,55.7987966 53.8184486,55.7987966 52.8508844,55.7982892 Z M58.7949905,55.9119443 L58.7949905,58.8446537 L55.8207,58.8446537 L55.8207,55.8733828 C56.811633,55.8860675 57.8025659,55.8982448 58.7949905,55.9119443 Z M64.6814207,43.1820576 L64.6814207,46.3750576 L58.9968564,46.3750576 C58.8496832,47.4750773 58.7427838,48.2762448 58.608538,49.2829049 L52.9234765,49.2829049 L52.9234765,46.6333187 C53.8159626,46.5110379 54.6199458,46.4004271 55.6422028,46.2603877 C55.7023648,45.2283581 55.7620296,44.2044468 55.8216944,43.1805355 C58.7751022,43.1810429 61.7285101,43.1815502 64.6814207,43.1820576 Z M55.8241804,37.2253089 L67.7815045,37.2253089 C67.9013313,38.1320133 68.0102196,38.9549985 68.1658453,40.1321414 L74.1581804,40.1321414 C74.2193369,41.0626931 74.2809905,41.9942596 74.3421469,42.9253187 C71.1570408,42.9750429 67.9624877,43.0344074 64.7679346,43.0937719 L64.7679346,40.0656734 L55.8241804,40.0656734 L55.8241804,37.2253089 Z M74.2213257,40.0631365 L76.985795,40.0631365 L76.985795,37.2506783 L74.2213257,37.2506783 L74.2213257,40.0631365 Z M77.1911413,46.2456734 C76.2215883,46.3131562 75.3758397,46.3715059 74.1263592,46.4577621 C74.2238117,45.1618901 74.3058508,44.0715108 74.3878899,42.9841759 C75.1699961,43.1140675 75.9565771,43.2449739 77.0245771,43.4225601 C77.0698229,44.2029246 77.1215324,45.0736044 77.1911413,46.2456734 Z M74.0448173,49.6872941 L77.019605,49.6872941 L77.019605,52.5093926 C76.0833648,52.6631315 75.2351302,52.8026635 74.3938564,52.9482842 C74.2844709,51.9253877 74.1745883,50.898432 74.0448173,49.6872941 Z M71.2385827,55.7987966 C71.2375883,54.8109099 71.2370911,53.8235305 71.2365939,52.8356438 C72.2707838,52.8980527 73.3054709,52.9599542 74.3396609,53.0223631 C74.3217615,53.9158754 74.2988899,54.8038064 74.2794989,55.6881857 C73.2656944,55.7252251 72.2518899,55.7622645 71.2385827,55.7987966 Z M64.7644542,52.7605502 L64.7644542,46.6434665 L67.7283034,46.6434665 C67.8655324,47.4801512 67.9962978,48.2813187 68.1539123,49.2423138 C68.9897168,49.3823532 69.853862,49.5269591 70.9949514,49.7177374 C71.0506385,50.7086685 71.1083145,51.7346094 71.1664877,52.7605502 L64.7644542,52.7605502 Z M58.863605,55.8469985 C58.8650966,53.8128754 58.8650966,51.7762153 58.8650966,49.6294517 L61.5778564,49.6294517 C61.7135939,50.5331118 61.8443592,51.4058212 62.0114207,52.519033 C62.8715883,52.6169591 63.784957,52.7209739 64.6993201,52.8249887 C64.6988229,53.8174419 64.6983257,54.8098951 64.6973313,55.8018409 C62.7532531,55.8165552 60.8081804,55.8317768 58.863605,55.8469985 Z M67.7228341,62.1015847 L65.0175324,62.1015847 C64.9086441,63.045836 64.8002531,63.9865355 64.691862,64.9267276 C63.8267223,65.0170429 62.9595939,65.1083729 61.9776106,65.2108655 C61.8761804,66.1982448 61.7841972,67.0861759 61.6792866,68.101969 L58.9719961,68.101969 L58.9719961,62.2477128 C59.751119,62.1132547 60.609795,61.9656044 61.6260855,61.7905552 C61.7439235,60.946767 61.8672307,60.065432 62.0079402,59.0567424 C62.8437447,58.9517128 63.6367894,58.8522645 64.7669402,58.7112103 L64.7669402,55.8688163 L71.1694709,55.8688163 C71.2122307,58.8441463 71.2544933,61.818969 71.3017279,64.7897325 C70.298862,64.8825847 69.2945045,64.9759443 68.2095994,65.0764074 C68.025633,63.9505108 67.881443,63.0722202 67.7228341,62.1015847 Z M64.792795,68.2592596 C64.6963369,69.5419394 64.6142978,70.6353631 64.5277838,71.7298015 C63.5975101,71.6597818 62.6672363,71.5892547 61.7364654,71.5182202 C61.8025939,70.5491069 61.8697168,69.5764419 61.9492698,68.4251759 C62.8328061,68.3734222 63.6154095,68.3277571 64.792795,68.2592596 Z M64.7535156,64.9886291 C65.6982084,65.036831 66.647376,65.0845256 67.7650966,65.1408458 L67.7650966,68.1146537 C66.9014486,68.1552448 66.0462531,68.1953286 64.9583648,68.2465749 C64.8837838,67.0542103 64.8186497,66.0201512 64.7535156,64.9886291 Z M80.1385827,58.7122251 L74.1223816,58.7122251 C74.2064095,57.6426488 74.2799961,56.6983975 74.3540799,55.7571906 C76.1420352,55.7536389 77.9304877,55.7531315 79.999862,55.7531315 C80.0500799,56.8140823 80.0903536,57.6751217 80.1385827,58.7122251 Z M83.3465603,55.9763828 C84.2375547,55.9312251 85.0932475,55.888097 86.1030743,55.8368507 C86.2741134,56.863299 86.419795,57.7415897 86.585862,58.7406389 L92.3624095,58.7406389 L92.3624095,56.0545207 C91.4624654,55.9236143 90.5938453,55.796767 89.5497112,55.6450576 L89.5497112,52.7153926 L95.3048788,52.7153926 C95.4247056,51.6199394 95.5147,50.8020281 95.6385045,49.6695355 C96.4404989,49.6177818 97.2961916,49.5624764 98.2965715,49.4980379 C98.4447391,50.5356488 98.572024,51.4256094 98.7216832,52.4779345 C99.5480408,52.6129 100.413678,52.7534468 101.484164,52.9284961 L101.484164,55.7987966 L95.7115939,55.7987966 L95.7115939,58.9136586 L101.490627,58.9136586 L101.490627,61.7971512 C100.460912,61.9442941 99.606214,62.0665749 98.7540017,62.1888557 L98.7540017,65.000299 L104.466907,65.000299 C104.543974,65.9699197 104.622035,66.9425847 104.707555,68.0218015 C105.621421,68.1669148 106.494018,68.3049246 107.503348,68.4652596 C107.644555,69.3450724 107.785761,70.2289443 107.956303,71.2944616 C108.721504,71.404565 109.504108,71.5172054 110.499516,71.6613039 L110.499516,74.3393039 C109.675147,74.4585404 108.883594,74.5732103 107.978678,74.7041167 C107.831007,75.6067621 107.684828,76.4931709 107.520253,77.4952645 L104.43608,77.4952645 C104.433097,75.6021956 104.433097,73.7086192 104.433097,71.5106094 L98.7321246,71.5106094 C98.5934039,70.310634 98.4899849,69.4150921 98.3791078,68.4606931 C97.4901022,68.3363828 96.6821413,68.2227276 95.5907726,68.0700034 L95.5907726,62.1984961 L89.5969458,62.1984961 C89.4502698,63.0245256 89.2921581,63.912964 89.1196274,64.8856291 L83.3465603,64.8856291 L83.3465603,55.9763828 Z M98.7405771,49.3382103 L101.399141,49.3382103 L101.399141,46.6054123 L98.7405771,46.6054123 L98.7405771,49.3382103 Z M101.559739,55.8667867 C102.494985,55.8343138 103.429734,55.8013335 104.361499,55.7653089 C104.394812,56.7912498 104.428622,57.8166833 104.461935,58.8431315 C103.494868,58.8431315 102.527303,58.8431315 101.559739,58.8436389 L101.559739,55.8667867 Z M107.522242,58.9192399 C107.667923,59.9461956 107.793717,60.8341266 107.930946,61.7986734 C108.77918,61.9239985 109.571728,62.0412054 110.563655,62.1873335 C110.611884,63.0295995 110.658125,63.8327966 110.720275,64.9120133 L104.544968,64.9120133 C104.543974,62.9139148 104.543477,60.916831 104.542979,58.9192399 L107.522242,58.9192399 Z M110.948991,111.686698 L110.948991,109.073136 C112.02246,108.883373 112.893566,108.729127 113.700035,108.586043 L113.700035,87.2640281 C112.649935,87.0783236 111.784298,86.9261069 110.752594,86.7439542 C110.809275,85.7266389 110.857504,84.8574813 110.903745,84.0248557 C112.031907,83.8350921 112.890085,83.6909936 113.758706,83.5448655 L113.758706,52.9203778 C112.761806,52.7909936 111.881253,52.6763236 110.929599,52.5525207 C110.805298,51.6006586 110.687957,50.7030872 110.554706,49.6812054 L107.748471,49.6812054 C107.794214,50.7568704 107.832996,51.6422645 107.87327,52.5809345 C108.88956,52.6920527 109.681113,52.7788163 110.526862,52.8711611 L110.526862,58.7309985 L107.967242,58.7309985 C107.782778,57.7131759 107.622678,56.8323483 107.464069,55.9611611 C106.356292,55.8596833 105.394197,55.7719049 104.43608,55.6841266 C104.373929,50.4235158 104.314761,45.1659493 104.256091,39.9083828 C103.41432,40.0814025 102.579013,40.2594961 101.724315,40.4416488 C101.619404,41.3859 101.530404,42.1911266 101.442398,42.9836685 L92.801443,42.9836685 C92.6373648,44.0329493 92.4727894,45.0832448 92.2967782,46.2035601 C91.3371693,46.3836833 90.398443,46.5597473 89.2856944,46.7687916 L89.2856944,52.5129443 L80.3757503,52.5129443 L80.3757503,43.3784172 C81.4019849,43.2449739 82.2019905,43.1404517 83.1829793,43.0125897 C83.131767,42.0160773 83.0870184,41.1560527 83.0447559,40.34423 C81.9474207,40.2001315 81.1518899,40.0961167 80.1728899,39.9677473 L80.1728899,34.1363236 C78.2059402,34.0170872 76.2345156,33.8948064 74.097024,33.7618704 C74.1711078,32.7460773 74.229281,31.9504911 74.286957,31.161501 C73.3014933,31.0940182 72.3075771,31.021969 71.0789793,30.9331759 L71.0789793,36.9092054 L67.9654709,36.9092054 L67.9654709,31.0625601 L65.0215101,31.0625601 C64.8459961,32.0742941 64.6953425,32.9424369 64.5491637,33.7857177 L58.7577,33.7857177 L58.7577,27.9208064 C57.6409737,27.7315502 56.782795,27.5859296 55.9499737,27.4453828 C55.8137391,26.4514074 55.702862,25.6466882 55.5566832,24.5811709 L49.7388676,24.5811709 L49.7388676,21.561698 C50.7407391,21.4414468 51.611348,21.337432 52.554052,21.2247916 L52.554052,18.4788015 C51.5138955,18.3306438 50.6412978,18.2063335 49.5956721,18.0576685 C49.648376,17.0758704 49.6946162,16.2122941 49.7378732,15.4106192 C50.908795,15.2553581 51.7729402,15.1406882 52.7509458,15.0107966 C52.6932698,13.9747079 52.6485212,13.1644074 52.5992978,12.2810429 L49.7682028,12.2810429 C49.6225212,13.3019099 49.4962307,14.1862892 49.3659626,15.1006044 L46.8108173,15.1006044 C46.6442531,14.0843039 46.4990687,13.1963729 46.3444374,12.2526291 L43.3885436,12.2526291 L43.3885436,15.1087227 C42.2922028,15.1696094 41.345024,15.2218704 40.4018229,15.2741315 C40.3769626,16.2681069 40.351605,17.2620823 40.3262475,18.256565 C39.4024374,18.3118704 38.4771358,18.3676833 37.4807335,18.4275552 C37.4344933,19.5184419 37.3962084,20.403836 37.3584207,21.2841562 L34.4507559,21.3622941 C34.3528061,22.394831 34.253862,23.4334567 34.131052,24.7257768 L25.3757391,24.7257768 L25.3757391,27.7345946 L31.2079737,27.7345946 L31.2079737,37.0456931 L25.4085547,37.0456931 L25.4085547,46.3283778 C27.4640073,46.4222448 29.3220687,46.5069788 31.1766497,46.5912054 L31.1766497,49.2905158 C30.142957,49.4417177 29.269862,49.5695798 28.3614654,49.7025158 L28.3614654,52.5413581 C29.385214,52.6773384 30.2568173,52.7930232 31.1657112,52.9137818 C31.3148732,53.9803138 31.4501134,54.945368 31.5843592,55.9083926 L37.2291469,55.9083926 L37.2291469,52.9274813 C36.2218061,52.7620724 35.362633,52.6210182 34.251376,52.4383581 L34.251376,46.6657916 C33.185862,46.5024123 32.387348,46.3796241 31.569443,46.2537916 L31.569443,40.3411857 C32.5723089,40.1986094 33.361376,40.0869837 34.1429849,39.9758655 C34.3055715,38.9377473 34.4428006,38.0630084 34.6048899,37.0269197 L37.3569291,37.0269197 C37.3798006,36.0364961 37.4031693,35.0460724 37.4260408,34.0556488 C38.3945994,34.0551414 39.3626609,34.0541266 40.3312196,34.0536192 L40.3312196,36.9229049 C39.3119458,36.9817621 38.3687447,37.0365601 37.4275324,37.0913581 L37.4275324,46.196964 C38.6064095,46.4065158 39.4621022,46.5587325 40.2695659,46.702831 C40.4122642,47.6770182 40.529605,48.4771709 40.6877168,49.5568951 L52.6231637,49.5568951 C52.6823313,50.8172498 52.7280743,51.7914369 52.7733201,52.7595355 L40.4266832,52.7595355 C40.4948006,53.9914764 40.5430296,54.8545453 40.6007056,55.8967227 L46.3802363,55.8967227 L46.3802363,58.9380133 L40.5519793,58.9380133 C40.4948006,60.0999345 40.4510464,60.9954764 40.4072922,61.8859443 C41.270443,61.9534271 42.1440352,62.0214172 43.3885436,62.118836 L43.3885436,64.9241906 L46.3310128,64.9241906 C46.4990687,63.9860281 46.6556888,63.1107818 46.8063425,62.2685158 C49.826376,61.800703 50.1893369,62.6592054 49.280443,68.0557966 C48.5366218,68.1730034 47.7510352,68.2957916 46.8247391,68.4409049 C46.6860184,69.3278212 46.547795,70.207634 46.3757615,71.3061315 C45.3927838,71.4025355 44.3909123,71.5004616 43.3880464,71.5983877 L43.3880464,74.3438704 C42.2136441,74.5113089 41.434024,74.6224271 40.6121413,74.739634 C40.4828676,75.7356389 40.3695045,76.6063187 40.2571358,77.4683729 C39.2448229,77.6200823 38.3916162,77.7474369 37.4275324,77.8915355 L37.4275324,80.6608655 L43.1981134,80.6608655 C43.3442922,79.6785601 43.4740631,78.8063581 43.6247168,77.790565 C44.4868732,77.7377966 45.2858844,77.6890872 46.3379737,77.6251562 L46.3379737,83.7716685 L37.4295212,83.7716685 L37.4295212,86.8398507 C38.5646441,86.9961266 39.3696218,87.1072448 40.2427168,87.2274961 L40.2427168,90.1759345 L31.538119,90.1759345 L31.538119,93.1512645 C32.4962363,93.2745601 33.2897782,93.3765453 34.1230966,93.4836044 C34.2856832,94.4593138 34.4313648,95.3315158 34.5869905,96.2651118 C35.6037782,96.3112842 36.481348,96.3508606 37.3554374,96.3904369 L37.3554374,93.3481315 L40.3282363,93.3481315 C40.4246944,92.3201611 40.5216497,91.292698 40.6176106,90.2703089 C41.6080464,90.1196143 42.4090464,89.9983483 43.2632475,89.8684567 C43.3731302,88.9779887 43.4745603,88.1615995 43.5834486,87.2777276 C44.6012307,87.0950675 45.5364765,86.9271217 46.4105659,86.7703384 C46.567186,85.7068507 46.6964598,84.8265305 46.8456218,83.812767 C47.8037391,83.8594468 48.5868397,83.8969936 49.3773983,83.9355552 C49.528052,85.0381118 49.6493704,85.9295946 49.7741693,86.8439099 C50.7820073,86.9895305 51.6541078,87.1158704 52.5863704,87.2503286 C52.6897894,88.1600773 52.7822698,88.9764665 52.8896665,89.919703 L55.5855212,89.919703 C55.7491022,88.9013729 55.8888173,88.0306931 56.0494151,87.033166 C57.0015659,87.0976044 57.7886441,87.1508803 58.6120184,87.2061857 C58.7333369,88.1996537 58.832281,89.010969 58.9396777,89.8892596 C59.8918285,90.0313286 60.7594542,90.1607128 61.7817112,90.3134369 L61.7817112,93.3516833 L64.7644542,93.3516833 L64.7644542,96.3960182 L67.7561469,96.3960182 L67.7561469,99.3424271 C66.7617335,99.3951956 65.7643369,99.4474567 64.7669402,99.5007325 L64.7669402,102.427353 C63.6934709,102.550141 62.8979402,102.641471 62.019376,102.741934 L62.019376,105.72792 L67.7631078,105.72792 L67.7631078,108.640841 C66.707538,108.817412 65.8384207,108.962526 64.9633369,109.109161 L64.9633369,111.737944 L67.7735492,111.737944 C67.9142587,110.782023 68.0335883,109.9702 68.1608732,109.10155 L74.1447559,109.10155 C74.0617223,110.146772 73.9990743,110.93221 73.9389123,111.689235 C72.9002475,111.866314 72.1062084,112.001787 71.3022251,112.139289 L71.3022251,114.925363 L80.2618899,114.925363 L80.2618899,105.826861 C81.3318788,105.657393 82.1254207,105.530545 82.9139905,105.40522 C83.0656385,108.55154 83.2222587,111.70192 83.3853425,114.97458 L89.1514486,114.97458 C89.299119,113.945087 89.4269011,113.054619 89.566119,112.079417 L95.3098508,112.079417 C95.4500631,113.127683 95.5688955,114.013585 95.6936944,114.943122 L104.31327,114.943122 C104.431108,114.599619 104.527069,114.442836 104.532041,114.283516 C104.560382,113.354486 104.57132,112.424442 104.579275,111.494905 C104.602644,108.639826 104.808985,108.487609 107.632125,109.33292 C107.717644,111.199604 107.804655,113.096225 107.887689,114.912678 L113.779091,114.912678 L113.779091,112.144363 C112.806058,111.987072 111.927493,111.845003 110.948991,111.686698 Z" id="Fill-1" fill="#005EA5"></path>
                    <path d="M80,34 L80,34.073 C80.024,34.0745 80.0485,34.076 80.0725,34.0775 C80.0705,34.0745 80,34 80,34" id="Fill-4" fill="#005EA5"></path>
                    <path d="M92,43.0555 L92.0525,43.0555 C92.0555,43.037 92.059,43.0185 92.062,43 L92,43.0555 Z" id="Fill-6" fill="#005EA5"></path>
                    <path d="M43.0875,12.0855 L43.0875,12 C43.0585,12 43.029,12 43,12 L43,12.0855 L43.0875,12.0855 Z" id="Fill-8" fill="#005EA5"></path>
                    <path d="M104,41 C104.0005,41.017 104.0005,41.0335 104.001,41.0505 C104.014,41.0475 104.028,41.0445 104.0415,41.042 C104.0485,41.0475 104,41 104,41" id="Fill-10" fill="#005EA5"></path>
                    <polygon id="Fill-12" fill="#005EA5" points="62.0665 94.071 62.0665 94.071 62.0665 94 62 94 62 94.071"></polygon>
                    <path d="M37,97 L37,97.073 C37.022,97.0715 37.044,97.0695 37.0665,97.0675 L37.0665,97.003 C37.044,97.002 37.022,97.001 37,97" id="Fill-14" fill="#005EA5"></path>
                    <path d="M40.0765,63.006 C40.051,63.004 40.0255,63.002 40,63 L40.074,63.0615 C40.075,63.043 40.0755,63.0245 40.0765,63.006" id="Fill-16" fill="#005EA5"></path>
                    <path d="M37.073,82 L37,82 L37,82.0655 C37.0245,82.0665 37.0485,82.067 37.073,82.068 L37.073,82 Z" id="Fill-18" fill="#005EA5"></path>
                    <mask id="mask-2" fill="white">
                        <use xlink:href="#path-1"></use>
                    </mask>
                    <g id="Clip-21"></g>
                    <path d="M3.11001557,111.873069 L18.8173326,111.873069 L18.8173326,97.0242381 L3.11001557,97.0242381 L3.11001557,111.873069 Z M0,115 L22,115 L22,94 L0,94 L0,115 Z" id="Fill-20" fill="#005EA5" mask="url(#mask-2)"></path>
                    <path d="M94.9955985,18.0341595 L109.85979,18.0341595 L109.85979,3.03593495 L94.9955985,3.03593495 L94.9955985,18.0341595 Z M92,21 L113,21 L113,0 L92,0 L92,21 Z" id="Fill-22" fill="#005EA5" mask="url(#mask-2)"></path>
                    <path d="M3.00156261,18.7773377 L17.9800412,18.7773377 L17.9800412,3.10803037 L3.00156261,3.10803037 L3.00156261,18.7773377 Z M0,22 L21,22 L21,0 L0,0 L0,22 Z" id="Fill-23" fill="#005EA5" mask="url(#mask-2)"></path>
                    <path d="M31.0785,56.068 C31.075,56.0455 31.072,56.0225 31.0685,56 L31,56 L31.0785,56.068 Z" id="Fill-24" fill="#005EA5" mask="url(#mask-2)"></path>
                    <path d="M37.0015,38 C37.001,38.0225 37.0005,38.045 37,38.068 C37.024,38.0665 37.0485,38.065 37.0725,38.0635 L37.0725,38 L37.0015,38 Z" id="Fill-25" fill="#005EA5" mask="url(#mask-2)"></path>
                    <path d="M22,63 C22.001,63.029 22.0025,63.0585 22.004,63.0875 L22.0855,63.0875 L22.0855,63 L22,63 Z" id="Fill-26" fill="#005EA5" mask="url(#mask-2)"></path>
                    <path d="M12.1371174,68.5349018 C12.2322502,67.2155746 12.3123365,66.1043171 12.3963058,64.9920245 C13.158339,65.1245265 13.9257112,65.2580638 14.9658622,65.4392189 C15.0110018,66.2352664 15.060995,67.1229267 15.1284616,68.3190683 C14.1824727,68.3873897 13.3568559,68.4469121 12.1371174,68.5349018 Z M11.9793717,74.7552523 C11.1838479,74.8173627 10.4193879,74.8774027 9.32050694,74.963322 L9.32050694,71.9292319 L11.9793717,71.9292319 L11.9793717,74.7552523 Z M20.8160442,71.7232326 L20.8160442,68.7357252 C19.8142376,68.5597459 18.9803694,68.413269 18.0164217,68.2440184 C18.0654442,67.1808964 18.1067008,66.2932361 18.1455305,65.4485355 C19.2303357,65.2570286 20.0637185,65.1105517 21,64.9454417 C20.9558312,63.8911187 20.9184576,62.9874132 20.8815694,62.0878485 L18.151355,62.0878485 C18.0911689,60.9496765 18.0392342,59.96471 17.9868141,58.9844018 C17.0801402,58.9228091 16.1724956,58.8612163 15.2323311,58.7975532 C15.1338007,57.7644512 15.0551706,56.9425244 14.9653768,56 L12.3511662,56 L12.3511662,64.9268086 C9.23702306,65.0106576 6.11851153,65.0996824 3,65.1887072 C3.0611568,66.2290554 3.12279898,67.2735443 3.19657543,68.5317963 C4.82159903,68.5317963 6.24228125,68.518339 7.66296346,68.5343842 C10.1946609,68.5638866 8.87153836,70.6637337 9.23508157,71.8583226 L3.20531212,71.8583226 L3.20531212,78 L15.1163274,78 C15.1172981,76.0072933 15.1172981,74.0119986 15.1172981,71.7232326 L20.8160442,71.7232326 Z" id="Fill-27" fill="#005EA5" mask="url(#mask-2)"></path>
                    <path d="M15.0000243,78 C15.0000243,78.024 15.0000243,78.0485 15.0000243,78.0725 C14.9985243,78.0735 15.0670243,78 15.0670243,78 L15.0000243,78 Z" id="Fill-28" fill="#005EA5" mask="url(#mask-2)"></path>
                    <path d="M64.0105,10 C64.007,10.0205 64.0035,10.0405 64,10.0605 L64.062,10.0055 C64.0445,10.0035 64.0275,10.0015 64.0105,10" id="Fill-29" fill="#005EA5" mask="url(#mask-2)"></path>
                    <path d="M71,6.02400466 L71,3.07395769 C69.9897437,2.95927954 69.1176084,2.86015096 68.2400469,2.76053646 C68.0634493,1.8149276 67.9065834,0.974278402 67.7245596,0 C66.7350215,0.0519939097 65.8840976,0.0966989536 65.0356401,0.140918073 C64.907385,1.17885257 64.8116868,1.95487382 64.6947773,2.904856 C63.7096787,2.85237617 62.8705938,2.80767113 62.0961297,2.76636755 C61.9323577,1.70122129 61.8149549,0.933460754 61.7024849,0.203602319 L53.0866956,0.203602319 C52.9377222,1.1773948 52.8198261,1.95098643 52.6619736,2.98308983 L47,2.98308983 L47,8.90893777 L52.7265945,8.90893777 C52.8755678,7.86517218 52.9969169,7.01334672 53.11136,6.20865593 C54.1191499,6.03566685 54.9730335,5.88940361 55.7682157,5.75285886 C55.9166958,4.72512877 56.0395248,3.87816256 56.1810988,2.89659529 C57.1420262,2.96268101 57.9189567,3.01613269 58.6988469,3.06909845 L58.6988469,8.95218504 C57.721641,9.07366614 56.9338581,9.17182286 56.1110517,9.27435291 L56.1110517,15 C57.0838181,14.954809 57.8711076,14.9183647 58.6973671,14.8799767 C58.8458471,13.875085 58.9711426,13.027147 59.092985,12.2059348 C60.0835098,12.0460656 60.9378867,11.908549 61.7434279,11.7783213 C61.8904281,10.8273673 62.011284,10.0484305 62.1607506,9.080955 C63.0378188,9.16842139 63.8162292,9.24568337 64.5931597,9.32294535 C64.7608781,8.32437073 64.9290897,7.32045094 65.1471235,6.02400466 L71,6.02400466 Z" id="Fill-30" fill="#005EA5" mask="url(#mask-2)"></path>
                    <path d="M34,22.0035 L34,22.087 C34.0255,22.0865 34.0515,22.086 34.077,22.085 C34.08,22.0565 34.083,22.028 34.0855,22 C34.057,22.001 34.0285,22.0025 34,22.0035" id="Fill-31" fill="#005EA5" mask="url(#mask-2)"></path>
                    <path d="M40,15 L40,15.069 L40.068,15.0655 C40.0685,15.0435 40.0695,15.0215 40.07,15 L40,15 Z" id="Fill-32" fill="#005EA5" mask="url(#mask-2)"></path>
                    <path d="M39.9212944,15.7015359 C39.9217909,14.6940087 39.9227841,13.6864814 39.9232806,12.6789542 C38.9907308,12.5752609 38.0586775,12.4710517 37.1767773,12.3730332 L37.1767773,6.37429945 C38.1743772,6.23139876 38.9822892,6.11584008 39.8602168,5.99047954 C39.9739303,5.02370735 40.081685,4.11161918 40.199371,3.11183023 C41.1453281,2.96273889 42.0048829,2.82706062 43,2.66971509 C42.9548125,1.69623637 42.916577,0.880619064 42.8758586,0 L33.8373748,0 L33.8373748,12.3529136 L27.81205,12.3529136 C27.8646859,11.3097901 27.9054043,10.4952046 27.9466192,9.67546019 C29.0201937,9.51553523 29.8931557,9.38501583 30.7854837,9.25243288 L30.7854837,6.36810881 L27.9759166,6.36810881 C27.8378714,7.43444718 27.7206819,8.34240825 27.5935612,9.32517294 C26.7086816,9.42938211 25.907225,9.52378942 25.0049657,9.62954625 L25.0049657,12.4375191 C25.9692957,12.5458553 26.7603244,12.6351038 27.6049822,12.730027 L27.6049822,18.7003869 C26.6337002,18.8092391 25.8431681,18.8979716 25,18.9923789 L25,21.8467816 L27.6020028,21.8467816 C27.7465034,20.8057217 27.8721344,19.9039512 27.9947861,19.0186892 L30.7522139,19.0186892 C30.9185633,20.0865752 31.0580982,20.9806073 31.2169991,22 C32.2265166,21.9546019 33.0994786,21.9143628 33.9689647,21.8751554 L33.9689647,15.7015359 L39.9212944,15.7015359 Z" id="Fill-33" fill="#005EA5" mask="url(#mask-2)"></path>
                    <path d="M34.0835,81 C34.0555,81.0015 34.0275,81.0025 34,81.004 C34.0025,81.0295 34.0055,81.0555 34.0085,81.0815 C34.0315,81.082 34.0535,81.083 34.0765,81.084 C34.0775,81.057 34.079,81.0305 34.08,81.004 L34.0835,81 Z" id="Fill-34" fill="#005EA5" mask="url(#mask-2)"></path>
                    <polygon id="Fill-35" fill="#005EA5" mask="url(#mask-2)" points="22 78.075 22 78.075 22.079 78.075 22.079 78 22 78"></polygon>
                    <path d="M15.0000109,78.0710225 C15.0205109,78.0715225 15.0405109,78.0720225 15.0605109,78.0725225 C15.0620109,78.0485225 15.0640109,78.0240225 15.0660109,78.0000225 C15.0670109,77.9985225 14.9990109,78.0725225 15.0000109,78.0710225" id="Fill-36" fill="#005EA5" mask="url(#mask-2)"></path>
                    <path d="M12.0655112,84.061503 C12.0645112,84.043003 12.0635112,84.024503 12.0625112,84.006003 C12.0415112,84.004003 12.0210112,84.002003 12.0000112,84.000003 C11.9990112,83.999503 12.0655112,84.061503 12.0655112,84.061503" id="Fill-37" fill="#005EA5" mask="url(#mask-2)"></path>
                    <path d="M18.2788162,87.1809587 L18.2788162,84.1711738 C19.1688192,84.1300524 20.0273086,84.0904174 21.1429892,84.0383964 C21.1938174,85.0545394 21.2360049,85.9022336 21.291916,87.0253912 C20.2819583,87.0774122 19.4204191,87.1220016 18.2788162,87.1809587 Z M21.2517617,78.0624252 L21.2517617,80.8116098 L18.3016889,80.8116098 C18.2478109,79.8970315 18.193933,78.9774989 18.140055,78.0584617 C17.1585611,78.0386442 16.1770672,78.0183312 15.1945568,78 C15.1193309,78.9334049 15.0456299,79.864828 14.9719289,80.7987284 C13.9152092,80.9552867 13.0353719,81.084596 12,81.2376863 C12.0564194,82.2290574 12.1062311,83.0970645 12.1560428,83.962099 C13.1080563,84.0507824 14.0585449,84.1389703 14.9958182,84.2256719 C15.0964582,85.2745139 15.1747337,86.0870319 15.2591087,86.9649478 C16.2029896,87.1106065 17.0919761,87.2478428 18.0399233,87.3939969 C18.1344639,88.2951984 18.2178222,89.0898807 18.3133794,90 L21.1323152,90 C21.2446457,89.0532183 21.3402029,88.2520953 21.4418594,87.3999422 C22.48943,87.2329796 23.4500843,87.0803848 24.3690594,86.9337352 C24.4971467,85.9393914 24.6018529,85.1318278 24.7187579,84.2261674 L27.3831758,84.2261674 C27.5402352,85.2764956 27.6703556,86.1479708 27.7989511,87.0065646 L30.8079847,87.0065646 C30.7612227,85.9656496 30.7225932,85.106065 30.6829471,84.2246811 C29.5632003,84.0780315 28.672689,83.9616036 27.6032623,83.8213947 C27.6591733,82.8374551 27.7069519,81.9962016 27.7577802,81.1113497 C30.0216713,81.0147393 32.0126147,80.929524 34,80.8448041 C33.9008849,79.9985963 33.8012615,79.1454523 33.6746991,78.0624252 L21.2517617,78.0624252 Z" id="Fill-38" fill="#005EA5" mask="url(#mask-2)"></path>
                    <path d="M71.073,15.055 C71.072,15.037 71.0705,15.0185 71.0695,15.0005 C71.0475,15.0005 71.0255,15.0005 71.0035,15 C71.0025,15.017 71.0015,15.034 71,15.051 L71.068,15.051 C71.0695,15.0525 71.073,15.055 71.073,15.055" id="Fill-39" fill="#005EA5" mask="url(#mask-2)"></path>
                    <path d="M83.2261515,19.0763819 C83.9988914,19.0306533 84.8579347,18.979397 86.0157974,18.9100503 C86.0771576,19.8914573 86.1300371,20.7487437 86.2088576,22.0075377 C84.9442381,21.9095477 83.8701846,21.8261307 82.7951333,21.7386935 C82.9233413,20.9477387 83.0520481,20.1517588 83.2261515,19.0763819 Z M74.008647,21.8763819 L76.9798792,21.8763819 L76.9798792,16.1251256 L80.0823125,16.1251256 L80.0823125,22.0713568 C81.1658445,21.9567839 81.9555457,21.8733668 82.7392606,21.7904523 C82.8944072,22.8180905 83.0540436,23.8522613 83.2311402,25 L86.0177928,25 C86.1759326,23.918593 86.3046394,23.0442211 86.4338451,22.1658291 C87.3826839,22.0442211 88.1768749,21.9422111 89,21.8366834 L89,19.0849246 C88.0182362,18.960804 87.221052,18.859799 86.1275428,18.721608 L86.1275428,13.0336683 C84.9452359,12.861809 84.0732221,12.7346734 83.1652902,12.6030151 C83.0595311,11.6547739 82.9702345,10.8517588 82.8754504,10 L80.0947841,10 C79.9895239,10.9668342 79.9022227,11.7728643 79.8084363,12.6346734 L77.1155701,12.6346734 C76.998836,11.641206 76.903553,10.8366834 76.8052769,10.0045226 L74.0600299,10.0045226 C73.9368106,10.9824121 73.8360401,11.7874372 73.7262901,12.658794 C72.7390389,12.7758794 71.8680228,12.8788945 71,12.9819095 C71.0648523,14.0035176 71.1307023,15.0246231 71.1965523,16.0452261 C72.0421263,16.0502513 72.8881991,16.0502513 74.008647,16.0502513 L74.008647,21.8763819 Z" id="Fill-40" fill="#005EA5" mask="url(#mask-2)"></path>
                    <path d="M71,12.0660111 C71.022,12.0635111 71.0435,12.0610111 71.0655,12.0580111 C71.064,12.0385111 71.063,12.0195111 71.0615,12.0000111 C71.062,11.9990111 71,12.0660111 71,12.0660111" id="Fill-41" fill="#005EA5" mask="url(#mask-2)"></path>
                    <polygon id="Fill-42" fill="#005EA5" mask="url(#mask-2)" points="55.0705 101 55 101.003 55 101.0705"></polygon>
                    <path d="M37,97.0831083 L37,102.929693 L39.8444191,102.929693 C39.9391842,101.949095 40.0168526,101.143014 40.1052674,100.225923 L42.7049581,100.225923 C42.8690874,101.258526 43.0063502,102.122112 43.1362859,102.937694 C44.1518359,103.093209 44.9988602,103.222722 45.8297647,103.349735 C45.9719124,104.311331 46.090613,105.112911 46.2220142,106 L48.7220549,106 C48.8798339,105.032903 49.0219816,104.164816 49.1665717,103.280228 C50.1352276,103.154215 50.9900676,103.042204 51.8493039,102.930193 C52.007083,101.914591 52.1409265,101.050505 52.2820972,100.136414 C53.278108,100.091409 54.1407637,100.051905 55,100.011901 L55,93.9517952 L49.134332,93.9517952 C49.0004885,92.8386839 48.8944883,91.9550955 48.7796955,91 L46.0007327,91 C46.054954,92.0756076 46.0984287,92.9481948 46.1438574,93.8477848 C47.1554995,93.960296 47.9321827,94.0468047 48.7591794,94.1388139 L48.7591794,102.961696 L45.9943825,102.961696 L45.9943825,97.1571157 C44.8606204,97.0216022 44.0004071,96.9190919 43.1240739,96.8145815 C42.9506635,95.8194819 42.8007002,94.9588959 42.6307091,93.979798 C41.643491,94.0243024 40.7857201,94.0628063 39.9313686,94.1008101 L39.9313686,96.8030803 C38.8342424,96.9075908 37.9154115,96.9955996 37,97.0831083" id="Fill-43" fill="#005EA5" mask="url(#mask-2)"></path>
                    <path d="M40.0855,94.0835 L40.0855,94 L40.0085,94 C40.0055,94.029 40.0025,94.058 40,94.0875 C40.0285,94.086 40.057,94.085 40.0855,94.0835" id="Fill-44" fill="#005EA5" mask="url(#mask-2)"></path>
                    <path d="M110.788048,37.0608828 C108.712084,37.0608828 106.716308,37.0608828 104.717562,37.0578387 C104.814579,36.1780822 104.911101,35.2952816 105.024452,34.2562151 L110.788048,34.2562151 L110.788048,37.0608828 Z M114,25 L111.163741,25 C110.999406,26.0339929 110.8717,26.8361238 110.744489,27.6347032 C109.809959,27.7747336 109.023924,27.8929477 108.220565,28.0131913 C108.064645,29.0400812 107.929019,29.9320142 107.789929,30.8447489 C105.685256,31.0136986 103.678095,31.1750381 101.67143,31.3368848 C101.723898,32.180619 101.776366,33.0248605 101.828339,33.8685946 C100.683441,34.0547945 99.8305834,34.1938102 99,34.3287671 L99,37.1232877 L104.635395,37.1232877 C104.614605,38.0771182 104.597281,39.0339929 104.586886,39.9959411 C107.719146,40 110.846456,40 114,40 L114,25 Z" id="Fill-45" fill="#005EA5" mask="url(#mask-2)"></path>
                    <path d="M104.000362,41.0002419 C103.995362,40.9962419 104.043862,41.0432419 104.036862,41.0382419 C104.036862,41.0252419 104.037362,41.0127419 104.037362,41.0002419 L104.000362,41.0002419 Z" id="Fill-46" fill="#005EA5" mask="url(#mask-2)"></path>
                    <path d="M43,72 L43,72.066 C43.0245,72.0635 43.0495,72.061 43.074,72.059 L43.074,72.005 C43.0495,72.0035 43.0245,72.0015 43,72" id="Fill-47" fill="#005EA5" mask="url(#mask-2)"></path>
                    <path d="M40,63 C40.0015,63.0205 40.0035,63.041 40.0055,63.0615 L40.0735,63.0615 L40,63 Z" id="Fill-48" fill="#005EA5" mask="url(#mask-2)"></path>
                    <polygon id="Fill-49" fill="#005EA5" mask="url(#mask-2)" points="43 65.074 43.074 65.074 43.074 65 43 65"></polygon>
                    <path d="M34.0119681,69.1287364 C34.1082114,67.8816641 34.1894947,66.8262223 34.275266,65.7697977 C35.0596742,65.8960773 35.8490691,66.0228483 36.9162234,66.194333 C36.9625997,66.9534846 37.0139628,67.7991156 37.0837766,68.9420195 C36.113863,69.0009827 35.2661237,69.0525755 34.0119681,69.1287364 Z M40.2952128,65.9609369 C40.1894947,64.8514454 40.1012301,63.9237573 40.0134641,63 L33.9521277,63 C34.0683178,64.1610843 34.146609,64.9403816 34.2239029,65.7118172 C33.2195811,65.8041929 32.2102726,65.9014823 31.1730386,66.000737 C31.0393949,64.8907542 30.9446476,64.0996642 30.8349402,63.188191 L28.0378989,63.188191 C27.8877992,64.1448694 27.7541556,64.9973794 27.6170213,65.8715093 C26.6650598,65.9742036 25.8731715,66.0597003 25,66.1535501 L25,69.1611662 L30.7416888,69.1611662 C30.957613,70.4509868 31.1261636,71.464663 31.2947141,72.473917 C32.130984,72.4247809 32.967254,72.3756449 33.8269614,72.3255262 C33.9705785,73.4084842 34.0748005,74.1951519 34.181516,75 L37.1550864,75 L37.1550864,69.1277537 C38.3070146,69.1935959 39.1657247,69.2422406 39.9715758,69.2884285 C40.0947473,70.3915322 40.1835106,71.1875358 40.2867354,72.1137499 C41.262633,72.1781181 42.1328125,72.2356072 43,72.2930964 L43,65.9609369 L40.2952128,65.9609369 Z" id="Fill-50" fill="#005EA5" mask="url(#mask-2)"></path>
                    <path d="M65.043206,20.5467332 C64.9300003,19.6896876 64.8103681,18.7864597 64.6872755,17.8856624 C65.6260423,17.8399663 66.5722242,17.7932979 67.7858485,17.7339901 C67.8535741,18.6974981 67.9114128,19.5263482 67.9821046,20.5467332 L65.043206,20.5467332 Z M77,26.9344698 C76.0251458,26.8012704 75.1585539,26.683141 74.250931,26.5596642 C74.1347593,25.6608115 74.0339123,24.8815465 73.8964835,23.8164376 L68.1486999,23.8164376 L68.1486999,20.9011213 C69.1418449,20.7776445 70.0089312,20.6697239 70.9674719,20.5506222 C71.0979798,18.6377042 71.2215668,16.8229842 71.3387272,15.003889 C69.2046271,15 67.0754705,15 65.0249151,15 C64.8578255,16.1287918 64.7317668,16.9785455 64.6066968,17.8214934 C63.7633392,17.8244102 62.9219589,17.8244102 62,17.8244102 L62,23.6146941 C62.9639785,23.7619912 63.8177174,23.8922738 64.6843094,24.024987 C64.807402,24.9442572 64.9107208,25.7167164 65.0516099,26.7667553 L73.8589131,26.7667553 C74.0437992,28.0253435 74.1891375,29.0180192 74.330521,30 C75.1807995,29.8847874 76.0379989,29.77395 77,29.649987 L77,26.9344698 Z" id="Fill-51" fill="#005EA5" mask="url(#mask-2)"></path>
                    <path d="M74.065,32 C74.0435,32.003 74.022,32.0055 74.0005,32.0085 C74.001,32.009 74.005,32.013 74.0055,32.014 C74.004,32.0385 74.002,32.063 74,32.0875 C74.026,32.0895 74.0525,32.0915 74.078,32.093 C74.074,32.0625 74.0695,32.031 74.065,32" id="Fill-52" fill="#005EA5" mask="url(#mask-2)"></path>
                    <path d="M37.1268488,112.566841 L39.8523439,112.566841 L39.8523439,109.759045 L37.1268488,109.759045 L37.1268488,112.566841 Z M42.8355478,106.408282 C39.8944598,106.270427 37.0220607,106.135214 34.1501629,106 C33.9842066,107.091216 33.8177488,108.184546 33.6397593,109.354989 C32.7543244,109.527175 31.8834294,109.695135 31,109.866265 L31,112.862621 L36.7377789,112.862621 C36.9082477,114.112819 37.0335924,115.037131 37.1629481,115.989436 L39.8307847,115.989436 C39.9471045,114.9447 40.0503886,114.01669 40.1702181,112.941848 L45.9766859,112.941848 C46.1366257,114.019331 46.2750063,114.952094 46.4304337,116 L49,116 L49,109.721016 C46.9107546,109.61855 45.0391075,109.527175 43.1809977,109.4358 C43.0456255,108.252152 42.9488594,107.399673 42.8355478,106.408282 Z" id="Fill-53" fill="#005EA5" mask="url(#mask-2)"></path>
                    <path d="M34,106.055 C34.0175,106.0555 34.0345,106.0565 34.052,106.0575 C34.055,106.038 34.058,106.019 34.061,106 L34,106.055 Z" id="Fill-54" fill="#005EA5" mask="url(#mask-2)"></path>
                    <path d="M2.66180746,41 C1.8048401,41.0502011 0.946398591,41.1004023 0,41.1559131 L0,55.8209171 C0.956226199,55.8884956 1.74341755,55.9444891 2.5256951,56 C2.6583678,53.084473 2.7910405,50.1679807 2.92715286,47.1786002 L5.6946071,47.1786002 C5.83022808,48.1097345 5.94324557,48.8835076 6.06903894,49.7489944 L8.79914827,49.7489944 C8.96474346,48.7879324 9.10822653,47.957683 9.24286475,47.1761866 C10.192703,47.0289622 10.9872651,46.9063556 11.8692928,46.7697506 C11.9154826,45.7565567 11.9577413,44.8225261 12,43.8904264 L2.94926498,43.8904264 C2.84214406,42.8120676 2.75173007,41.904103 2.66180746,41" id="Fill-55" fill="#005EA5" mask="url(#mask-2)"></path>
                    <path d="M10.0855,34 C10.057,34.0015 10.0285,34.0035 10,34.005 L10,34.093 L10.0855,34.093 L10.0855,34 Z" id="Fill-56" fill="#005EA5" mask="url(#mask-2)"></path>
                    <path d="M13.3031414,31.006002 L19.127143,31.006002 C19.1880884,29.9896632 19.2495293,28.9728243 19.3099792,27.9664888 C20.3534833,27.822941 21.1601427,27.7124041 22,27.5968656 L22,25 L13.3477356,25 C13.1772867,26.0093364 13.0435041,26.8011004 12.9062531,27.6153718 L10.3113666,27.6153718 C10.2167278,26.6765589 10.1364582,25.8772924 10.0482608,25.0035012 L7,25.0035012 C7.0718462,26.0203401 7.1273412,26.8101034 7.18333168,27.6043681 C8.26251115,27.7564188 9.13507086,27.87996 10.2960063,28.0440147 L10.2960063,34 C11.1546923,33.948983 12.0158557,33.897966 12.9830542,33.8399466 C13.0895848,32.8941314 13.1807551,32.088863 13.3031414,31.006002" id="Fill-57" fill="#005EA5" mask="url(#mask-2)"></path>
                    <path d="M31.0525916,102.837904 C30.8962822,101.851696 30.7619539,101.002272 30.628114,100.157229 C29.6399457,100.024339 28.7817096,99.9084861 27.9547354,99.7975012 C27.7803528,98.81178 27.630882,97.9691709 27.4589417,97 C26.5347626,97.0501379 25.7673813,97.0924874 25,97.1343502 L25,102.789226 C25.9656988,102.945481 26.7438263,103.071069 27.5918046,103.20834 L27.5918046,105.679701 C26.6309905,105.848613 25.79327,105.995619 25.0063501,106.133863 L25.0063501,109 C25.9813297,108.944994 26.7565265,108.901671 27.5546811,108.856401 C27.703175,107.803505 27.8243148,106.941911 27.9469199,106.071069 C30.0268114,105.916761 32.0138942,105.769755 34,105.623235 C33.8422252,104.800097 33.691289,103.972092 33.5335142,103.108064 C32.6308277,103.009736 31.8487924,102.92455 31.0525916,102.837904" id="Fill-58" fill="#005EA5" mask="url(#mask-2)"></path>
                    <path d="M34.0105,106.061 C34.0175,106.055 34.0785,106 34.0785,106 C34.0525,106.002 34.026,106.004 34,106.006 C34.0035,106.024 34.007,106.0425 34.0105,106.061" id="Fill-59" fill="#005EA5" mask="url(#mask-2)"></path>
                    <polygon id="Fill-60" fill="#005EA5" mask="url(#mask-2)" points="52 115 61 115 61 109 52 109"></polygon>
                    <path d="M86.3950847,9 L89,9 L89,2.94938676 C87.9652542,2.79904545 87.1532203,2.68166935 86.3391525,2.5632943 C86.2094915,1.64726122 86.0961017,0.841611632 85.9776271,0 L83.0538983,0 C82.9669492,0.947499861 82.900339,1.67872801 82.8179661,2.57877796 C81.7155932,2.74260503 80.8333898,2.8734669 80,2.99733615 L80,6.00665964 L85.9288136,6.00665964 C86.1047458,7.13596759 86.2410169,8.01254232 86.3950847,9" id="Fill-61" fill="#005EA5" mask="url(#mask-2)"></path>
                    <path d="M96,39.7611087 L96,37.0379454 C95.0226037,36.9384624 94.2078518,36.8558073 93.2936778,36.7622635 C93.1651937,35.8010889 93.0509857,34.9393973 92.9255608,34 L89.8399048,34 L89.8399048,39.7729872 C88.7600272,39.8883084 87.9493542,39.974923 87,40.0758909 L87,43 C89.2408226,42.8673559 91.2970768,42.7456005 93.3518015,42.6238451 C93.2936778,41.8017488 93.242692,40.9737132 93.1886472,40.100143 C94.2945275,39.967004 95.10724,39.8690057 96,39.7611087" id="Fill-62" fill="#005EA5" mask="url(#mask-2)"></path>
                    <path d="M92.0035,43.0615 C92.0105,43.0555 92.0725,43 92.0725,43 C92.048,43.0015 92.024,43.003 92,43.0045 C92.001,43.0235 92.0025,43.0425 92.0035,43.0615" id="Fill-63" fill="#005EA5" mask="url(#mask-2)"></path>
                    <path d="M22,53.038247 C22.0145,53.036747 22.0295,53.034747 22.044,53.032747 C22.043,53.022247 22.042,53.011247 22.0415,53.000747 C22.0465,52.993747 22,53.038247 22,53.038247" id="Fill-64" fill="#005EA5" mask="url(#mask-2)"></path>
                    <path d="M21.4773932,62 L25,62 L25,53 C23.5757701,53.1537321 22.3868831,53.2812654 21.2008943,53.4087988 C21.2913216,54.2407316 21.3875455,55.0662383 21.4878271,55.9253584 C20.1580821,56.0860109 19.1541073,56.2071181 18,56.3460208 L18,59.0543747 L21.4773932,59.0543747 L21.4773932,62 Z" id="Fill-65" fill="#005EA5" mask="url(#mask-2)"></path>
                    <path d="M18.068,60 L18,60 C18.0015,60.023 18.003,60.046 18.004,60.069 C18.0255,60.07 18.047,60.0715 18.068,60.073 L18.068,60 Z" id="Fill-66" fill="#005EA5" mask="url(#mask-2)"></path>
                    <path d="M18,43.0015 C18.001,43.0275 18.002,43.053 18.003,43.079 L18.071,43 C18.047,43.0005 18.0235,43.001 18,43.0015" id="Fill-67" fill="#005EA5" mask="url(#mask-2)"></path>
                    <path d="M12.003,44.001 C12.002,44.0245 12.001,44.048 12,44.0715 L12.069,44.0715 C12.0665,44.0475 12.064,44.0235 12.0615,44 C12.042,44 12.0225,44.0005 12.003,44.001 Z" id="Fill-68" fill="#005EA5" mask="url(#mask-2)"></path>
                    <polygon id="Fill-69" fill="#005EA5" mask="url(#mask-2)" points="18 41 18 41 18 41 18 41 18.003 41.079 18.075 41.079 18.075 41"></polygon>
                    <path d="M16.0797342,41.035455 C16.0179402,39.9236873 15.9641196,38.9603242 15.910299,38 C13.9403654,38.0005065 11.9699336,38.0005065 10,38.0005065 L10,40.920986 C10.926412,41.0217795 11.705814,41.1068715 12.6900332,41.213743 C12.788206,42.1538072 12.883887,43.0766503 12.9800664,44 C14.9868771,43.957454 16.9931894,43.9144015 19,43.871349 C18.9646179,42.9262198 18.9292359,41.9805842 18.8938538,41.035455 L16.0797342,41.035455 Z" id="Fill-70" fill="#005EA5" mask="url(#mask-2)"></path>
                    <path d="M6.56975506,82 C6.42225772,83.0033495 6.29286475,83.8800871 6.14270501,84.9030313 L2.93982961,84.9030313 L2.93982961,87.9457377 C1.76198083,88.1035003 0.905750799,88.2180539 0,88.3396416 L0,91 L2.75931842,91 C2.93556976,90.0056942 3.08732694,89.1485513 3.23375932,88.3235639 C4.32907348,88.1668062 5.25346113,88.0356724 6.17784878,87.9035337 C6.33280085,86.8780774 6.46538871,85.9993301 6.59318424,85.1557528 C7.81469649,84.975381 8.90841321,84.8141015 10,84.6523195 C9.85037274,83.7906548 9.70021299,82.9284877 9.53887114,82 L6.56975506,82 Z" id="Fill-71" fill="#005EA5" mask="url(#mask-2)"></path>
                    <path d="M10.065,84 C10.0435,84.0035 10.022,84.007 10,84.0105 C10.003,84.0275 10.0055,84.0445 10.0085,84.0615 C10.0235,84.0625 10.039,84.064 10.054,84.065 C10.056,84.045 10.0585,84.025 10.0605,84.005 L10.065,84 Z" id="Fill-72" fill="#005EA5" mask="url(#mask-2)"></path>
                    <path d="M17.5248735,49.2356542 L17.5248735,46.6082632 C18.3756324,46.4445295 19.1096121,46.303239 19.8381113,46.1634787 L19.8381113,43.3157358 C18.9742833,43.1984188 18.2403035,43.0989543 17.5084317,43 C17.4279089,44.0629941 17.3494941,45.1224178 17.2710793,46.1869421 C16.4591062,46.3537363 15.7238617,46.5047182 15,46.6531497 L15,49.2570773 C15.8473862,49.4187707 16.5763069,49.5575108 17.2529511,49.6865596 C17.3844857,50.7913798 17.4911467,51.6840092 17.5868465,52.4868656 C18.3971332,52.6842642 19.0598651,52.8459577 19.7251265,53 C19.8187184,51.8992604 19.9089376,50.8026014 20,49.696761 C18.9515177,49.5014027 18.2284992,49.3667432 17.5248735,49.2356542" id="Fill-73" fill="#005EA5" mask="url(#mask-2)"></path>
                    <path d="M18,43.0751469 C18.019,43.0771469 18.0385,43.0791469 18.0575,43.0816469 L18.0645,43.0001469 C18.068,42.9961469 18,43.0751469 18,43.0751469" id="Fill-74" fill="#005EA5" mask="url(#mask-2)"></path>
                    <path d="M22.0003072,53.0395 C21.9958072,53.044 22.0423072,52.9995 22.0373072,53.0065 L22.0043072,53 C22.0028072,53.013 22.0013072,53.0265 22.0003072,53.0395" id="Fill-75" fill="#005EA5" mask="url(#mask-2)"></path>
                    <path d="M18.0755,31.0785 L18.0755,31 L18.005,31 C18.003,31.0265 18.002,31.0525 18,31.0785 L18.0755,31.0785 Z" id="Fill-76" fill="#005EA5" mask="url(#mask-2)"></path>
                    <path d="M27,35 L27,32 L18.0004981,32 C18,32.9998288 18,33.9996577 18,35 L27,35 Z" id="Fill-77" fill="#005EA5" mask="url(#mask-2)"></path>
                    <polygon id="Fill-78" fill="#005EA5" mask="url(#mask-2)" points="107 47 112 47 112 44 107 44"></polygon>
                    <polygon id="Fill-79" fill="#005EA5" mask="url(#mask-2)" points="89 31 92 31 92 25 89 25"></polygon>
                    <path d="M6.72725157,37.1222363 C7.79970522,37.0693774 8.89985261,37.0160102 10,36.9621347 C9.99945699,35.974587 9.99891397,34.9870394 9.99837096,34 L6.72127841,34 C6.54642774,35.1049555 6.40795904,35.9786531 6.27329144,36.8310038 C5.13404701,36.9712834 4.19083081,37.0876747 3.1683345,37.213723 C3.10697386,38.2312579 3.05321542,39.1171537 3,40 L6.22985028,40 C6.39003956,39.0714104 6.54154061,38.1961881 6.72725157,37.1222363" id="Fill-80" fill="#005EA5" mask="url(#mask-2)"></path>
                    <path d="M3.0655,41 L3,41 C3.0025,41.0255 3.005,41.0515 3.0075,41.077 C3.0255,41.076 3.0435,41.0745 3.0615,41.0735 C3.0625,41.0495 3.064,41.0245 3.0655,41" id="Fill-81" fill="#005EA5" mask="url(#mask-2)"></path>
                    <path d="M10,38.0035 L10,38.069 L10.07,38.069 L10.07,38 C10.0465,38.001 10.023,38.0025 10,38.0035" id="Fill-82" fill="#005EA5" mask="url(#mask-2)"></path>
                    <path d="M6.4671037,59.192178 C6.62799147,60.1667229 6.7739515,61.0552933 6.92986336,62 L10,62 L10,59.2301079 C8.83231972,59.0925489 7.85759419,58.9777478 6.92709897,58.868004 C6.72142801,57.8661497 6.54284812,56.9947741 6.33883579,56 C5.11697338,56.0586649 4.05599874,56.1097438 3,56.1608227 C3.12218624,57.032704 3.24050233,57.9106541 3.37264039,58.8953136 C4.43582655,58.9974713 5.41331648,59.0910317 6.4671037,59.192178" id="Fill-83" fill="#005EA5" mask="url(#mask-2)"></path>
                    <path d="M3.091,56.0685 C3.0885,56.0465 3.0855,56.024 3.0825,56.002 C3.0825,56.002 3.0795,56.0045 3.0785,56.0055 C3.0535,56.004 3.028,56.002 3.003,56 C3.002,56.0245 3.001,56.049 3,56.073 C3.03,56.0715 3.0605,56.07 3.091,56.0685" id="Fill-84" fill="#005EA5" mask="url(#mask-2)"></path>
                    <path d="M104,27.9280276 L104,25 L101.659111,25 C101.516565,26.1349683 101.395815,27.0915284 101.282912,27.9947904 C100.421534,28.1406588 99.717524,28.2601587 99,28.3819027 L99,31.5281718 C99.8709677,31.7110684 100.560157,31.8558147 101.246731,32 C101.399303,30.7819989 101.548387,29.569047 101.696164,28.3661938 C102.52354,28.2085437 103.220139,28.0761401 104,27.9280276" id="Fill-85" fill="#005EA5" mask="url(#mask-2)"></path>
                    <path d="M101.0145,32 C101.011,32.021 101.0075,32.0415 101.004,32.063 L101,32.068 C101.02,32.066 101.0395,32.0645 101.0595,32.063 C101.058,32.0445 101.057,32.0255 101.056,32.007 C101.0425,32.0045 101.028,32.002 101.0145,32" id="Fill-86" fill="#005EA5" mask="url(#mask-2)"></path>
                    <path d="M64,10.061 C64.0265,10.0595 64.0525,10.058 64.0785,10.0565 C64.075,10.038 64.072,10.0185 64.0685,10 C64.0615,10.006 64,10.061 64,10.061" id="Fill-87" fill="#005EA5" mask="url(#mask-2)"></path>
                    <path d="M64,10.36 C64.1626429,11.1435294 64.3194581,11.9374118 64.5287217,13 C66.7357905,13 68.8676304,13 70.9994702,12.9990588 C71,12.1115294 71,11.2169412 71,10 C68.425263,10.1327059 66.2107773,10.2461176 64,10.36" id="Fill-88" fill="#005EA5" mask="url(#mask-2)"></path>
                    <path d="M71.000003,12.0645248 C70.999503,12.0655248 71.061503,11.9985248 71.061003,12.0000248 L71.000003,12.0000248 L71.000003,12.0645248 Z" id="Fill-89" fill="#005EA5" mask="url(#mask-2)"></path>
                    <path d="M25,75 L31.5035381,75 C31.6909778,74.0094437 31.8457703,73.1924794 32,72.3791209 C29.7169508,72.252919 27.4378417,72.1308379 25,72 L25,75 Z" id="Fill-90" fill="#005EA5" mask="url(#mask-2)"></path>
                    <path d="M31,72.0505 C31.0215,72.052 31.0435,72.0535 31.065,72.0545 L31.07,72.0595 C31.067,72.04 31.0635,72.0195 31.0605,72 C31.043,72.001 31.0255,72.0025 31.0085,72.0035 C31.0055,72.0195 31.0025,72.035 31,72.0505" id="Fill-91" fill="#005EA5" mask="url(#mask-2)"></path>
                    <polygon id="Fill-92" fill="#005EA5" mask="url(#mask-2)" points="55.0705 101 55 101.0705 55.0705 101.0705"></polygon>
                    <path d="M58,107 L58,101 L55,101 C55.0005368,102.97708 55.0005368,104.955187 55.0005368,107 L58,107 Z" id="Fill-93" fill="#005EA5" mask="url(#mask-2)"></path>
                    <path d="M83.0735,32.071 L83.0735,32 C83.0505,32.0015 83.027,32.0035 83.004,32.005 C83.0025,32.0265 83.0005,32.048 83,32.0695 C83.0235,32.07 83.048,32.07 83.0725,32.07 L83.0735,32.071 Z" id="Fill-94" fill="#005EA5" mask="url(#mask-2)"></path>
                    <path d="M86,28 C84.9117053,28.0487207 84.0322906,28.0877892 83,28.1342117 L83,31 C83.962664,30.9397886 84.9268416,30.8786579 86,30.8106328 L86,28 Z" id="Fill-95" fill="#005EA5" mask="url(#mask-2)"></path>
                    <path d="M27.8326316,91 C26.6952632,91.0641887 25.8626316,91.1105732 25,91.1593003 L25,94 C26.0736842,93.9493987 26.9610526,93.907231 28,93.8580353 C27.9352632,92.7541777 27.8878947,91.9473684 27.8326316,91" id="Fill-96" fill="#005EA5" mask="url(#mask-2)"></path>
                    <path d="M31.0825,56.0645 C31.0865,56.068 31.008,56 31.008,56 C31.0055,56.0215 31.003,56.043 31,56.0645 C31.0275,56.0645 31.055,56.0645 31.0825,56.0645" id="Fill-97" fill="#005EA5" mask="url(#mask-2)"></path>
                    <path d="M28,58 L30.6956797,58 C30.807248,57.2699466 30.903624,56.6346048 31,56.0022112 C30.0352904,56 29.0705808,56 28,56 L28,58 Z" id="Fill-98" fill="#005EA5" mask="url(#mask-2)"></path>
                    <path d="M3,31.8417085 L3,29 C1.87474403,29.0513505 1.00750853,29.0904523 0,29.1361495 C0.0747440273,30.2432475 0.129522184,31.0544912 0.193515358,32 C1.29778157,31.9378141 2.10870307,31.8921168 3,31.8417085" id="Fill-99" fill="#005EA5" mask="url(#mask-2)"></path>
                    <path d="M86,37 L86,34 C84.8844665,34.1357285 83.9399102,34.250499 83,34.3647705 C83.1296268,35.2175649 83.2601827,36.0718563 83.4014248,37 L86,37 Z" id="Fill-100" fill="#005EA5" mask="url(#mask-2)"></path>
                    <path d="M83,34.063 C83.022,34.0605 83.0435,34.058 83.0655,34.0555 C83.0625,34.0375 83.059,34.02 83.056,34.0015 C83.0405,34.001 83.0245,34.0005 83.009,34 C83.0075,34.019 83.006,34.0385 83.005,34.058 L83,34.063 Z" id="Fill-101" fill="#005EA5" mask="url(#mask-2)"></path>
                    <path d="M10,87 L12.7995874,87 C12.8733735,85.9725266 12.9371628,85.0825745 13,84.1940114 C12.1088543,84.1291866 11.2186607,84.0643618 10.3284672,84 C10.2223104,84.9473684 10.1194859,85.8938108 10,87" id="Fill-102" fill="#005EA5" mask="url(#mask-2)"></path>
                    <path d="M12.0685,84.061003 C12.0695,84.061503 12.003,83.999503 12.004,84.000003 C12.003,84.018503 12.0015,84.037003 12,84.055503 C12.023,84.057503 12.046,84.059003 12.0685,84.061003" id="Fill-103" fill="#005EA5" mask="url(#mask-2)"></path>
                    <polygon id="Fill-104" fill="#005EA5" mask="url(#mask-2)" points="25 2 27 2 27 0 25 0"></polygon>
                    <path d="M21,41 L21,38 L18,38 C18,38.9998284 18,40.0001716 18.0005289,41 L21,41 Z" id="Fill-105" fill="#005EA5" mask="url(#mask-2)"></path>
                    <polygon id="Fill-106" fill="#005EA5" mask="url(#mask-2)" points="18 38.073 18.068 38.073 18.068 38 18 38"></polygon>
                    <path d="M15,37 L17.998466,37 C17.9989773,36 17.9994887,35 18,34 L15,34 L15,37 Z" id="Fill-107" fill="#005EA5" mask="url(#mask-2)"></path>
                    <polygon id="Fill-108" fill="#005EA5" mask="url(#mask-2)" points="18 34.0705 18.0665 34.0705 18.0665 34 18 34"></polygon>
                    <path d="M15.0695,38 L15,38 C15.0015,38.023 15.003,38.046 15.004,38.069 L15.0695,38.069 L15.0695,38 Z" id="Fill-109" fill="#005EA5" mask="url(#mask-2)"></path>
                    <path d="M80,34 C80.002,34.002 80.0725,34.077 80.074,34.0795 L80.074,34.003 C80.05,34.002 80.025,34.001 80,34" id="Fill-110" fill="#005EA5" mask="url(#mask-2)"></path>
                    <path d="M83,32.0009721 C82.0456189,32 81.0902049,32 80.0025822,32 C80.0025822,33.0639987 80.0025822,33.9758587 80,34.882372 C80.9254605,34.9202852 81.8524703,34.9596565 82.7799966,35 C82.8564297,33.9977317 82.9282148,32.999838 83,32.0009721" id="Fill-111" fill="#005EA5" mask="url(#mask-2)"></path>
                    <path d="M62,97 L62,97.0765 L62.061,97.003 C62.041,97.002 62.0205,97.001 62,97" id="Fill-112" fill="#005EA5" mask="url(#mask-2)"></path>
                    <path d="M59,94 L59,96.8722422 C60.1264908,96.919959 61.0632454,96.9604926 61.994579,97 C61.9967474,95.9994869 61.9983737,95 62,94 L59,94 Z" id="Fill-113" fill="#005EA5" mask="url(#mask-2)"></path>
                    <path d="M62,97.0051177 C62.0622661,97.9467758 62.1245322,98.8925281 62.1980265,100 L64.9979585,100 C64.9989792,98.9994882 64.9994896,98 65,97 C64.0001701,97.0015353 63.0003403,97.0030706 62,97.0051177" id="Fill-114" fill="#005EA5" mask="url(#mask-2)"></path>
                    <path d="M64,101 L64,101.0665 C64.0235,101.0655 64.047,101.064 64.0705,101.063 L64.0705,101 L64,101 Z" id="Fill-115" fill="#005EA5" mask="url(#mask-2)"></path>
                    <polygon id="Fill-116" fill="#005EA5" mask="url(#mask-2)" points="64 97.066 64.066 97.066 64.066 97 64 97"></polygon>
                    <path d="M62,97.0735 L62.066,97.0735 C62.0645,97.049 62.0625,97.024 62.061,97 L62,97.0735 Z" id="Fill-117" fill="#005EA5" mask="url(#mask-2)"></path>
                    <path d="M57.8349497,19 L55,19 L55,22 L58,22 C57.9338741,20.7909306 57.8862634,19.9282462 57.8349497,19" id="Fill-118" fill="#005EA5" mask="url(#mask-2)"></path>
                    <path d="M43,10 L40.1402397,10 C40.0873288,11.1356802 40.0431507,12.0702282 40,13 C40.9996575,12.9984079 41.9998288,12.9973465 43,12.9962852 L43,10 Z" id="Fill-119" fill="#005EA5" mask="url(#mask-2)"></path>
                    <path d="M40.062,12 L40,12 L40,12.0645 C40.02,12.067 40.039,12.069 40.0585,12.071 C40.0595,12.0475 40.061,12.0235 40.062,12" id="Fill-120" fill="#005EA5" mask="url(#mask-2)"></path>
                    <path d="M3,65 L3,65.068 L3,65.0685 L3,65.068 C3.024,65.0675 3.048,65.067 3.0725,65.0665 C3.071,65.044 3.0695,65.022 3.068,65 L3,65 Z" id="Fill-121" fill="#005EA5" mask="url(#mask-2)"></path>
                    <path d="M0,63.2056967 L0,66 L3,66 L3,63 C1.76013143,63.0849395 0.897590361,63.1442947 0,63.2056967" id="Fill-122" fill="#005EA5" mask="url(#mask-2)"></path>
                    <path d="M34.144908,82 C34.0947475,82.9909031 34.0481338,83.9793252 34,85 L36.9994933,85 C37,84.0339067 37,83.0673172 37,82.1012239 C36.0484715,82.0674826 35.0964364,82.0332451 34.144908,82" id="Fill-123" fill="#005EA5" mask="url(#mask-2)"></path>
                    <polygon id="Fill-124" fill="#005EA5" mask="url(#mask-2)" points="37 84.079 37.075 84.079 37.075 84 37 84"></polygon>
                    <path d="M0,82.1654021 C0.0653852754,83.2711179 0.112236142,84.0713202 0.167324524,85 L3,85 C3,84.0627213 3,83.1213961 3,82 C1.86528231,82.0627213 0.997254162,82.1107739 0,82.1654021" id="Fill-125" fill="#005EA5" mask="url(#mask-2)"></path>
                    <polygon id="Fill-126" fill="#005EA5" mask="url(#mask-2)" points="3 84 3 84.0685 3 84.0685 3.068 84.0685 3.068 84"></polygon>
                    <polygon id="Fill-127" fill="#005EA5" mask="url(#mask-2)" points="18 78 21 78 21 75 18 75"></polygon>
                    <path d="M18.068,78 L18,78 C18.0015,78.024 18.003,78.0475 18.0045,78.0715 L18.068,78.073 L18.068,78 Z" id="Fill-128" fill="#005EA5" mask="url(#mask-2)"></path>
                    <path d="M58,78 L58,75 C56.9078341,75.0776631 55.9518689,75.1448312 55,75.2119993 C55.0681004,76.1208676 55.1336406,77.0344586 55.202765,78 L58,78 Z" id="Fill-129" fill="#005EA5" mask="url(#mask-2)"></path>
                    <path d="M55.09,75.0725 C55.088,75.0485 55.0865,75.024 55.0845,75 C55.0845,75.0005 55.0815,75.003 55.0805,75.0035 L55.0035,75.0035 C55.0025,75.0285 55.001,75.054 55,75.079 C55.03,75.077 55.06,75.0745 55.09,75.0725" id="Fill-130" fill="#005EA5" mask="url(#mask-2)"></path>
                    <path d="M92,97 C92.7655706,96.9421107 93.3717602,96.8960041 94,96.8483607 L94,94 L92,94 L92,97 Z" id="Fill-131" fill="#005EA5" mask="url(#mask-2)"></path>
                    <polygon id="Fill-132" fill="#005EA5" mask="url(#mask-2)" points="7 110 16 110 16 101 7 101"></polygon>
                    <polygon id="Fill-133" fill="#005EA5" mask="url(#mask-2)" points="99 16 108 16 108 7 99 7"></polygon>
                    <polygon id="Fill-134" fill="#005EA5" mask="url(#mask-2)" points="7 16 16 16 16 7 7 7"></polygon>
                </g>
            </g>
        </g>
    </g>
</svg>