<?xml version="1.0" encoding="UTF-8"?>
<svg width="163px" height="87px" viewBox="0 0 163 87" version="1.1" xmlns="http://www.w3.org/2000/svg" xmlns:xlink="http://www.w3.org/1999/xlink">
    <!-- Generator: Sketch 59.1 (86144) - https://sketch.com -->
    <title>Group</title>
    <desc>Created with Sketch.</desc>
    <g id="Symbols" stroke="none" stroke-width="1" fill="none" fill-rule="evenodd">
        <g id="modules-/-hero---v6" transform="translate(-176.000000, -67.000000)" fill-rule="nonzero">
            <g id="Group" transform="translate(176.000000, 67.000000)">
                <path d="M17.0788042,0.129877629 L17.0788042,15.1307438 C17.0788042,18.0313587 16.4198563,20.1797296 15.1019407,21.5759211 C13.7840251,22.9721126 11.796379,23.6701979 9.13894266,23.6701979 C7.64818569,23.6701979 6.23846927,23.4375028 4.90975111,22.9721056 C3.58103294,22.5067085 2.50619169,21.8627383 1.6851951,21.0401759 L2.85186863,19.2868279 C3.58644453,20.0228048 4.4938482,20.5964253 5.57410687,21.0077065 C6.65436554,21.4189877 7.81022498,21.6246252 9.04171986,21.6246252 C11.0077906,21.6246252 12.4553155,21.1213544 13.384338,20.1147978 C14.3133605,19.1082411 14.7778647,17.5443137 14.7778647,15.4229684 L14.7778647,13.4423346 C14.1729199,14.4380681 13.3465344,15.206503 12.2986835,15.7476625 C11.2508326,16.288822 10.0679671,16.5593977 8.75005148,16.5593977 C6.52471862,16.5593977 4.76932461,15.9370736 3.48381679,14.6924068 C2.19830898,13.4477399 1.55556471,11.6240598 1.55556471,9.22131166 L1.55556471,0.129877629 L3.85650417,0.129877629 L3.85650417,8.99402581 C3.85650417,10.7906753 4.29940358,12.1543768 5.18521569,13.0851711 C6.0710278,14.0159654 7.33491149,14.4813556 8.97690467,14.4813556 C10.7701341,14.4813556 12.1852517,13.9347927 13.2223,12.8416506 C14.2593483,11.7485084 14.7778647,10.227873 14.7778647,8.27969885 L14.7778647,0.129877629 L17.0788042,0.129877629 Z M31.6358798,17.3711329 C29.9938866,17.3711329 28.5139544,16.9977384 27.1960388,16.2509383 C25.8781232,15.5041382 24.8410905,14.4705391 24.0849094,13.1501099 C23.3287283,11.8296808 22.9506435,10.336103 22.9506435,8.66933173 C22.9506435,7.0025605 23.3287283,5.5089827 24.0849094,4.18855353 C24.8410905,2.86812437 25.8781232,1.83993676 27.1960388,1.10395985 C28.5139544,0.367982936 29.9938866,0 31.6358798,0 C33.2778729,0 34.7578051,0.367982936 36.0757207,1.10395985 C37.3936363,1.83993676 38.4252678,2.86812437 39.1706463,4.18855353 C39.9160248,5.5089827 40.2887084,7.0025605 40.2887084,8.66933173 C40.2887084,10.336103 39.9160248,11.8296808 39.1706463,13.1501099 C38.4252678,14.4705391 37.3936363,15.5041382 36.0757207,16.2509383 C34.7578051,16.9977384 33.2778729,17.3711329 31.6358798,17.3711329 Z M31.6358798,15.3255602 C32.8457695,15.3255602 33.9314131,15.049573 34.8928434,14.4975903 C35.8542736,13.9456077 36.6050421,13.1609382 37.1451714,12.1435583 C37.6853008,11.1261785 37.9553614,9.96811452 37.9553614,8.66933173 C37.9553614,7.37054895 37.6853008,6.21248501 37.1451714,5.19510516 C36.6050421,4.17772531 35.8542736,3.39305582 34.8928434,2.84107313 C33.9314131,2.28909045 32.8457695,2.01310325 31.6358798,2.01310325 C30.42599,2.01310325 29.3403464,2.28909045 28.3789161,2.84107313 C27.4174859,3.39305582 26.6613162,4.17772531 26.1103843,5.19510516 C25.5594524,6.21248501 25.2839905,7.37054895 25.2839905,8.66933173 C25.2839905,9.96811452 25.5594524,11.1261785 26.1103843,12.1435583 C26.6613162,13.1609382 27.4174859,13.9456077 28.3789161,14.4975903 C29.3403464,15.049573 30.42599,15.3255602 31.6358798,15.3255602 Z M61.4893416,0.129877629 L61.4893416,17.2087858 L59.2856249,17.2087858 L59.2856249,14.0917227 C58.6806801,15.130749 57.8488934,15.9370645 56.7902399,16.5106936 C55.7315864,17.0843226 54.5217148,17.3711329 53.1605889,17.3711329 C50.935256,17.3711329 49.179862,16.7488088 47.8943542,15.504142 C46.6088464,14.2594751 45.9661021,12.435795 45.9661021,10.0330468 L45.9661021,0.129877629 L48.2670416,0.129877629 L48.2670416,9.80576099 C48.2670416,11.6024105 48.709941,12.966112 49.5957531,13.8969063 C50.4815652,14.8277006 51.7454489,15.2930908 53.3874421,15.2930908 C55.1806715,15.2930908 56.5957891,14.7465279 57.6328374,13.6533857 C58.6698858,12.5602436 59.1884021,11.0396082 59.1884021,9.09143403 L59.1884021,0.129877629 L61.4893416,0.129877629 Z M71.2825003,3.47422658 C71.8226296,2.32696845 72.6274102,1.46112625 73.6968663,0.876673996 C74.7663224,0.292221743 76.0896194,0 77.6667971,0 L77.6667971,2.2403891 L77.1158679,2.20791969 C75.3226385,2.20791969 73.9183233,2.7598941 72.9028802,3.86385946 C71.887437,4.96782483 71.3797231,6.51551776 71.3797231,8.5069847 L71.3797231,17.2087858 L69.0787836,17.2087858 L69.0787836,0.129877629 L71.2825003,0.129877629 L71.2825003,3.47422658 Z M17.2732498,24.2489173 L17.2732498,48.3412175 L15.0695331,48.3412175 L15.0695331,44.9643991 C14.3781676,46.1116573 13.4653627,46.9883225 12.3310911,47.5944211 C11.1968195,48.2005198 9.91673214,48.5035645 8.49079069,48.5035645 C6.89200786,48.5035645 5.44448296,48.1355816 4.14817255,47.3996047 C2.85186215,46.6636278 1.83643423,45.6354402 1.10185833,44.315011 C0.367282439,42.9945818 0,41.490181 0,39.8017634 C0,38.1133458 0.367282439,36.6089449 1.10185833,35.2885158 C1.83643423,33.9680866 2.85186215,32.9453105 4.14817255,32.2201568 C5.44448296,31.4950031 6.89200786,31.1324317 8.49079069,31.1324317 C9.87352179,31.1324317 11.1212018,31.4192419 12.2338683,31.9928709 C13.3465347,32.5665 14.2593396,33.4052846 14.9723103,34.50925 L14.9723103,24.2489173 L17.2732498,24.2489173 Z M8.68523628,46.4579919 C9.87352082,46.4579919 10.9483621,46.1820047 11.9097923,45.630022 C12.8712225,45.0780393 13.6273922,44.2933698 14.1783242,43.27599 C14.7292561,42.2586101 15.0047179,41.1005462 15.0047179,39.8017634 C15.0047179,38.5029806 14.7292561,37.3449167 14.1783242,36.3275368 C13.6273922,35.310157 12.8712225,34.5254875 11.9097923,33.9735048 C10.9483621,33.4215221 9.87352082,33.1455349 8.68523628,33.1455349 C7.47534657,33.1455349 6.38970289,33.4215221 5.42827268,33.9735048 C4.46684246,34.5254875 3.71067273,35.310157 3.15974081,36.3275368 C2.60880889,37.3449167 2.33334706,38.5029806 2.33334706,39.8017634 C2.33334706,41.1005462 2.60880889,42.2586101 3.15974081,43.27599 C3.71067273,44.2933698 4.46684246,45.0780393 5.42827268,45.630022 C6.38970289,46.1820047 7.47534657,46.4579919 8.68523628,46.4579919 Z M24.8302842,31.2623093 L27.1312236,31.2623093 L27.1312236,48.3412175 L24.8302842,48.3412175 L24.8302842,31.2623093 Z M25.9969577,27.5283274 C25.5216439,27.5283274 25.1219542,27.365982 24.7978766,27.0412863 C24.473799,26.7165906 24.3117626,26.3269617 24.3117626,25.8723877 C24.3117626,25.4394601 24.473799,25.0606541 24.7978766,24.7359584 C25.1219542,24.4112627 25.5216439,24.2489173 25.9969577,24.2489173 C26.4722715,24.2489173 26.8719612,24.4058512 27.1960388,24.7197237 C27.5201164,25.0335962 27.6821528,25.4069907 27.6821528,25.8399183 C27.6821528,26.3161386 27.5201164,26.7165906 27.1960388,27.0412863 C26.8719612,27.365982 26.4722715,27.5283274 25.9969577,27.5283274 Z M50.4707583,31.2623093 L50.4707583,46.2631754 C50.4707583,49.1637903 49.7631994,51.3121613 48.3480606,52.7083528 C46.9329217,54.1045443 44.7994429,54.8026295 41.94756,54.8026295 C40.3703823,54.8026295 38.8742465,54.5699344 37.4591076,54.1045373 C36.0439688,53.6391401 34.8935106,52.99517 34.0076984,52.1726075 L35.174372,50.4192596 C35.9953686,51.1552365 36.9945928,51.7288569 38.1720748,52.1401381 C39.3495567,52.5514194 40.5864344,52.7570569 41.8827448,52.7570569 C44.0432621,52.7570569 45.6312185,52.2537861 46.6466617,51.2472294 C47.6621048,50.2406728 48.1698188,48.6767453 48.1698188,46.5554001 L48.1698188,44.3799498 C47.4568481,45.4622688 46.5224383,46.2848189 45.3665616,46.8476248 C44.2106848,47.4104306 42.9305975,47.6918293 41.5262612,47.6918293 C39.9274784,47.6918293 38.4745522,47.340081 37.1674393,46.6365736 C35.8603263,45.9330663 34.8340959,44.9481708 34.0887174,43.6818576 C33.343339,42.4155443 32.9706553,40.9814932 32.9706553,39.3796611 C32.9706553,37.777829 33.343339,36.3491894 34.0887174,35.0936993 C34.8340959,33.8382093 35.8549251,32.8641368 37.1512355,32.1714527 C38.4475459,31.4787685 39.9058732,31.1324317 41.5262612,31.1324317 C42.9738078,31.1324317 44.2809012,31.4246534 45.4475806,32.0091056 C46.6142599,32.5935579 47.5540709,33.437754 48.2670416,34.5417194 L48.2670416,31.2623093 L50.4707583,31.2623093 Z M41.7531144,45.6462567 C42.9846093,45.6462567 44.097259,45.3810925 45.091097,44.8507562 C46.084935,44.3204199 46.8573083,43.5790425 47.4082402,42.6266018 C47.9591722,41.6741611 48.234634,40.5918584 48.234634,39.3796611 C48.234634,38.1674638 47.9591722,37.0905726 47.4082402,36.1489551 C46.8573083,35.2073376 46.0903362,34.4713717 45.1073008,33.9410354 C44.1242654,33.4106991 43.0062144,33.1455349 41.7531144,33.1455349 C40.5216195,33.1455349 39.414371,33.4052876 38.4313356,33.9248007 C37.4483002,34.4443138 36.681328,35.1802797 36.1303961,36.1327204 C35.5794642,37.0851611 35.3040024,38.1674638 35.3040024,39.3796611 C35.3040024,40.5918584 35.5794642,41.6741611 36.1303961,42.6266018 C36.681328,43.5790425 37.4483002,44.3204199 38.4313356,44.8507562 C39.414371,45.3810925 40.5216195,45.6462567 41.7531144,45.6462567 Z M58.0602002,31.2623093 L60.3611397,31.2623093 L60.3611397,48.3412175 L58.0602002,48.3412175 L58.0602002,31.2623093 Z M59.2268738,27.5283274 C58.75156,27.5283274 58.3518703,27.365982 58.0277926,27.0412863 C57.703715,26.7165906 57.5416787,26.3269617 57.5416787,25.8723877 C57.5416787,25.4394601 57.703715,25.0606541 58.0277926,24.7359584 C58.3518703,24.4112627 58.75156,24.2489173 59.2268738,24.2489173 C59.7021876,24.2489173 60.1018773,24.4058512 60.4259549,24.7197237 C60.7500325,25.0335962 60.9120689,25.4069907 60.9120689,25.8399183 C60.9120689,26.3161386 60.7500325,26.7165906 60.4259549,27.0412863 C60.1018773,27.365982 59.7021876,27.5283274 59.2268738,27.5283274 Z M76.311742,47.3021965 C75.8796385,47.6918313 75.3503197,47.9894646 74.7237697,48.1951052 C74.0972197,48.4007458 73.4382718,48.5035645 72.7469062,48.5035645 C71.1481234,48.5035645 69.916647,48.0706434 69.05244,47.2047882 C68.1882331,46.338933 67.7561361,45.1159309 67.7561361,43.5357452 L67.7561361,27.5283274 L70.0570756,27.5283274 L70.0570756,31.2623093 L75.2098837,31.2623093 L75.2098837,33.2104737 L70.0570756,33.2104737 L70.0570756,43.4058676 C70.0570756,44.4232474 70.3055313,45.1970939 70.8024503,45.7274302 C71.2993693,46.2577665 72.0231318,46.5229307 72.9737594,46.5229307 C74.0108077,46.5229307 74.8533968,46.2307089 75.501552,45.6462567 L76.311742,47.3021965 Z M96.5725548,31.2623093 L96.5725548,48.3412175 L94.3688382,48.3412175 L94.3688382,44.9643991 C93.6774726,46.1116573 92.7646677,46.9883225 91.6303961,47.5944211 C90.4961245,48.2005198 89.2160372,48.5035645 87.7900957,48.5035645 C86.1913129,48.5035645 84.743788,48.1355816 83.4474776,47.3996047 C82.1511672,46.6636278 81.1357393,45.6354402 80.4011634,44.315011 C79.6665875,42.9945818 79.2993051,41.490181 79.2993051,39.8017634 C79.2993051,38.1133458 79.6665875,36.6089449 80.4011634,35.2885158 C81.1357393,33.9680866 82.1511672,32.9453105 83.4474776,32.2201568 C84.743788,31.4950031 86.1913129,31.1324317 87.7900957,31.1324317 C89.1728268,31.1324317 90.4205069,31.4192419 91.5331733,31.9928709 C92.6458398,32.5665 93.5586446,33.4052846 94.2716154,34.50925 L94.2716154,31.2623093 L96.5725548,31.2623093 Z M87.9845413,46.4579919 C89.1728259,46.4579919 90.2476671,46.1820047 91.2090973,45.630022 C92.1705276,45.0780393 92.9266973,44.2933698 93.4776292,43.27599 C94.0285611,42.2586101 94.304023,41.1005462 94.304023,39.8017634 C94.304023,38.5029806 94.0285611,37.3449167 93.4776292,36.3275368 C92.9266973,35.310157 92.1705276,34.5254875 91.2090973,33.9735048 C90.2476671,33.4215221 89.1728259,33.1455349 87.9845413,33.1455349 C86.7746516,33.1455349 85.6890079,33.4215221 84.7275777,33.9735048 C83.7661475,34.5254875 83.0099778,35.310157 82.4590459,36.3275368 C81.9081139,37.3449167 81.6326521,38.5029806 81.6326521,39.8017634 C81.6326521,41.1005462 81.9081139,42.2586101 82.4590459,43.27599 C83.0099778,44.2933698 83.7661475,45.0780393 84.7275777,45.630022 C85.6890079,46.1820047 86.7746516,46.4579919 87.9845413,46.4579919 Z M108.925914,48.5035645 C107.391946,48.5035645 106.209081,48.0706434 105.377282,47.2047882 C104.545483,46.338933 104.129589,45.137577 104.129589,43.600684 L104.129589,24.2489173 L106.430529,24.2489173 L106.430529,43.4058676 C106.430529,44.4232474 106.668182,45.1970939 107.143496,45.7274302 C107.61881,46.2577665 108.33177,46.5229307 109.282397,46.5229307 C109.887342,46.5229307 110.405859,46.4255234 110.837962,46.230706 L111,48.146401 C110.33024,48.3845112 109.638884,48.5035645 108.925914,48.5035645 Z M5.0231777,64.6675994 C6.18985707,62.8493035 8.24231775,61.9401692 11.1806213,61.9401692 L11.1806213,65.8040287 C10.8349386,65.7390896 10.5216682,65.7066205 10.240801,65.7066205 C8.66362333,65.7066205 7.43214692,66.1665991 6.54633481,67.0865703 C5.6605227,68.0065414 5.21762329,69.3323623 5.21762329,71.0640727 L5.21762329,79.4736491 L1.16667353,79.4736491 L1.16667353,62.1349857 L5.0231777,62.1349857 L5.0231777,64.6675994 Z M15.7561567,62.1349857 L19.8071065,62.1349857 L19.8071065,79.4736491 L15.7561567,79.4736491 L15.7561567,62.1349857 Z M17.7978354,59.2776778 C17.0632595,59.2776778 16.4475213,59.0449827 15.9506023,58.5795856 C15.4536833,58.1141884 15.2052275,57.5351564 15.2052275,56.8424723 C15.2052275,56.1497881 15.4536833,55.5707562 15.9506023,55.105359 C16.4475213,54.6399618 17.0632595,54.4072668 17.7978354,54.4072668 C18.5324113,54.4072668 19.1481495,54.6291388 19.6450685,55.0728896 C20.1419875,55.5166404 20.3904432,56.0740263 20.3904432,56.7450641 C20.3904432,57.4593946 20.1473887,58.0600726 19.6612723,58.5471162 C19.1751559,59.0341597 18.5540164,59.2776778 17.7978354,59.2776778 Z M43.4383095,62.1349857 L43.4383095,76.8436272 C43.4383095,82.9479062 40.3272112,86 34.1049212,86 C32.4413229,86 30.8641689,85.788951 29.3734119,85.3668466 C27.882655,84.9447422 26.6511785,84.3332411 25.6789457,83.532325 L27.4937712,80.4802008 C28.2499523,81.1079458 29.2059669,81.6112166 30.3618437,81.9900282 C31.5177204,82.3688399 32.6897835,82.5582428 33.8780681,82.5582428 C35.7793233,82.5582428 37.1728361,82.1253217 38.0586482,81.2594665 C38.9444603,80.3936114 39.3873597,79.073202 39.3873597,77.2981989 L39.3873597,76.3890555 C38.6959942,77.1466787 37.8534051,77.7202992 36.8595671,78.109934 C35.8657291,78.4995689 34.7746842,78.6943834 33.5863997,78.6943834 C31.9444065,78.6943834 30.4590731,78.342635 29.1303549,77.6391276 C27.8016368,76.9356203 26.7538016,75.9453133 25.9868179,74.6681769 C25.2198343,73.3910405 24.8363482,71.9299318 24.8363482,70.2848069 C24.8363482,68.639682 25.2198343,67.1839848 25.9868179,65.9176716 C26.7538016,64.6513584 27.8016368,63.6718744 29.1303549,62.9791903 C30.4590731,62.2865061 31.9444065,61.9401692 33.5863997,61.9401692 C34.8394997,61.9401692 35.9791555,62.1458068 37.0054013,62.557088 C38.031647,62.9683692 38.8904398,63.5961048 39.5818053,64.4403136 L39.5818053,62.1349857 L43.4383095,62.1349857 Z M34.202144,75.2526262 C35.7361113,75.2526262 36.9945938,74.7926475 37.9776292,73.8726764 C38.9606646,72.9527053 39.4521749,71.7567607 39.4521749,70.2848069 C39.4521749,68.8344995 38.9606646,67.6547895 37.9776292,66.7456415 C36.9945938,65.8364936 35.7361113,65.3819264 34.202144,65.3819264 C32.6465715,65.3819264 31.3772866,65.8364936 30.3942513,66.7456415 C29.4112159,67.6547895 28.9197055,68.8344995 28.9197055,70.2848069 C28.9197055,71.7567607 29.4112159,72.9527053 30.3942513,73.8726764 C31.3772866,74.7926475 32.6465715,75.2526262 34.202144,75.2526262 Z M59.7129877,61.9401692 C61.8951103,61.9401692 63.6451031,62.5787279 64.9630186,63.8558643 C66.2809342,65.1330007 66.9398821,67.0270305 66.9398821,69.5380105 L66.9398821,79.4736491 L62.8889324,79.4736491 L62.8889324,70.057521 C62.8889324,68.5422745 62.5324523,67.4004451 61.8194816,66.6319986 C61.1065109,65.8635521 60.091083,65.4793346 58.7731674,65.4793346 C57.2824104,65.4793346 56.1049462,65.9284903 55.2407392,66.826815 C54.3765323,67.7251398 53.9444353,69.0184916 53.9444353,70.7069092 L53.9444353,79.4736491 L49.8934855,79.4736491 L49.8934855,55.381349 L53.9444353,55.381349 L53.9444353,64.1480889 C54.6141957,63.4337584 55.4405812,62.8871955 56.4236165,62.5083839 C57.4066519,62.1295722 58.503098,61.9401692 59.7129877,61.9401692 Z M82.9552996,78.5320363 C82.4799858,78.9216712 81.9020561,79.2138929 81.2214931,79.4087103 C80.5409301,79.6035277 79.8225689,79.700935 79.0663878,79.700935 C77.1651326,79.700935 75.6960028,79.2030757 74.6589545,78.2073423 C73.6219062,77.2116088 73.1033898,75.7613231 73.1033898,73.8564417 L73.1033898,58.3035956 L77.1543395,58.3035956 L77.1543395,62.2648633 L81.7886261,62.2648633 L81.7886261,65.511804 L77.1543395,65.511804 L77.1543395,73.7590335 C77.1543395,74.6032423 77.3649868,75.2472124 77.7862877,75.6909632 C78.2075886,76.134714 78.7963207,76.356586 79.5525018,76.356586 C80.4599191,76.356586 81.2160888,76.1184794 81.8210337,75.6422591 L82.9552996,78.5320363 Z M92.7808658,79.700935 C91.3765296,79.700935 90.0046216,79.5169435 88.6651009,79.1489551 C87.3255801,78.7809666 86.2561401,78.3155764 85.4567487,77.7527706 L87.0123134,74.6681769 C87.7900996,75.18769 88.7245094,75.6043765 89.8155706,75.9182491 C90.9066319,76.2321216 91.9814731,76.3890555 93.0401266,76.3890555 C95.4599061,76.3890555 96.6697776,75.7504968 96.6697776,74.4733604 C96.6697776,73.8672618 96.3619085,73.4451637 95.7461611,73.2070535 C95.2073821,72.9987071 94.3832742,72.7986499 93.2738176,72.6068771 L92.7808658,72.525196 C91.3549244,72.3087322 90.1936638,72.0598026 89.2970491,71.7783996 C88.4004344,71.4969967 87.6226598,71.0045489 86.963702,70.3010416 C86.3047442,69.5975343 85.9752703,68.6180503 85.9752703,67.3625602 C85.9752703,65.7174354 86.6612242,64.4024375 88.0331527,63.4175273 C89.4050812,62.432617 91.2576971,61.9401692 93.5910558,61.9401692 C94.7793403,61.9401692 95.9676071,62.0754571 97.1558916,62.3460368 C98.3441761,62.6166166 99.3163943,62.979188 100.072575,63.433762 L98.5170107,66.5183557 C97.0478589,65.6525005 95.3950879,65.2195794 93.5586482,65.2195794 C92.3703637,65.2195794 91.4683612,65.3981593 90.8526138,65.7553246 C90.2368663,66.1124898 89.9289972,66.5832915 89.9289972,67.1677438 C89.9289972,67.8171352 90.2584712,68.2771139 90.917429,68.5476936 C91.5763867,68.8182734 92.5972159,69.0726145 93.979947,69.3107247 C95.3626781,69.5271885 96.4969327,69.7761181 97.3827448,70.057521 C98.2685569,70.338924 99.0301278,70.8151372 99.6674804,71.486175 C100.304833,72.1572127 100.623505,73.1096392 100.623505,74.3434828 C100.623505,75.9669613 99.921347,77.2657246 98.5170107,78.2398117 C97.1126744,79.2138988 95.2006453,79.700935 92.7808658,79.700935 Z" id="yourdigitalrights" fill="#F6F7FA"></path>
                <path d="M106.760981,80.4547908 C105.997779,80.4547908 105.346823,80.190511 104.808092,79.6619433 C104.269361,79.1333757 104,78.4642416 104,77.6545209 C104,76.822308 104.26375,76.1475509 104.791257,75.6302294 C105.318764,75.1129079 105.975332,74.854251 106.760981,74.854251 C107.54663,74.854251 108.203198,75.1129079 108.730705,75.6302294 C109.258212,76.1475509 109.521962,76.822308 109.521962,77.6545209 C109.521962,78.4642416 109.252601,79.1333757 108.71387,79.6619433 C108.175139,80.190511 107.524183,80.4547908 106.760981,80.4547908 Z M120.153711,80.4547908 C118.335495,80.4547908 116.69688,80.0611825 115.237818,79.2739541 C113.778756,78.4867257 112.639582,77.3902454 111.820262,75.9844804 C111.000943,74.5787154 110.591289,72.9874133 110.591289,71.2105263 C110.591289,69.4336393 111.000943,67.8479602 111.820262,66.4534413 C112.639582,65.0589224 113.778756,63.9680651 115.237818,63.1808367 C116.69688,62.3936083 118.335495,62 120.153711,62 C121.994374,62 123.644212,62.3936083 125.103275,63.1808367 C126.562337,63.9680651 127.701511,65.0589224 128.52083,66.4534413 C129.34015,67.8479602 129.749804,69.4336393 129.749804,71.2105263 C129.749804,72.9874133 129.34015,74.5787154 128.52083,75.9844804 C127.701511,77.3902454 126.562337,78.4867257 125.103275,79.2739541 C123.644212,80.0611825 121.994374,80.4547908 120.153711,80.4547908 Z M120.153711,76.8448043 C121.702562,76.8448043 122.982028,76.3274906 123.992148,75.2928475 C125.002268,74.2582045 125.507321,72.8974443 125.507321,71.2105263 C125.507321,69.5236083 125.002268,68.1628482 123.992148,67.1282051 C122.982028,66.0935621 121.702562,65.5762483 120.153711,65.5762483 C118.60486,65.5762483 117.331006,66.0935621 116.332109,67.1282051 C115.333213,68.1628482 114.833772,69.5236083 114.833772,71.2105263 C114.833772,72.8974443 115.333213,74.2582045 116.332109,75.2928475 C117.331006,76.3274906 118.60486,76.8448043 120.153711,76.8448043 Z M136.576786,64.8340081 C137.78893,62.9446599 139.921374,62 142.974181,62 L142.974181,66.0148448 C142.615028,65.9473681 142.289549,65.9136302 141.997737,65.9136302 C140.359098,65.9136302 139.079631,66.3915832 138.1593,67.3475034 C137.238968,68.3034236 136.778809,69.6810526 136.778809,71.4804318 L136.778809,80.2186235 L132.569997,80.2186235 L132.569997,62.2024291 L136.576786,62.2024291 L136.576786,64.8340081 Z M152.764168,62 C154.0661,62 155.250168,62.2136731 156.316406,62.6410256 C157.382644,63.0683782 158.274903,63.7206434 158.99321,64.5978408 L158.99321,62.2024291 L163,62.2024291 L163,77.48583 C163,83.8286417 159.767664,87 153.302896,87 C151.574468,87 149.935854,86.7807039 148.387003,86.3421053 C146.838152,85.9035066 145.558686,85.2681103 144.548566,84.4358974 L146.434114,81.2645074 C147.219763,81.9167824 148.213033,82.4397191 149.413953,82.8333333 C150.614874,83.2269475 151.832611,83.4237517 153.067202,83.4237517 C155.042548,83.4237517 156.490365,82.9739136 157.410697,82.074224 C158.331029,81.1745344 158.791187,79.8025283 158.791187,77.9581646 L158.791187,77.0134953 C158.07288,77.8007237 157.197456,78.3967591 156.164888,78.8016194 C155.132321,79.2064798 153.998759,79.4089069 152.764168,79.4089069 C151.058187,79.4089069 149.514972,79.0434135 148.134474,78.3124157 C146.753977,77.5814178 145.665308,76.5524133 144.868436,75.2253711 C144.071563,73.8983289 143.673133,72.3801255 143.673133,70.6707152 C143.673133,68.961305 144.071563,67.4487245 144.868436,66.1329285 C145.665308,64.8171324 146.753977,63.7993738 148.134474,63.0796221 C149.514972,62.3598704 151.058187,62 152.764168,62 Z M153.403907,65.5762483 C151.787715,65.5762483 150.468967,66.0485783 149.447624,66.9932524 C148.42628,67.9379265 147.915616,69.1637352 147.915616,70.6707152 C147.915616,72.2001876 148.42628,73.4428652 149.447624,74.3987854 C150.468967,75.3547056 151.787715,75.8326586 153.403907,75.8326586 C154.997652,75.8326586 156.305177,75.3547056 157.326521,74.3987854 C158.347864,73.4428652 158.858528,72.2001876 158.858528,70.6707152 C158.858528,69.1637352 158.347864,67.9379265 157.326521,66.9932524 C156.305177,66.0485783 154.997652,65.5762483 153.403907,65.5762483 Z" id=".org" fill="#62A6DA"></path>
            </g>
        </g>
    </g>
</svg>